<?xml version="1.0" encoding="utf-8"?><svg xmlns:xlink="http://www.w3.org/1999/xlink" id="Scene_1" image-rendering="auto" baseProfile="basic" version="1.1" x="0px" y="0px" width="64" height="130" viewBox="0 0 64 130" xmlns="http://www.w3.org/2000/svg"><g id="Scene 1_0.0"><path fill="#FFF" d="M70.5,17.65Q68.7,18.4 66.3,18.4L65.65,18.35Q63,18.3 60.6,16.85 58.05,15 56.8,14.15 54.35,12.4 50.2,12.4 46.4,12.4 43.7,14.3 39.9,17 38.95,17.45 37,18.4 34.15,18.4L33.6,18.4Q30.65,18.3 28.3,16.9 26.1,15.25 25.25,14.7 23.35,13.45 22.75,13.15 21.2,12.4 19.35,12.4L18.3,12.35Q14.05,12.35 10.65,14.85 8,16.9 6.45,17.65 4.65,18.4 2.25,18.4L1.6,18.35Q-1.05,18.3 -3.45,16.85 -6,15 -7.25,14.15 -9.45,12.6 -13,12.4L-13,13.15Q-11.6,13.25 -10.25,13.65 -8.65,14.05 -7.7,14.75 -6.5,15.55 -3.85,17.55 -1.25,19.1 1.6,19.15L2.25,19.15Q4.85,19.15 6.75,18.35 8.2,17.7 11.15,15.45 14.3,13.1 18.3,13.1L19.35,13.15Q21.05,13.2 22.45,13.85 23,14.1 24.8,15.3 25.6,15.8 27.95,17.6 30.5,19.1 33.6,19.15L34.15,19.15Q37.15,19.15 39.3,18.1 40.35,17.6 44.15,14.9 46.75,13.15 50.2,13.15 52.05,13.15 53.8,13.65 55.4,14.05 56.35,14.75 57.55,15.55 60.2,17.55 62.8,19.1 65.65,19.15L66.3,19.15Q68.9,19.15 70.8,18.35 72.35,17.65 75.15,15.45 76.95,14.15 79,13.55L79,12.75Q76.7,13.35 74.7,14.85 72.05,16.9 70.5,17.65"/><path fill="#FFF" d="M72,23.7Q72.85,23.1 75.05,21.45 76.85,20.4 79,20.1L79,19.35Q76.65,19.65 74.7,20.8 72.35,22.5 71.55,23.05 69.8,24.25 69.2,24.55 67.8,25.2 66.1,25.25L64.95,25.3Q61.05,25.3 57.85,22.9 54.75,20.6 53.5,20.05 51.85,19.25 49,19.25L48.3,19.25Q45.5,19.3 42.9,20.85 40.25,22.8 39.05,23.6 38.1,24.3 36.5,24.75 34.75,25.25 32.9,25.25 29.4,25.25 26.85,23.45 23.05,20.75 22,20.25 19.95,19.25 16.8,19.25L16.3,19.25Q13.2,19.3 10.65,20.8 8.3,22.5 7.5,23.05 5.75,24.25 5.15,24.55 3.75,25.2 2.05,25.25L0.9,25.3Q-3,25.3 -6.15,22.9 -9.35,20.55 -10.55,20.05 -11.55,19.55 -13,19.35L-13,20.1Q-11.75,20.3 -10.85,20.75 -9.65,21.25 -6.65,23.5 -3.3,26.05 0.9,26.05L2.05,26Q3.9,25.95 5.45,25.25 6.1,24.9 7.95,23.7 8.8,23.1 11,21.45 13.35,20.05 16.3,20L16.8,20Q19.7,20 21.65,20.95 22.6,21.4 26.4,24.1 29.1,26 32.9,26 36.9,26 39.5,24.25 40.75,23.4 43.3,21.5 45.7,20.05 48.35,20L49,20Q51.65,20 53.2,20.75 54.4,21.25 57.4,23.5 60.75,26.05 64.95,26.05L66.1,26Q67.95,25.95 69.5,25.25 70.15,24.9 72,23.7"/><path fill="#FFF" d="M57.4,30Q54.55,32.15 53.2,32.8 51.5,33.5 49,33.5L48.35,33.5Q45.7,33.45 43.3,32 40.75,30.15 39.5,29.3 37.1,27.6 32.9,27.5 29.2,27.5 26.4,29.45 22.75,32 21.65,32.6 19.5,33.55 16.8,33.55L16.3,33.5Q13.35,33.45 11,32.05 8.8,30.4 7.95,29.85 6.05,28.55 5.45,28.3 3.9,27.55 2.05,27.5L1,27.5Q-3.3,27.5 -6.65,30 -9.3,32.05 -10.85,32.8 -11.8,33.2 -13,33.35L-13,34.15Q-11.65,33.95 -10.55,33.5 -9,32.8 -6.2,30.6 -3,28.25 1,28.25L2.05,28.3Q3.75,28.35 5.15,29 5.7,29.25 7.5,30.45 8.3,30.95 10.65,32.75 13.2,34.25 16.3,34.3L16.8,34.3Q19.85,34.3 22,33.25 23.05,32.75 26.85,30.05 29.35,28.3 32.9,28.3 34.7,28.25 36.5,28.75 38.1,29.2 39.05,29.9 40.25,30.7 42.9,32.65 45.5,34.2 48.3,34.25L49,34.3Q51.6,34.3 53.5,33.5 54.85,32.9 57.85,30.6 61.05,28.25 65.05,28.25L66.1,28.3Q67.8,28.35 69.2,29 69.75,29.25 71.55,30.45 72.35,30.95 74.7,32.75 76.7,33.9 79,34.2L79,33.4Q76.85,33.1 75.05,32.05 72.85,30.4 72,29.85 70.1,28.55 69.5,28.3 67.95,27.55 66.1,27.5L65.05,27.5Q60.75,27.5 57.4,30"/><path fill="#FFF" d="M49,48.65L48.3,48.7Q45.5,48.75 42.9,50.3 40.25,52.25 39.05,53.05 38.1,53.75 36.5,54.2 34.7,54.7 32.9,54.7 29.4,54.7 26.85,52.9 23.05,50.2 22,49.7 19.85,48.65 16.8,48.65L16.3,48.65Q13.2,48.7 10.65,50.2 8.3,51.95 7.5,52.5 5.7,53.7 5.15,53.95 3.75,54.65 2.05,54.7L0.9,54.7Q-3.05,54.7 -6.15,52.35 -9.1,50.1 -10.55,49.45 -11.6,49 -13,48.75L-13,49.55Q-11.75,49.75 -10.85,50.15 -9.4,50.8 -6.65,52.95 -3.35,55.45 0.9,55.45L2.05,55.45Q3.9,55.4 5.45,54.65 6.05,54.4 7.95,53.1 8.8,52.5 11,50.9 13.35,49.5 16.3,49.45L16.8,49.4Q19.7,49.45 21.65,50.4 22.65,50.85 26.4,53.5 29.2,55.45 32.9,55.45 37,55.45 39.5,53.65 40.75,52.8 43.3,50.95 45.7,49.5 48.35,49.45L49,49.45Q51.6,49.45 53.2,50.15 54.65,50.8 57.4,52.95 60.7,55.45 64.95,55.45L66.1,55.45Q67.95,55.4 69.5,54.65 70.1,54.4 72,53.1 72.85,52.5 75.05,50.9 76.85,49.85 79,49.55L79,48.75Q76.7,49.05 74.7,50.2 72.35,51.95 71.55,52.5 69.75,53.7 69.2,53.95 67.8,54.65 66.1,54.7L64.95,54.7Q61,54.7 57.85,52.35 55.05,50.15 53.5,49.45 51.7,48.65 49,48.65"/><path fill="#FFF" d="M50.2,41.8Q46.5,41.8 43.7,43.75 40.1,46.3 38.95,46.85 37,47.8 34.15,47.8L33.6,47.8Q30.65,47.75 28.3,46.35 26.1,44.7 25.25,44.1 23.2,42.8 22.75,42.55 21.15,41.85 19.35,41.8L18.3,41.8Q14.05,41.8 10.65,44.3 7.75,46.5 6.45,47.1 4.75,47.8 2.25,47.8L1.6,47.8Q-1.05,47.75 -3.45,46.3 -6,44.4 -7.25,43.55 -9.55,42 -13,41.8L-13,42.55Q-11.65,42.65 -10.25,43.05 -8.65,43.5 -7.7,44.2 -6.5,45 -3.85,46.95 -1.2,48.5 1.6,48.55L2.25,48.55Q5,48.55 6.75,47.75 8.2,47.15 11.15,44.9 14.3,42.55 18.3,42.55L19.35,42.55Q21.05,42.6 22.45,43.25 23.05,43.55 24.8,44.75 25.6,45.25 27.95,47 30.5,48.5 33.6,48.55L34.15,48.55Q37.25,48.55 39.3,47.55 40.35,47.05 44.15,44.35 46.7,42.55 50.2,42.55 52,42.55 53.8,43.05 55.4,43.5 56.35,44.2 57.55,45 60.2,46.95 62.85,48.5 65.65,48.55L66.3,48.55Q69.05,48.55 70.8,47.75 72.3,47.1 75.15,44.9 76.95,43.6 79,43L79,42.2Q76.7,42.8 74.7,44.3 71.8,46.5 70.5,47.1 68.8,47.8 66.3,47.8L65.65,47.8Q63,47.75 60.6,46.3 58.05,44.4 56.8,43.55 54.2,41.8 50.2,41.8"/><path fill="#FFF" d="M43.7,38.35Q46.5,40.3 50.2,40.3 54.2,40.3 56.8,38.55 58.05,37.65 60.6,35.8 63,34.35 65.65,34.3L66.3,34.3Q68.9,34.3 70.5,35 71.95,35.65 74.7,37.8 76.7,39.3 79,39.9L79,39.1Q76.95,38.55 75.15,37.2 72.35,35 70.8,34.3 69.05,33.55 66.3,33.55L65.65,33.55Q62.85,33.6 60.2,35.15 57.55,37.1 56.35,37.9 55.4,38.6 53.8,39.05 52,39.55 50.2,39.55 46.7,39.55 44.15,37.75 40.35,35.05 39.3,34.55 37.25,33.55 34.15,33.55L33.6,33.55Q30.5,33.6 27.95,35.1 25.6,36.8 24.8,37.35 23.05,38.55 22.45,38.85 21.05,39.5 19.35,39.55L18.2,39.55Q14.25,39.55 11.15,37.2 8.2,34.95 6.75,34.3 5.05,33.55 2.25,33.55L1.6,33.55Q-1.2,33.6 -3.85,35.15 -6.5,37.1 -7.7,37.9 -8.65,38.6 -10.25,39.05 -11.65,39.45 -13,39.5L-13,40.25Q-9.55,40.1 -7.25,38.55 -6,37.65 -3.45,35.8 -1.05,34.35 1.6,34.3L2.25,34.3Q4.85,34.3 6.45,35 7.9,35.65 10.65,37.8 14,40.35 18.2,40.35L19.35,40.3Q21.2,40.25 22.75,39.5 23.35,39.25 25.25,37.95 26.1,37.35 28.3,35.75 30.65,34.35 33.6,34.3L34.15,34.3Q37,34.3 38.95,35.25 40.1,35.8 43.7,38.35"/><path fill="#FFF" d="M36.5,58.2Q38.1,58.65 39.05,59.35 40.25,60.15 42.9,62.1 45.5,63.65 48.3,63.7L49,63.7Q51.75,63.7 53.5,62.9 54.55,62.45 57.85,60.05 60.95,57.7 65.05,57.7L66.1,57.7Q67.8,57.75 69.2,58.4 69.8,58.7 71.55,59.9 72.35,60.4 74.7,62.15 76.65,63.3 79,63.6L79,62.85Q76.85,62.55 75.05,61.5 72.85,59.85 72,59.25 70.15,58.05 69.5,57.7 67.95,57 66.1,56.95L65.05,56.95Q60.75,56.95 57.4,59.45 54.25,61.75 53.2,62.2 51.55,62.95 49,62.95L48.35,62.95Q45.7,62.9 43.3,61.4 40.75,59.55 39.5,58.7 36.9,56.95 32.9,56.95 29.1,56.95 26.4,58.85 22.95,61.35 21.65,62 19.7,62.95 16.8,62.95L16.3,62.95Q13.35,62.9 11,61.5 8.8,59.85 7.95,59.25 6.1,58.05 5.45,57.7 3.9,57 2.05,56.95L1,56.95Q-3.3,56.95 -6.65,59.45 -9.6,61.65 -10.85,62.2 -11.8,62.6 -13,62.8L-13,63.55Q-11.6,63.4 -10.55,62.9 -9.3,62.35 -6.2,60.05 -3.1,57.7 1,57.7L2.05,57.7Q3.75,57.75 5.15,58.4 5.75,58.7 7.5,59.9 8.3,60.4 10.65,62.15 13.2,63.65 16.3,63.7L16.8,63.7Q19.95,63.7 22,62.7 23.05,62.2 26.85,59.5 29.4,57.7 32.9,57.7 34.75,57.7 36.5,58.2"/><path fill="#FFF" d="M22.45,72.7Q23.05,73 24.8,74.2 25.6,74.7 27.95,76.45 30.5,77.95 33.6,78L34.15,78Q37.25,78 39.3,76.95 40.1,76.55 44.15,73.8 46.7,72 50.2,72 52.05,72 53.8,72.5 55.4,72.9 56.35,73.6 57.55,74.4 60.2,76.4 62.8,77.95 65.65,78L66.3,78Q69.05,78 70.8,77.2 72.25,76.55 75.15,74.35 76.95,73 79,72.4L79,71.6Q76.7,72.2 74.7,73.7 71.85,75.9 70.5,76.5 68.85,77.25 66.3,77.25L65.65,77.25Q63,77.2 60.6,75.7 58.05,73.85 56.8,73 54.35,71.25 50.2,71.25 46.4,71.25 43.7,73.15 39.9,75.85 38.95,76.3 37,77.25 34.15,77.25L33.6,77.25Q30.65,77.2 28.3,75.8 26.1,74.15 25.25,73.55 23.4,72.35 22.75,72 21.2,71.3 19.35,71.25L18.3,71.2Q14.05,71.2 10.65,73.7 7.8,75.9 6.45,76.5 4.8,77.25 2.25,77.25L1.6,77.25Q-1.05,77.2 -3.45,75.7 -6,73.85 -7.25,73 -9.45,71.45 -13,71.25L-13,72Q-11.6,72.1 -10.25,72.5 -8.65,72.9 -7.7,73.6 -6.5,74.4 -3.85,76.4 -1.25,77.95 1.6,78L2.25,78Q5,78 6.75,77.2 8.1,76.6 11.15,74.35 14.3,71.95 18.3,71.95L19.35,72Q21.05,72.05 22.45,72.7"/><path fill="#FFF" d="M24.8,66.8Q23,68 22.45,68.25 21.05,68.9 19.35,68.95L18.2,69Q14.25,69 11.15,66.65 8.2,64.4 6.75,63.75 5.1,62.95 2.25,62.95L1.6,62.95Q-1.25,63 -3.85,64.55 -6.5,66.5 -7.7,67.35 -8.65,68 -10.25,68.45 -11.6,68.85 -13,68.9L-13,69.65Q-9.45,69.5 -7.25,67.95 -6,67.1 -3.45,65.25 -1.05,63.8 1.6,63.75L2.25,63.7Q4.9,63.7 6.45,64.45 7.75,65 10.65,67.25 14,69.75 18.2,69.75L19.35,69.7Q21.2,69.7 22.75,68.95 23.35,68.65 25.25,67.4 26.1,66.8 28.3,65.15 30.65,63.8 33.6,63.7L34.15,63.7Q37,63.7 38.95,64.65 39.9,65.1 43.7,67.8 46.4,69.7 50.2,69.7 54.35,69.7 56.8,67.95 58.05,67.1 60.6,65.25 63,63.8 65.65,63.75L66.3,63.7Q68.95,63.7 70.5,64.45 71.8,65 74.7,67.25 76.7,68.75 79,69.35L79,68.55Q76.95,68 75.15,66.65 72.35,64.45 70.8,63.75 69.05,62.95 66.3,62.95L65.65,62.95Q62.8,63 60.2,64.55 57.55,66.5 56.35,67.35 55.4,68 53.8,68.45 52.05,68.95 50.2,68.95 46.75,68.95 44.15,67.2 40.35,64.5 39.3,64 37.15,62.95 34.15,62.95L33.6,62.95Q30.5,63 27.95,64.5 25.6,66.25 24.8,66.8"/><path fill="#FFF" d="M16.8,78.1L16.3,78.1Q13.2,78.15 10.65,79.65 8.3,81.35 7.5,81.9 5.75,83.1 5.15,83.4 3.75,84.05 2.05,84.1L0.9,84.15Q-3,84.15 -6.15,81.75 -9.35,79.4 -10.55,78.9 -11.55,78.4 -13,78.2L-13,78.95Q-11.75,79.15 -10.85,79.6 -9.65,80.1 -6.65,82.35 -3.3,84.9 0.9,84.9L2.05,84.85Q3.9,84.8 5.45,84.1 6.1,83.75 7.95,82.55 8.8,81.95 11,80.3 13.35,78.9 16.3,78.85L16.8,78.85Q19.7,78.85 21.65,79.8 22.6,80.25 26.4,82.95 29.1,84.85 32.9,84.85 37.05,84.85 39.5,83.1 40.75,82.25 43.3,80.35 45.7,78.9 48.35,78.85L49,78.85Q51.65,78.85 53.2,79.6 54.4,80.1 57.4,82.35 60.75,84.9 64.95,84.9L66.1,84.85Q67.95,84.8 69.5,84.1 70.15,83.75 72,82.55 72.85,81.95 75.05,80.3 76.85,79.25 79,78.95L79,78.2Q76.65,78.5 74.7,79.65 72.35,81.35 71.55,81.9 69.8,83.1 69.2,83.4 67.8,84.05 66.1,84.1L64.95,84.15Q61.05,84.15 57.85,81.75 54.75,79.45 53.5,78.9 51.85,78.1 49,78.1L48.3,78.1Q45.5,78.15 42.9,79.7 40.25,81.65 39.05,82.5 38.1,83.15 36.5,83.6 34.75,84.1 32.9,84.1 29.4,84.1 26.85,82.3 25,81 24.2,80.45 22.9,79.6 22,79.15 19.95,78.1 16.8,78.1"/><path fill="#FFF" d="M2.05,86.4L1,86.35Q-3.3,86.35 -6.65,88.85 -9.3,90.9 -10.85,91.65 -11.8,92.05 -13,92.25L-13,93Q-11.65,92.8 -10.55,92.35 -9,91.65 -6.2,89.45 -3,87.1 1,87.1L2.05,87.15Q3.75,87.2 5.15,87.85 5.7,88.1 7.5,89.3 8.3,89.8 10.65,91.6 13.2,93.1 16.3,93.15L16.8,93.15Q19.85,93.15 22,92.1 23.05,91.6 26.85,88.9 29.45,87.15 32.9,87.15 34.75,87.15 36.5,87.65 38.1,88.05 39.05,88.75 40.25,89.55 42.9,91.55 45.5,93.1 48.3,93.15L49,93.15Q51.6,93.15 53.5,92.35 54.85,91.75 57.85,89.45 61.05,87.1 65.05,87.1L66.1,87.15Q67.8,87.2 69.2,87.85 69.75,88.1 71.55,89.3 72.35,89.8 74.7,91.6 76.7,92.75 79,93.05L79,92.25Q76.85,91.95 75.05,90.9 72.85,89.25 72,88.7 70.1,87.45 69.5,87.15 67.95,86.4 66.1,86.4L65.05,86.35Q60.75,86.35 57.4,88.85 54.55,91 53.2,91.65 51.55,92.4 49,92.4L48.35,92.35Q45.7,92.3 43.3,90.85 40.75,89 39.5,88.15 37.05,86.4 32.9,86.4 29.1,86.4 26.4,88.3 22.6,91 21.65,91.45 19.7,92.4 16.8,92.4L16.3,92.4Q13.35,92.3 11,90.9 8.8,89.25 7.95,88.7 6.05,87.45 5.45,87.15 3.9,86.4 2.05,86.4"/><path fill="#FFF" d="M6.75,93.2Q5.1,92.4 2.25,92.4L1.6,92.4Q-1.2,92.45 -3.85,94 -6.5,95.95 -7.7,96.75 -8.65,97.45 -10.25,97.9 -11.6,98.3 -13,98.35L-13,99.1Q-9.55,98.95 -7.25,97.4 -6,96.5 -3.45,94.65 -1.05,93.2 1.6,93.15L2.25,93.15Q4.85,93.15 6.45,93.85 7.9,94.5 10.65,96.65 14,99.2 18.2,99.2L19.35,99.15Q21.2,99.1 22.75,98.4 23.4,98.05 25.25,96.85 26.1,96.25 28.3,94.6 30.65,93.2 33.6,93.15L34.15,93.15Q37,93.15 38.95,94.1 40.25,94.7 43.7,97.25 46.4,99.15 50.2,99.15 54.2,99.15 56.8,97.4 58.05,96.5 60.6,94.65 63,93.2 65.65,93.15L66.3,93.15Q68.9,93.15 70.5,93.85 71.95,94.5 74.7,96.65 76.7,98.15 79,98.75L79,98Q76.95,97.4 75.15,96.05 72.3,93.85 70.8,93.2 69.05,92.4 66.3,92.4L65.65,92.4Q62.85,92.45 60.2,94 57.55,95.95 56.35,96.75 55.4,97.45 53.8,97.9 52.05,98.4 50.2,98.4 46.7,98.4 44.15,96.6 40.35,93.9 39.3,93.4 37.25,92.4 34.15,92.4L33.6,92.4Q30.5,92.45 27.95,93.95 25.6,95.65 24.8,96.2 23.05,97.4 22.45,97.7 21.05,98.35 19.35,98.4L18.2,98.45Q14.3,98.45 11.15,96.05 8.2,93.8 6.75,93.2"/><path fill="#FFF" d="M79,101.85L79,101.05Q76.7,101.65 74.7,103.15 72.05,105.2 70.5,105.95 68.8,106.65 66.3,106.65L65.65,106.65Q63,106.6 60.6,105.15 58.05,103.3 56.8,102.45 54.3,100.65 50.2,100.65 46.5,100.65 43.7,102.6 40.1,105.15 38.95,105.7 37,106.65 34.15,106.65L33.6,106.65Q30.65,106.6 28.3,105.2 26.1,103.55 25.25,103 23.35,101.7 22.75,101.45 21.2,100.7 19.35,100.65L18.3,100.65Q14.05,100.65 10.65,103.15 8,105.2 6.45,105.95 4.75,106.65 2.25,106.65L1.6,106.65Q-1.05,106.6 -3.45,105.15 -6,103.3 -7.25,102.45 -9.5,100.85 -13,100.65L-13,101.45Q-11.65,101.5 -10.25,101.9 -8.65,102.35 -7.7,103.05 -6.5,103.85 -3.85,105.8 -1.2,107.35 1.6,107.4L2.25,107.4Q4.8,107.45 6.75,106.65 8.2,106 11.15,103.75 14.3,101.4 18.3,101.4L19.35,101.45Q21.05,101.5 22.45,102.15 23,102.4 24.8,103.6 25.6,104.1 27.95,105.9 30.5,107.4 33.6,107.45L34.15,107.45Q37.15,107.45 39.3,106.4 40.35,105.9 44.15,103.2 46.75,101.35 50.2,101.45 52,101.4 53.8,101.9 55.4,102.35 56.35,103.05 57.55,103.85 60.2,105.8 62.85,107.35 65.65,107.4L66.3,107.4Q68.85,107.45 70.8,106.65 72.35,105.95 75.15,103.75 76.95,102.45 79,101.85"/><path fill="#FFF" d="M79,108.4L79,107.65Q76.65,107.95 74.7,109.1 72.35,110.8 71.55,111.35 69.65,112.6 69.2,112.85 67.8,113.5 66.1,113.55L64.95,113.55Q61,113.55 57.85,111.2 55.05,109 53.5,108.3 51.8,107.55 49,107.55L48.3,107.55Q45.5,107.6 42.9,109.15 40.25,111.1 39.05,111.9 38.1,112.6 36.5,113.05 34.7,113.55 32.9,113.55 29.4,113.55 26.85,111.75 23.05,109.05 22,108.55 19.8,107.5 16.8,107.55L16.3,107.55Q13.2,107.6 10.65,109.1 8.3,110.8 7.5,111.35 5.75,112.55 5.15,112.85 3.75,113.5 2.05,113.55L0.9,113.55Q-3.05,113.55 -6.15,111.2 -9.1,108.95 -10.55,108.3 -11.6,107.85 -13,107.65L-13,108.4Q-11.75,108.6 -10.85,109 -9.4,109.65 -6.65,111.8 -3.3,114.35 0.9,114.35L2.05,114.3Q3.9,114.25 5.45,113.5 6.05,113.25 7.95,111.95 8.8,111.35 11,109.75 13.35,108.35 16.3,108.3L16.8,108.3Q19.7,108.3 21.65,109.25 22.8,109.8 26.4,112.35 29.2,114.3 32.9,114.3 36.9,114.3 39.5,112.55 40.75,111.65 43.3,109.8 45.7,108.35 48.35,108.3L49,108.3Q51.6,108.3 53.2,109 54.65,109.65 57.4,111.8 60.75,114.35 64.95,114.35L66.1,114.3Q67.95,114.25 69.5,113.5 70.1,113.25 72,111.95 72.85,111.35 75.05,109.75 76.85,108.7 79,108.4"/><path fill="#FFF" d="M66.1,116.55Q67.8,116.6 69.2,117.25 69.8,117.55 71.55,118.75 72.35,119.25 74.7,121 76.65,122.15 79,122.45L79,121.7Q76.85,121.4 75.05,120.35 72.85,118.7 72,118.1 69.95,116.8 69.5,116.55 67.9,115.85 66.1,115.8L65.05,115.8Q60.75,115.8 57.4,118.3 54.25,120.6 53.2,121.1 51.5,121.8 49,121.8L48.35,121.8Q45.7,121.75 43.3,120.3 40.75,118.4 39.5,117.55 36.9,115.8 32.9,115.8 29.2,115.8 26.4,117.75 22.8,120.3 21.65,120.85 19.7,121.8 16.8,121.8L16.3,121.8Q13.35,121.75 11,120.35 8.8,118.7 7.95,118.1 5.9,116.8 5.45,116.55 3.85,115.85 2.05,115.8L1,115.8Q-3.3,115.8 -6.65,118.3 -9.55,120.5 -10.85,121.1 -11.8,121.5 -13,121.65L-13,122.4Q-11.6,122.25 -10.55,121.75 -9.05,121.1 -6.2,118.9 -3,116.55 1,116.55L2.05,116.55Q3.75,116.6 5.15,117.25 5.75,117.55 7.5,118.75 8.3,119.25 10.65,121 13.2,122.5 16.3,122.55L16.8,122.55Q19.95,122.55 22,121.55 23.05,121.05 26.85,118.35 29.4,116.55 32.9,116.55 34.7,116.55 36.5,117.05 38.1,117.5 39.05,118.2 40.25,119 42.9,120.95 45.5,122.5 48.3,122.55L49,122.55Q51.75,122.55 53.5,121.75 54.85,121.2 57.85,118.9 61.05,116.55 65.05,116.55L66.1,116.55"/><path fill="#FFF" d="M70.8,122.6Q68.9,121.8 66.3,121.8L65.65,121.85Q62.8,121.9 60.2,123.45 57.55,125.35 56.35,126.2 55.4,126.85 53.8,127.3 52.05,127.8 50.2,127.8 46.65,127.8 44.15,126.05 40.35,123.35 39.3,122.85 37.15,121.8 34.15,121.8L33.6,121.8Q30.5,121.85 27.95,123.35 25.6,125.1 24.8,125.65 23,126.85 22.45,127.1 21.05,127.75 19.35,127.8L18.2,127.85Q14.25,127.85 11.15,125.5 8.2,123.25 6.75,122.6 4.95,121.8 2.25,121.8L1.6,121.85Q-1.25,121.9 -3.85,123.45 -6.5,125.35 -7.7,126.2 -8.65,126.85 -10.25,127.3 -11.6,127.7 -13,127.75L-13,128.55Q-9.4,128.3 -7.25,126.8 -6,125.95 -3.45,124.1 -1.05,122.65 1.6,122.6L2.25,122.6Q4.85,122.6 6.45,123.3 7.75,123.85 10.65,126.1 14,128.6 18.2,128.6L19.35,128.6Q21.2,128.55 22.75,127.8 23.35,127.55 25.25,126.25 26.1,125.65 28.3,124.05 30.65,122.65 33.6,122.6L34.15,122.55Q37,122.55 38.95,123.55 39.95,124 43.7,126.65 46.5,128.6 50.2,128.6 54.4,128.5 56.8,126.8 58.05,125.95 60.6,124.1 63,122.65 65.65,122.6L66.3,122.6Q68.9,122.6 70.5,123.3 71.8,123.85 74.7,126.1 76.7,127.6 79,128.2L79,127.4Q76.95,126.85 75.15,125.5 72.35,123.3 70.8,122.6"/></g><defs/></svg>