<?xml version="1.0" encoding="utf-8"?><svg xmlns:xlink="http://www.w3.org/1999/xlink" id="Scene_1" image-rendering="auto" baseProfile="basic" version="1.1" x="0px" y="0px" width="64" height="130" viewBox="0 0 64 130" xmlns="http://www.w3.org/2000/svg"><g id="Scene 1_0.0"><path fill="#FFF" d="M79,2.225L79,1.45Q75.402,1.676 73.25,3.2 72,4.05 69.45,5.9 67.05,7.35 64.4,7.4L63.75,7.4Q61.15,7.4 59.55,6.7 58.25,6.15 55.35,3.9 52,1.4 47.8,1.4L46.65,1.4Q44.8,1.45 43.25,2.2 42.65,2.45 40.75,3.75 39.9,4.35 37.7,5.95 35.35,7.35 32.4,7.4L31.85,7.45Q29,7.45 27.05,6.45 26.05,6 22.3,3.35 19.5,1.4 15.8,1.4 11.6,1.5 9.2,3.2 7.95,4.05 5.4,5.9 3,7.35 0.35,7.4L-0.3,7.4Q-2.9,7.4 -4.5,6.7 -5.8,6.15 -8.7,3.9 -10.7,2.4 -13,1.8L-13,2.6Q-10.95,3.15 -9.15,4.5 -6.35,6.7 -4.8,7.4 -2.9,8.2 -0.3,8.2L0.35,8.15Q3.2,8.1 5.8,6.55 8.45,4.65 9.65,3.8 10.6,3.15 12.2,2.7 13.95,2.2 15.8,2.2 19.35,2.2 21.85,3.95 25.65,6.65 26.7,7.15 28.85,8.2 31.85,8.2L32.4,8.2Q35.5,8.15 38.05,6.65 40.4,4.9 41.2,4.35 43,3.15 43.55,2.9 44.95,2.25 46.65,2.2L47.8,2.15Q51.75,2.15 54.85,4.5 57.8,6.75 59.25,7.4 61.05,8.2 63.75,8.2L64.4,8.15Q67.25,8.1 69.85,6.55 72.5,4.65 73.7,3.8 74.65,3.15 76.25,2.7 77.596,2.316 79,2.225"/><path fill="#FFF" d="M79,8.325L79,7.575Q77.596,7.772 76.55,8.25 75.05,8.9 72.2,11.1 69,13.45 65,13.45L63.95,13.45Q62.25,13.4 60.85,12.75 60.25,12.45 58.5,11.25 57.7,10.75 55.35,9 52.8,7.5 49.7,7.45L49.2,7.45Q46.05,7.45 44,8.45 42.95,8.95 39.15,11.65 36.6,13.45 33.1,13.45 31.3,13.45 29.5,12.95 27.9,12.5 26.95,11.8 25.75,11 23.1,9.05 20.5,7.5 17.7,7.45L17,7.45Q14.25,7.45 12.5,8.25 11.15,8.8 8.15,11.1 4.95,13.45 0.95,13.45L-0.1,13.45Q-1.8,13.4 -3.2,12.75 -3.8,12.45 -5.55,11.25 -6.35,10.75 -8.7,9 -10.65,7.85 -13,7.55L-13,8.3Q-10.85,8.6 -9.05,9.65 -6.85,11.3 -6,11.9 -3.95,13.2 -3.5,13.45 -1.9,14.15 -0.1,14.2L0.95,14.2Q5.25,14.2 8.6,11.7 11.75,9.4 12.8,8.9 14.5,8.2 17,8.2L17.65,8.2Q20.3,8.25 22.7,9.7 25.25,11.6 26.5,12.45 29.1,14.2 33.1,14.2 36.8,14.2 39.6,12.25 43.2,9.7 44.35,9.15 46.3,8.2 49.2,8.2L49.7,8.2Q52.65,8.25 55,9.65 57.2,11.3 58.05,11.9 60.1,13.2 60.55,13.45 62.15,14.15 63.95,14.2L65,14.2Q69.3,14.2 72.65,11.7 75.55,9.5 76.85,8.9 77.8,8.509 79,8.325"/><path fill="#FFF" d="M60.85,17.15Q62.25,16.5 63.95,16.45L65.1,16.45Q69.05,16.45 72.15,18.8 75.1,21.05 76.55,21.7 77.575,22.152 79,22.325L79,21.575Q77.762,21.399 76.85,21 75.4,20.35 72.65,18.2 69.3,15.65 65.1,15.65L63.95,15.7Q62.1,15.75 60.55,16.5 59.95,16.75 58.05,18.05 57.2,18.65 55,20.25 52.65,21.65 49.7,21.7L49.2,21.7Q46.3,21.7 44.35,20.75 43.2,20.2 39.6,17.65 36.8,15.7 33.1,15.7 29.1,15.7 26.5,17.45 25.25,18.35 22.7,20.2 20.3,21.65 17.65,21.7L17,21.7Q14.4,21.7 12.8,21 11.35,20.35 8.6,18.2 5.25,15.65 1.05,15.65L-0.1,15.7Q-1.95,15.75 -3.5,16.5 -4.1,16.75 -6,18.05 -6.85,18.65 -9.05,20.25 -10.85,21.3 -13,21.6L-13,22.35Q-10.65,22.05 -8.7,20.9 -6.35,19.2 -5.55,18.65 -3.65,17.4 -3.2,17.15 -1.8,16.5 -0.1,16.45L1.05,16.45Q5,16.45 8.15,18.8 10.95,21 12.5,21.7 14.2,22.45 17,22.45L17.7,22.45Q20.5,22.4 23.1,20.85 25.75,18.9 26.95,18.1 27.9,17.4 29.5,16.95 31.3,16.45 33.1,16.45 36.6,16.45 39.15,18.25 42.95,20.95 44,21.45 46.2,22.5 49.2,22.45L49.7,22.45Q52.8,22.4 55.35,20.9 57.7,19.2 58.5,18.65 60.25,17.45 60.85,17.15"/><path fill="#FFF" d="M63.75,23.35L64.4,23.35Q67.05,23.4 69.45,24.85 72,26.7 73.25,27.55 75.485,29.159 79,29.325L79,28.55Q77.625,28.482 76.25,28.1 74.65,27.65 73.7,26.95 72.5,26.15 69.85,24.2 67.2,22.65 64.4,22.6L63.75,22.6Q61.2,22.55 59.25,23.35 57.8,24 54.85,26.25 51.7,28.6 47.7,28.6L46.65,28.55Q44.95,28.5 43.55,27.85 43,27.6 41.2,26.4 40.4,25.9 38.05,24.1 35.5,22.6 32.4,22.55L31.85,22.55Q28.85,22.55 26.7,23.6 25.65,24.1 21.85,26.8 19.25,28.65 15.8,28.55 14,28.6 12.2,28.1 10.6,27.65 9.65,26.95 8.45,26.15 5.8,24.2 3.15,22.65 0.35,22.6L-0.3,22.6Q-2.85,22.55 -4.8,23.35 -6.35,24.05 -9.15,26.25 -10.95,27.55 -13,28.15L-13,28.95Q-10.7,28.35 -8.7,26.85 -6.05,24.8 -4.5,24.05 -2.8,23.35 -0.3,23.35L0.35,23.35Q3,23.4 5.4,24.85 7.95,26.7 9.2,27.55 11.7,29.35 15.8,29.35 19.5,29.35 22.3,27.4 25.9,24.85 27.05,24.3 29,23.35 31.85,23.35L32.4,23.35Q35.35,23.4 37.7,24.8 39.9,26.45 40.75,27 42.65,28.3 43.25,28.55 44.8,29.3 46.65,29.35L47.7,29.35Q51.95,29.35 55.35,26.85 58,24.8 59.55,24.05 61.25,23.35 63.75,23.35"/><path fill="#FFF" d="M54.85,33.95Q57.8,36.2 59.25,36.8 60.9,37.6 63.75,37.6L64.4,37.6Q67.2,37.55 69.85,36 72.5,34.05 73.7,33.25 74.65,32.55 76.25,32.1 77.596,31.716 79,31.625L79,30.875Q75.568,31.039 73.25,32.6 72,33.5 69.45,35.35 67.05,36.8 64.4,36.85L63.75,36.85Q61.15,36.85 59.55,36.15 58.1,35.5 55.35,33.35 52,30.8 47.8,30.8L46.65,30.85Q44.8,30.9 43.25,31.6 42.6,31.95 40.75,33.15 39.9,33.75 37.7,35.4 35.35,36.8 32.4,36.85L31.85,36.85Q29,36.85 27.05,35.9 25.75,35.3 22.3,32.75 19.6,30.85 15.8,30.85 11.8,30.85 9.2,32.6 7.95,33.5 5.4,35.35 3,36.8 0.35,36.85L-0.3,36.85Q-2.9,36.85 -4.5,36.15 -5.95,35.5 -8.7,33.35 -10.7,31.85 -13,31.25L-13,32Q-10.95,32.6 -9.15,33.95 -6.3,36.15 -4.8,36.8 -3.05,37.6 -0.3,37.6L0.35,37.6Q3.15,37.55 5.8,36 8.45,34.05 9.65,33.25 10.6,32.55 12.2,32.1 13.95,31.6 15.8,31.6 19.3,31.6 21.85,33.4 25.65,36.1 26.7,36.6 28.75,37.6 31.85,37.6L32.4,37.6Q35.5,37.55 38.05,36.05 40.4,34.35 41.2,33.8 42.95,32.6 43.55,32.3 44.95,31.65 46.65,31.6L47.8,31.55Q51.7,31.55 54.85,33.95"/><path fill="#FFF" d="M49.7,36.85L49.2,36.85Q46.15,36.85 44,37.9 42.95,38.4 39.15,41.1 36.55,42.85 33.1,42.85 31.25,42.85 29.5,42.35 27.9,41.95 26.95,41.25 25.75,40.45 23.1,38.45 20.5,36.9 17.7,36.85L17,36.85Q14.4,36.85 12.5,37.65 11.15,38.25 8.15,40.55 4.95,42.9 0.95,42.9L-0.1,42.85Q-1.8,42.8 -3.2,42.15 -3.75,41.9 -5.55,40.7 -6.35,40.2 -8.7,38.4 -10.7,37.25 -13,36.95L-13,37.75Q-10.85,38.05 -9.05,39.1 -6.85,40.75 -6,41.3 -4.1,42.55 -3.5,42.85 -1.95,43.6 -0.1,43.6L0.95,43.65Q5.25,43.65 8.6,41.15 11.45,39 12.8,38.35 14.45,37.6 17,37.6L17.65,37.65Q20.3,37.7 22.7,39.15 25.25,41 26.5,41.85 28.95,43.6 33.1,43.6 36.9,43.6 39.6,41.7 43.4,39 44.35,38.55 46.3,37.6 49.2,37.6L49.7,37.6Q52.65,37.7 55,39.1 57.2,40.75 58.05,41.3 59.95,42.55 60.55,42.85 62.1,43.6 63.95,43.6L65,43.65Q69.3,43.65 72.65,41.15 75.3,39.1 76.85,38.35 77.782,37.927 79,37.75L79,37Q77.656,37.184 76.55,37.65 75,38.35 72.2,40.55 69,42.9 65,42.9L63.95,42.85Q62.25,42.8 60.85,42.15 60.3,41.9 58.5,40.7 57.7,40.2 55.35,38.4 52.8,36.9 49.7,36.85"/><path fill="#FFF" d="M60.55,45.9Q59.9,46.25 58.05,47.45 57.2,48.05 55,49.7 52.65,51.1 49.7,51.15L49.2,51.15Q46.3,51.15 44.35,50.2 43.4,49.75 39.6,47.05 36.9,45.15 33.1,45.15 28.95,45.15 26.5,46.9 25.25,47.75 22.7,49.65 20.3,51.1 17.65,51.15L17,51.15Q14.35,51.15 12.8,50.4 11.6,49.9 8.6,47.65 5.25,45.1 1.05,45.1L-0.1,45.15Q-1.95,45.2 -3.5,45.9 -4.15,46.25 -6,47.45 -6.85,48.05 -9.05,49.7 -10.85,50.75 -13,51.05L-13,51.8Q-10.65,51.5 -8.7,50.35 -6.35,48.65 -5.55,48.1 -3.8,46.9 -3.2,46.6 -1.8,45.95 -0.1,45.9L1.05,45.85Q4.95,45.85 8.15,48.25 11.25,50.55 12.5,51.1 14.15,51.9 17,51.9L17.7,51.9Q20.5,51.85 23.1,50.3 25.75,48.35 26.95,47.5 27.9,46.85 29.5,46.4 31.25,45.9 33.1,45.9 36.6,45.9 39.15,47.7 41,49 41.8,49.55 43.1,50.4 44,50.85 46.05,51.9 49.2,51.9L49.7,51.9Q52.8,51.85 55.35,50.35 57.7,48.65 58.5,48.1 60.25,46.9 60.85,46.6 62.25,45.95 63.95,45.9L65.1,45.85Q69,45.85 72.15,48.25 75.35,50.6 76.55,51.1 77.553,51.586 79,51.775L79,51.025Q77.743,50.832 76.85,50.4 75.65,49.9 72.65,47.65 69.3,45.1 65.1,45.1L63.95,45.15Q62.1,45.2 60.55,45.9"/><path fill="#FFF" d="M38.05,53.55Q35.5,52.05 32.4,52L31.85,52Q28.75,52 26.7,53.05 25.9,53.45 21.85,56.2 19.3,58 15.8,58 13.95,58 12.2,57.5 10.6,57.1 9.65,56.4 8.45,55.6 5.8,53.6 3.2,52.05 0.35,52L-0.3,52Q-3.05,52 -4.8,52.8 -6.25,53.45 -9.15,55.65 -10.95,57 -13,57.6L-13,58.4Q-10.7,57.8 -8.7,56.3 -5.85,54.1 -4.5,53.5 -2.85,52.75 -0.3,52.75L0.35,52.75Q3,52.8 5.4,54.3 7.95,56.15 9.2,57 11.65,58.75 15.8,58.75 19.6,58.75 22.3,56.85 26.1,54.15 27.05,53.7 29,52.75 31.85,52.75L32.4,52.75Q35.35,52.8 37.7,54.2 39.9,55.85 40.75,56.45 42.6,57.65 43.25,58 44.8,58.7 46.65,58.75L47.7,58.8Q51.95,58.8 55.35,56.3 58.2,54.1 59.55,53.5 61.2,52.75 63.75,52.75L64.4,52.75Q67.05,52.8 69.45,54.3 72,56.15 73.25,57 75.444,58.567 79,58.725L79,57.975Q77.596,57.884 76.25,57.5 74.65,57.1 73.7,56.4 72.5,55.6 69.85,53.6 67.25,52.05 64.4,52L63.75,52Q61,52 59.25,52.8 57.9,53.4 54.85,55.65 51.7,58.05 47.7,58.05L46.65,58Q44.95,57.95 43.55,57.3 42.95,57 41.2,55.8 40.4,55.3 38.05,53.55"/><path fill="#FFF" d="M29.5,71.8Q27.9,71.35 26.95,70.65 25.75,69.85 23.1,67.9 20.5,66.35 17.7,66.3L17,66.3Q14.25,66.3 12.5,67.1 11.45,67.55 8.15,69.95 5.05,72.3 0.95,72.3L-0.1,72.3Q-1.8,72.25 -3.2,71.6 -3.8,71.3 -5.55,70.1 -6.35,69.6 -8.7,67.85 -10.65,66.7 -13,66.4L-13,67.15Q-10.85,67.45 -9.05,68.5 -6.85,70.15 -6,70.75 -4.15,71.95 -3.5,72.3 -1.95,73 -0.1,73.05L0.95,73.05Q5.25,73.05 8.6,70.55 11.75,68.25 12.8,67.8 14.45,67.05 17,67.05L17.65,67.05Q20.3,67.1 22.7,68.6 25.25,70.45 26.5,71.3 29.1,73.05 33.1,73.05 36.9,73.05 39.6,71.15 43.05,68.65 44.35,68 46.3,67.05 49.2,67.05L49.7,67.05Q52.65,67.1 55,68.5 57.2,70.15 58.05,70.75 59.9,71.95 60.55,72.3 62.1,73 63.95,73.05L65,73.05Q69.3,73.05 72.65,70.55 75.6,68.35 76.85,67.8 77.782,67.377 79,67.2L79,66.425Q77.596,66.622 76.55,67.1 75.3,67.65 72.2,69.95 69.1,72.3 65,72.3L63.95,72.3Q62.25,72.25 60.85,71.6 60.25,71.3 58.5,70.1 57.7,69.6 55.35,67.85 52.8,66.35 49.7,66.3L49.2,66.3Q46.05,66.3 44,67.3 42.95,67.8 39.15,70.5 36.6,72.3 33.1,72.3 31.25,72.3 29.5,71.8"/><path fill="#FFF" d="M21.85,62.8Q25.65,65.5 26.7,66 28.85,67.05 31.85,67.05L32.4,67.05Q35.5,67 38.05,65.5 40.4,63.75 41.2,63.2 43,62 43.55,61.75 44.95,61.1 46.65,61.05L47.8,61Q51.75,61 54.85,63.35 57.8,65.6 59.25,66.25 60.9,67.05 63.75,67.05L64.4,67.05Q67.25,67 69.85,65.45 72.5,63.5 73.7,62.65 74.65,62 76.25,61.55 77.596,61.166 79,61.075L79,60.325Q75.444,60.483 73.25,62.05 72,62.9 69.45,64.75 67.05,66.2 64.4,66.25L63.75,66.3Q61.1,66.3 59.55,65.55 58.25,65 55.35,62.75 52,60.25 47.8,60.25L46.65,60.3Q44.8,60.3 43.25,61.05 42.65,61.35 40.75,62.6 39.9,63.2 37.7,64.85 35.35,66.2 32.4,66.3L31.85,66.3Q29,66.3 27.05,65.35 26.1,64.9 22.3,62.2 19.6,60.3 15.8,60.3 11.65,60.3 9.2,62.05 7.95,62.9 5.4,64.75 3,66.2 0.35,66.25L-0.3,66.3Q-2.95,66.3 -4.5,65.55 -5.8,65 -8.7,62.75 -10.7,61.25 -13,60.65L-13,61.45Q-10.95,62 -9.15,63.35 -6.35,65.55 -4.8,66.25 -3.05,67.05 -0.3,67.05L0.35,67.05Q3.2,67 5.8,65.45 8.45,63.5 9.65,62.65 10.6,62 12.2,61.55 13.95,61.05 15.8,61.05 19.25,61.05 21.85,62.8"/><path fill="#FFF" d="M17,81.35L17.7,81.3Q20.5,81.25 23.1,79.7 25.75,77.75 26.95,76.95 27.9,76.25 29.5,75.8 31.3,75.3 33.1,75.3 36.6,75.3 39.15,77.1 42.95,79.8 44,80.3 46.15,81.35 49.2,81.35L49.7,81.35Q52.8,81.3 55.35,79.8 57.7,78.05 58.5,77.5 60.3,76.3 60.85,76.05 62.25,75.35 63.95,75.3L65.1,75.3Q69.05,75.3 72.15,77.65 75.1,79.9 76.55,80.55 77.617,81.024 79,81.225L79,80.425Q77.762,80.249 76.85,79.85 75.4,79.2 72.65,77.05 69.35,74.55 65.1,74.55L63.95,74.55Q62.1,74.6 60.55,75.35 59.95,75.6 58.05,76.9 57.2,77.5 55,79.1 52.65,80.5 49.7,80.55L49.2,80.6Q46.3,80.55 44.35,79.6 43.35,79.15 39.6,76.5 36.8,74.55 33.1,74.55 29,74.55 26.5,76.35 25.25,77.2 22.7,79.05 20.3,80.5 17.65,80.55L17,80.55Q14.4,80.55 12.8,79.85 11.35,79.2 8.6,77.05 5.3,74.55 1.05,74.55L-0.1,74.55Q-1.95,74.6 -3.5,75.35 -4.1,75.6 -6,76.9 -6.85,77.5 -9.05,79.1 -10.85,80.15 -13,80.45L-13,81.25Q-10.7,80.95 -8.7,79.8 -6.35,78.05 -5.55,77.5 -3.75,76.3 -3.2,76.05 -1.8,75.35 -0.1,75.3L1.05,75.3Q5,75.3 8.15,77.65 10.95,79.85 12.5,80.55 14.3,81.35 17,81.35"/><path fill="#FFF" d="M0.35,82.2Q3,82.25 5.4,83.7 7.95,85.6 9.2,86.45 11.8,88.2 15.8,88.2 19.5,88.2 22.3,86.25 25.9,83.7 27.05,83.15 29,82.2 31.85,82.2L32.4,82.2Q35.35,82.25 37.7,83.65 39.9,85.3 40.75,85.9 42.8,87.2 43.25,87.45 44.85,88.15 46.65,88.2L47.7,88.2Q51.95,88.2 55.35,85.7 58.25,83.5 59.55,82.9 61.25,82.2 63.75,82.2L64.4,82.2Q67.05,82.25 69.45,83.7 72,85.6 73.25,86.45 75.568,88.011 79,88.175L79,87.425Q77.625,87.332 76.25,86.95 74.65,86.5 73.7,85.8 72.5,85 69.85,83.05 67.2,81.5 64.4,81.45L63.75,81.45Q61,81.45 59.25,82.25 57.8,82.85 54.85,85.1 51.7,87.45 47.7,87.45L46.65,87.45Q44.95,87.4 43.55,86.75 42.95,86.45 41.2,85.25 40.4,84.75 38.05,83 35.5,81.5 32.4,81.45L31.85,81.45Q28.75,81.45 26.7,82.45 25.65,82.95 21.85,85.65 19.3,87.45 15.8,87.45 14,87.45 12.2,86.95 10.6,86.5 9.65,85.8 8.45,85 5.8,83.05 3.15,81.5 0.35,81.45L-0.3,81.45Q-3.05,81.45 -4.8,82.25 -6.3,82.9 -9.15,85.1 -10.95,86.4 -13,87L-13,87.8Q-10.7,87.2 -8.7,85.7 -5.8,83.5 -4.5,82.9 -2.8,82.2 -0.3,82.2L0.35,82.2"/><path fill="#FFF" d="M9.2,91.45Q7.95,92.35 5.4,94.2 3,95.65 0.35,95.7L-0.3,95.7Q-2.9,95.7 -4.5,95 -5.95,94.35 -8.7,92.2 -10.7,90.7 -13,90.1L-13,90.9Q-10.95,91.45 -9.15,92.8 -6.35,95 -4.8,95.7 -3.05,96.45 -0.3,96.45L0.35,96.45Q3.15,96.4 5.8,94.85 8.45,92.9 9.65,92.1 10.6,91.4 12.2,90.95 14,90.45 15.8,90.45 19.3,90.45 21.85,92.25 25.65,94.95 26.7,95.45 28.75,96.45 31.85,96.45L32.4,96.45Q35.5,96.4 38.05,94.9 40.4,93.2 41.2,92.65 42.95,91.45 43.55,91.15 44.95,90.5 46.65,90.45L47.8,90.45Q51.75,90.45 54.85,92.8 57.8,95.05 59.25,95.7 60.95,96.45 63.75,96.45L64.4,96.45Q67.2,96.4 69.85,94.85 72.5,92.9 73.7,92.1 74.65,91.4 76.25,90.95 77.625,90.568 79,90.475L79,89.725Q75.568,89.889 73.25,91.45 72,92.35 69.45,94.2 67.05,95.65 64.4,95.7L63.75,95.7Q61.15,95.7 59.55,95 58.1,94.35 55.35,92.2 52,89.65 47.8,89.65L46.65,89.7Q44.8,89.75 43.25,90.5 42.65,90.75 40.75,92.05 39.9,92.65 37.7,94.25 35.35,95.65 32.4,95.7L31.85,95.7Q29,95.7 27.05,94.75 25.9,94.2 22.3,91.65 19.5,89.7 15.8,89.7 11.8,89.7 9.2,91.45"/><path fill="#FFF" d="M17,95.7Q14.4,95.7 12.5,96.5 11.15,97.1 8.15,99.4 4.95,101.75 0.95,101.75L-0.1,101.7Q-1.8,101.65 -3.2,101 -3.75,100.75 -5.55,99.55 -6.35,99.05 -8.7,97.25 -10.7,96.1 -13,95.8L-13,96.6Q-10.85,96.9 -9.05,97.95 -6.85,99.6 -6,100.15 -4.1,101.45 -3.5,101.7 -1.95,102.45 -0.1,102.5L0.95,102.5Q5.25,102.5 8.6,100 11.45,97.85 12.8,97.2 14.5,96.5 17,96.5L17.65,96.5Q20.3,96.55 22.7,98 25.25,99.85 26.5,100.7 28.9,102.4 33.1,102.5 36.8,102.5 39.6,100.55 43.25,98 44.35,97.4 46.5,96.45 49.2,96.45L49.7,96.5Q52.65,96.55 55,97.95 57.2,99.6 58.05,100.15 59.95,101.45 60.55,101.7 62.1,102.45 63.95,102.5L65,102.5Q69.3,102.5 72.65,100 75.3,97.95 76.85,97.2 77.8,96.809 79,96.625L79,95.85Q77.656,96.034 76.55,96.5 75,97.2 72.2,99.4 69,101.75 65,101.75L63.95,101.7Q62.25,101.65 60.85,101 60.3,100.75 58.5,99.55 57.7,99.05 55.35,97.25 52.8,95.75 49.7,95.7L49.2,95.7Q46.15,95.7 44,96.75 42.95,97.25 39.15,99.95 36.65,101.7 33.1,101.7 31.3,101.75 29.5,101.25 27.9,100.8 26.95,100.1 25.75,99.3 23.1,97.35 20.5,95.8 17.7,95.75L17,95.7"/><path fill="#FFF" d="M79,110.625L79,109.875Q77.743,109.682 76.85,109.25 75.65,108.75 72.65,106.5 69.3,103.95 65.1,103.95L63.95,104Q62.1,104.05 60.55,104.75 59.9,105.1 58.05,106.3 57.2,106.9 55,108.55 52.65,109.95 49.7,110L49.2,110Q46.3,110 44.35,109.05 43.4,108.6 39.6,105.9 36.9,104 33.1,104 29.1,104 26.5,105.75 25.25,106.6 22.7,108.5 20.3,109.95 17.65,110L17,110Q14.35,110 12.8,109.25 11.6,108.75 8.6,106.5 5.25,103.95 1.05,103.95L-0.1,104Q-1.95,104.05 -3.5,104.75 -4.15,105.1 -6,106.3 -6.85,106.9 -9.05,108.55 -10.85,109.6 -13,109.9L-13,110.65Q-10.65,110.35 -8.7,109.2 -6.35,107.5 -5.55,106.95 -3.8,105.75 -3.2,105.45 -1.8,104.8 -0.1,104.75L1.05,104.7Q4.95,104.7 8.15,107.1 11.25,109.4 12.5,109.95 14.15,110.75 17,110.75L17.7,110.75Q20.5,110.7 23.1,109.15 25.75,107.2 26.95,106.4 27.9,105.7 29.5,105.25 31.25,104.75 33.1,104.75 36.6,104.75 39.15,106.55 42.95,109.25 44,109.75 46.05,110.75 49.2,110.75L49.7,110.75Q52.8,110.7 55.35,109.2 57.7,107.5 58.5,106.95 60.25,105.75 60.85,105.45 62.25,104.8 63.95,104.75L65.1,104.7Q69,104.7 72.15,107.1 75.35,109.45 76.55,109.95 77.553,110.436 79,110.625"/><path fill="#FFF" d="M64.4,110.85L63.75,110.85Q61.15,110.85 59.25,111.65 57.8,112.3 54.85,114.55 51.7,116.9 47.7,116.9L46.65,116.85Q44.95,116.8 43.55,116.15 43,115.9 41.2,114.7 40.4,114.2 38.05,112.4 35.5,110.9 32.4,110.85L31.85,110.85Q28.85,110.85 26.7,111.9 25.65,112.4 21.85,115.1 19.25,116.85 15.8,116.85 13.95,116.85 12.2,116.35 10.6,115.95 9.65,115.25 8.45,114.45 5.8,112.45 3.2,110.9 0.35,110.85L-0.3,110.85Q-2.9,110.85 -4.8,111.65 -6.35,112.35 -9.15,114.55 -10.95,115.85 -13,116.45L-13,117.25Q-10.7,116.65 -8.7,115.15 -6.05,113.1 -4.5,112.35 -2.7,111.6 -0.3,111.6L0.35,111.65Q3,111.7 5.4,113.15 7.95,115 9.2,115.85 11.65,117.6 15.8,117.6 19.6,117.6 22.3,115.7 26.1,113 27.05,112.55 29,111.6 31.85,111.6L32.4,111.6Q35.35,111.7 37.7,113.1 39.9,114.75 40.75,115.3 42.65,116.55 43.25,116.85 44.8,117.6 46.65,117.6L47.7,117.65Q51.95,117.65 55.35,115.15 58,113.1 59.55,112.35 61.35,111.6 63.75,111.6L64.4,111.65Q67.05,111.7 69.45,113.15 72,115 73.25,115.85 75.444,117.417 79,117.575L79,116.825Q77.596,116.734 76.25,116.35 74.65,115.95 73.7,115.25 72.5,114.45 69.85,112.45 67.25,110.9 64.4,110.85"/></g><defs/></svg>