<?xml version="1.0" encoding="utf-8"?><svg xmlns:xlink="http://www.w3.org/1999/xlink" id="Scene_1" image-rendering="auto" baseProfile="basic" version="1.1" x="0px" y="0px" width="200" height="200" viewBox="0 0 200 200" xmlns="http://www.w3.org/2000/svg"><g style="display:none;"><g id="purple-box" transform="matrix(0.191 0 0 0.191 100 63.5)"><animateTransform attributeName="transform" additive="replace" type="translate" repeatCount="indefinite" dur="5.6s" keyTimes="0;0.05;0.057;0.064;0.071;0.079;0.086;0.093;0.1;0.107;0.114;0.121;0.129;0.136;0.914;0.921;0.929;0.936;0.943;0.95;0.957;0.964;0.9714285714285715;1" values="100,63.5;100,63.5;100,68.2;100,72.65;100,76.75;100,80.55;99.95,84.05;100,87.25;100,90.1;99.95,92.7;100,95;99.95,96.95;100,98.65;100,100;100,100;100,94.8;100,89.55;100,84.35;100,79.15;100,73.95;100,68.7;100,63.5;100,63.5;100,63.5" calcMode="discrete"/><animateTransform attributeName="transform" additive="sum" type="scale" repeatCount="indefinite" dur="5.6s" keyTimes="0;0.05;0.057;0.064;0.071;0.079;0.086;0.093;0.1;0.107;0.114;0.121;0.129;0.136;0.914;0.921;0.929;0.936;0.943;0.95;0.957;0.964;0.9714285714285715;1" values="0.191,0.191;0.191,0.191;0.296,0.296;0.394,0.394;0.484,0.484;0.569,0.569;0.646,0.646;0.717,0.717;0.781,0.781;0.838,0.838;0.889,0.889;0.933,0.933;0.97,0.97;1,1;1,1;0.884,0.884;0.769,0.769;0.653,0.653;0.538,0.538;0.422,0.422;0.307,0.307;0.191,0.191;0.191,0.191;0.191,0.191" calcMode="discrete"/><g transform="matrix(1 0 0 1 -99.949 -99.949)"><path fill="#820053" d="M192.75,192.75L192.75,7.25 7.25,7.25 7.25,192.75 192.75,192.75"/></g></g><animate attributeName="display" repeatCount="indefinite" dur="5.6s" keyTimes="0;0.05;0.971;1" values="none;inline;none;none"/></g><g mask="url(#Scene_1_30_37)" style="display:none;" id="Scene 1_31.37.0"><g transform="matrix(1.526 0 0 1.526 141.95 153.55)"><path fill="#E3D3C5" d="M5.25,2.45L5.25,0 4.55,0 3.9,1.75 3.25,0 2.55,0 2.55,2.45 3,2.45 3,0.45 3.7,2.45 4.1,2.45 4.8,0.45 4.8,2.45 5.25,2.45"/><path fill="#E3D3C5" d="M0,0.4L0.85,0.4 0.85,2.45 1.3,2.45 1.3,0.4 2.15,0.4 2.15,0 0,0 0,0.4"/></g><g transform="matrix(1.526 0 0 1.526 130.5 153.85)"><path fill="#E3D3C5" d="M5.5,1.55L5.9,0.75Q4.55,-0.2 2.5,0.05 1.4,0.15 0.8,0.75 0.1,1.35 0.1,2.3 0.05,4.05 2.4,4.75 4.35,5.35 4.7,5.65 5.35,6.3 5.05,7.2 4.8,8.1 3.6,8.25 2.2,8.5 0.45,7.45 0.2,7.75 0,8.25 1.35,9.2 3.15,9.2 4.5,9.2 5.4,8.45 6.4,7.65 6.25,6.35 6.15,5.3 5.3,4.75 4.8,4.4 3.45,4 2.2,3.65 1.8,3.4 1,2.85 1.25,1.85 1.4,1.35 2.1,1.1 2.8,0.85 3.55,0.95 4.05,1 5.5,1.55"/></g><g transform="matrix(1.526 0 0 1.526 71.05 153.85)"><path fill="#E3D3C5" d="M9.3,5.3Q9.6,2.95 7.9,1.25 6.25,-0.3 4.05,0.05 2.15,0.25 1.1,1.6 0.25,2.55 0.05,3.9 -0.1,5.45 0.5,6.7 1.85,9.15 4.75,9.15 6.4,9.15 7.7,8.05 9.05,6.95 9.3,5.3 M7.85,2.9Q8.7,4.6 7.8,6.25 6.95,7.85 5.35,8.1 3.95,8.35 2.8,7.6 1.7,6.95 1.3,5.75 0.9,4.4 1.3,3.3 1.7,2.35 2.5,1.7 3.4,1 4.65,0.95 5.75,0.95 6.65,1.55 7.45,2.05 7.85,2.9"/></g><g transform="matrix(1.526 0 0 1.526 103.65 153.85)"><path fill="#E3D3C5" d="M5.65,4.9L5.7,4.5 5.65,3.95 1.05,3.95 1.05,0.95 6.3,0.95 6.35,0.5 6.3,0 0,0 0,8.9 6.3,8.9 6.35,8.45 6.3,7.95 1.05,7.95 1.05,4.9 5.65,4.9"/></g><g transform="matrix(1.526 0 0 1.526 87.55 153.85)"><path fill="#E3D3C5" d="M7.3,0.5L7.25,0 0.05,0 0,0.4 0.05,0.95 3.15,0.95 3.15,8.85 3.6,8.9 4.15,8.85 4.15,0.95 7.25,0.95 7.3,0.5"/></g><g transform="matrix(1.526 0 0 1.526 118.45 153.85)"><path fill="#E3D3C5" d="M6.35,8.55L6.3,8 1.05,8 1.05,0.05 0.6,0 0,0.05 0.05,8.95 6.3,8.95 6.35,8.55"/></g><g transform="matrix(1.526 0 0 1.526 55.25 153.85)"><path fill="#E3D3C5" d="M6.4,0.05L6.4,3.95 1.1,3.95 1.1,0 0,0.05 0,8.85 0.5,8.9 1.05,8.85 1.05,6.3 1.1,6.3 1.1,4.95 6.4,4.95 6.4,8.85 6.85,8.9 7.45,8.85 7.45,0 6.4,0.05"/></g><animate attributeName="display" repeatCount="indefinite" dur="5.6s" keyTimes="0;0.264;0.879;1" values="none;inline;none;none"/></g><mask id="Scene_1_30_37" style="display:none;"><g id="circle-mask-01" transform="matrix(0.06 0 0 0.06 100 160.5)"><animateTransform attributeName="transform" additive="replace" type="translate" repeatCount="indefinite" dur="5.6s" keyTimes="0;0.264;0.293;0.3;0.307;0.314;0.321;0.329;0.85;0.857;0.864;0.8785714285714287;1" values="100,160.5;100,160.5;100,160.5;99.95,160.5;100,160.5;100,160.5;99.95,160.5;100,160.5;100,160.5;100,160.55;100,160.5;100,160.5;100,160.5" calcMode="discrete"/><animateTransform attributeName="transform" additive="sum" type="scale" repeatCount="indefinite" dur="5.6s" keyTimes="0;0.264;0.271;0.279;0.286;0.293;0.3;0.307;0.314;0.321;0.329;0.336;0.829;0.836;0.843;0.85;0.857;0.864;0.871;0.8785714285714287;1" values="0.06,0.06;0.06,0.06;0.282,0.282;0.486,0.486;0.673,0.673;0.843,0.843;0.996,0.996;1.131,1.131;1.249,1.249;1.35,1.35;1.434,1.434;1.5,1.5;1.5,1.5;1.38,1.38;1.212,1.212;0.996,0.996;0.732,0.732;0.42,0.42;0.06,0.06;0.06,0.06;0.06,0.06" calcMode="discrete"/><path fill="#FFF" d="M30.4,-30.4Q17.8,-43 0,-43 -17.8,-43 -30.4,-30.4 -43,-17.8 -43,0 -43,17.8 -30.4,30.4 -17.8,43 0,43 17.8,43 30.4,30.4 43,17.8 43,0 43,-17.8 30.4,-30.4" fill-opacity="1"/></g><animate attributeName="display" repeatCount="indefinite" dur="5.6s" keyTimes="0;0.264;0.879;1" values="none;inline;none;none"/></mask><g mask="url(#Scene_1_28_34)" style="display:none;" id="Scene 1_29.34"><path fill="#E3D3C5" d="M174.6,134Q174.15,133.55 173.55,133.55 172.85,133.55 172.5,134 169.65,137 166.35,138.2 163.1,139.4 158.65,139.2 152.8,138.95 148.8,135.6 144.85,132.3 143.8,126.75 143.343,125.15 143.4,123.55L143.4,122.85Q143.4,117.538 145.7,113.55 145.261,111.613 142.975,112.075 140.35,116.642 140.35,122.85 140.35,131.2 145.4,136.6 150.35,141.95 158.5,142.3L159.95,142.3Q168.75,142.3 174.7,136.15 175.7,135.05 174.6,134"/><animate attributeName="display" repeatCount="indefinite" dur="5.6s" keyTimes="0;0.243;0.871;1" values="none;inline;none;none"/></g><mask id="Scene_1_28_34" style="display:none;"><g id="circle-mask-01" transform="matrix(1 0 0 1 120.4 73.75)"><animateTransform attributeName="transform" additive="replace" type="translate" repeatCount="indefinite" dur="5.6s" keyTimes="0;0.243;0.25;0.257;0.264;0.271;0.279;0.286;0.293;0.3;0.829;0.836;0.843;0.85;0.857;0.864;0.8714285714285714;1" values="120.4,73.75;120.4,73.75;122.05,80.85;123.7,87.95;125.3,95.05;126.95,102.15;128.6,109.2;130.25,116.3;131.85,123.4;133.5,130.5;133.5,130.5;130.9,119.15;128.25,107.8;125.65,96.45;123,85.1;120.4,73.75;120.4,73.75;120.4,73.75" calcMode="discrete"/><path fill="#FFF" d="M30.4,-30.4Q17.8,-43 0,-43 -17.8,-43 -30.4,-30.4 -43,-17.8 -43,0 -43,17.8 -30.4,30.4 -17.8,43 0,43 17.8,43 30.4,30.4 43,17.8 43,0 43,-17.8 30.4,-30.4" fill-opacity="1"/></g><animate attributeName="display" repeatCount="indefinite" dur="5.6s" keyTimes="0;0.243;0.871;1" values="none;inline;none;none"/></mask><g mask="url(#Scene_1_26_27)" style="display:none;" id="Scene 1_27.27"><path fill="#E3D3C5" d="M168.975,109Q171.393,108.579 171.125,106.725 166.74,103.4 158.45,103.4 150.4,103.4 145.4,108.8 143.995,110.316 142.975,112.075 143.395,114.509 145.7,113.55 146.294,112.503 147.05,111.55 151.1,106.45 158.45,106.45 165.278,106.45 168.975,109"/><animate attributeName="display" repeatCount="indefinite" dur="5.6s" keyTimes="0;0.193;0.9;1" values="none;inline;none;none"/></g><mask id="Scene_1_26_27" style="display:none;"><g id="circle-mask-01" transform="matrix(1 0 0 1 214.5 116)"><animateTransform attributeName="transform" additive="replace" type="translate" repeatCount="indefinite" dur="5.6s" keyTimes="0;0.193;0.2;0.207;0.214;0.221;0.229;0.236;0.243;0.25;0.857;0.864;0.871;0.879;0.886;0.893;0.9;1" values="214.5,116;214.5,116;210.65,114.6;206.75,113.2;202.9,111.8;199,110.4;195.15,108.95;191.25,107.55;187.4,106.15;183.5,104.75;183.5,104.75;189.7,107;195.9,109.25;202.1,111.5;208.3,113.75;214.5,116;214.5,116;214.5,116" calcMode="discrete"/><path fill="#FFF" d="M30.4,-30.4Q17.8,-43 0,-43 -17.8,-43 -30.4,-30.4 -43,-17.8 -43,0 -43,17.8 -30.4,30.4 -17.8,43 0,43 17.8,43 30.4,30.4 43,17.8 43,0 43,-17.8 30.4,-30.4" fill-opacity="1"/></g><animate attributeName="display" repeatCount="indefinite" dur="5.6s" keyTimes="0;0.193;0.9;1" values="none;inline;none;none"/></mask><g mask="url(#Scene_1_24_20)" style="display:none;" id="Scene 1_25.20"><path fill="#E3D3C5" d="M171.125,106.725Q169.122,106.934 168.975,109 169.85,109.602 170.55,110.35 172.95,112.95 172.5,116.9 172.4,119.2 170.05,121.2 166.7,123.8 159.75,124.4 152.7,125 143.4,123.55 141.806,125.15 143.8,126.75 153.55,128.2 160.8,127.35 168.05,126.5 171.85,123.6 175.3,120.95 175.6,117.2 176.05,111.8 172.8,108.3 172.047,107.442 171.125,106.725"/><animate attributeName="display" repeatCount="indefinite" dur="5.6s" keyTimes="0;0.143;0.929;1" values="none;inline;none;none"/></g><mask id="Scene_1_24_20" style="display:none;"><g id="circle-mask-01" transform="matrix(1 0 0 1 119.25 164.25)"><animateTransform attributeName="transform" additive="replace" type="translate" repeatCount="indefinite" dur="5.6s" keyTimes="0;0.143;0.15;0.157;0.164;0.171;0.179;0.186;0.193;0.2;0.886;0.893;0.9;0.907;0.914;0.921;0.9285714285714287;1" values="119.25,164.25;119.25,164.25;124.05,162.1;128.9,159.95;133.7,157.8;138.5,155.65;143.3,153.45;148.15,151.3;152.95,149.15;157.75,147;157.75,147;150.05,150.45;142.35,153.9;134.65,157.35;126.95,160.8;119.25,164.25;119.25,164.25;119.25,164.25" calcMode="discrete"/><path fill="#FFF" d="M30.4,-30.4Q17.8,-43 0,-43 -17.8,-43 -30.4,-30.4 -43,-17.8 -43,0 -43,17.8 -30.4,30.4 -17.8,43 0,43 17.8,43 30.4,30.4 43,17.8 43,0 43,-17.8 30.4,-30.4" fill-opacity="1"/></g><animate attributeName="display" repeatCount="indefinite" dur="5.6s" keyTimes="0;0.143;0.929;1" values="none;inline;none;none"/></mask><g mask="url(#Scene_1_22_34)" style="display:none;" id="Scene 1_23.34"><path fill="#E3D3C5" d="M131.725,133.9Q131.631,136.119 134.275,135.6 136.334,131.769 135.95,125.55 135.55,120.6 131.75,119.3 129.2,118.45 120.45,118.5L114.95,118.6Q114.35,118.6 113.9,119.05 113.4,119.5 113.4,120.1 113.4,120.75 113.9,121.2 114.35,121.65 114.95,121.65L120.45,121.65Q128.6,121.5 130.5,122.1 132.65,122.8 132.8,125.75 133.219,130.935 131.725,133.9"/><animate attributeName="display" repeatCount="indefinite" dur="5.6s" keyTimes="0;0.243;0.871;1" values="none;inline;none;none"/></g><mask id="Scene_1_22_34" style="display:none;"><g id="circle-mask-01" transform="matrix(1 0 0 1 158.25 174.5)"><animateTransform attributeName="transform" additive="replace" type="translate" repeatCount="indefinite" dur="5.6s" keyTimes="0;0.243;0.25;0.257;0.264;0.271;0.279;0.286;0.293;0.3;0.829;0.836;0.843;0.85;0.857;0.864;0.8714285714285714;1" values="158.25,174.5;158.25,174.5;157.55,166.35;156.9,158.2;156.2,150.05;155.5,141.9;154.8,133.7;154.15,125.55;153.45,117.4;152.75,109.25;152.75,109.25;153.85,122.3;154.95,135.35;156.05,148.4;157.15,161.45;158.25,174.5;158.25,174.5;158.25,174.5" calcMode="discrete"/><path fill="#FFF" d="M30.4,-30.4Q17.8,-43 0,-43 -17.8,-43 -30.4,-30.4 -43,-17.8 -43,0 -43,17.8 -30.4,30.4 -17.8,43 0,43 17.8,43 30.4,30.4 43,17.8 43,0 43,-17.8 30.4,-30.4" fill-opacity="1"/></g><animate attributeName="display" repeatCount="indefinite" dur="5.6s" keyTimes="0;0.243;0.871;1" values="none;inline;none;none"/></mask><g mask="url(#Scene_1_20_27)" style="display:none;" id="Scene 1_21.27"><path fill="#E3D3C5" d="M134.275,135.6Q133.479,133.311 131.725,133.9 131.253,134.837 130.6,135.55 127.7,138.6 120.5,138.6 113.35,138.6 108.6,133.95 106.439,131.856 105.25,129.275 103.246,128.544 102.8,131.125 104.16,133.8 106.45,136.05 112.2,141.7 120.5,141.7 129.05,141.7 132.8,137.7 133.648,136.759 134.275,135.6"/><animate attributeName="display" repeatCount="indefinite" dur="5.6s" keyTimes="0;0.193;0.9;1" values="none;inline;none;none"/></g><mask id="Scene_1_20_27" style="display:none;"><g id="circle-mask-01" transform="matrix(1 0 0 1 69.5 100)"><animateTransform attributeName="transform" additive="replace" type="translate" repeatCount="indefinite" dur="5.6s" keyTimes="0;0.193;0.2;0.207;0.214;0.221;0.229;0.236;0.243;0.25;0.857;0.864;0.871;0.879;0.886;0.893;0.9;1" values="69.5,100;69.5,100;73.15,101.8;76.75,103.55;80.4,105.35;84,107.15;87.65,108.9;91.25,110.7;94.9,112.45;98.5,114.25;98.5,114.25;92.7,111.4;86.9,108.55;81.1,105.7;75.3,102.85;69.5,100;69.5,100;69.5,100" calcMode="discrete"/><path fill="#FFF" d="M30.4,-30.4Q17.8,-43 0,-43 -17.8,-43 -30.4,-30.4 -43,-17.8 -43,0 -43,17.8 -30.4,30.4 -17.8,43 0,43 17.8,43 30.4,30.4 43,17.8 43,0 43,-17.8 30.4,-30.4" fill-opacity="1"/></g><animate attributeName="display" repeatCount="indefinite" dur="5.6s" keyTimes="0;0.193;0.9;1" values="none;inline;none;none"/></mask><g mask="url(#Scene_1_18_20)" style="display:none;" id="Scene 1_19.20"><path fill="#E3D3C5" d="M134.5,112.8Q134.65,112.2 134.35,111.65 131.75,107.45 127.7,105.15 123.65,102.8 119,102.8 111.45,102.8 106.1,108.5 101.946,112.887 101.025,118.75 100.75,120.439 100.75,122.25 100.75,127.155 102.8,131.125 104.698,131.641 105.25,129.275 103.8,126.126 103.8,122.25 103.8,120.424 104.125,118.75 104.995,114.188 108.25,110.75 112.75,105.95 119,105.95 122.8,105.95 126.15,107.9 129.5,109.8 131.65,113.25 132.05,113.85 132.65,114 133.25,114.15 133.8,113.8 134.35,113.5 134.5,112.8"/><animate attributeName="display" repeatCount="indefinite" dur="5.6s" keyTimes="0;0.143;0.929;1" values="none;inline;none;none"/></g><mask id="Scene_1_18_20" style="display:none;"><g id="circle-mask-01" transform="matrix(1 0 0 1 177.75 95.25)"><animateTransform attributeName="transform" additive="replace" type="translate" repeatCount="indefinite" dur="5.6s" keyTimes="0;0.143;0.15;0.157;0.164;0.171;0.179;0.186;0.193;0.2;0.886;0.893;0.9;0.907;0.914;0.921;0.9285714285714287;1" values="177.75,95.25;177.75,95.25;168.85,94.55;159.95,93.9;151.05,93.2;142.15,92.5;133.2,91.8;124.3,91.15;115.4,90.45;106.5,89.75;106.5,89.75;120.75,90.85;135,91.95;149.25,93.05;163.5,94.15;177.75,95.25;177.75,95.25;177.75,95.25" calcMode="discrete"/><path fill="#FFF" d="M30.4,-30.4Q17.8,-43 0,-43 -17.8,-43 -30.4,-30.4 -43,-17.8 -43,0 -43,17.8 -30.4,30.4 -17.8,43 0,43 17.8,43 30.4,30.4 43,17.8 43,0 43,-17.8 30.4,-30.4" fill-opacity="1"/></g><animate attributeName="display" repeatCount="indefinite" dur="5.6s" keyTimes="0;0.143;0.929;1" values="none;inline;none;none"/></mask><g mask="url(#Scene_1_16_34)" style="display:none;" id="Scene 1_17.34"><path fill="#E3D3C5" d="M64.2,111.7Q67.1,108.8 70.3,107.5 73.65,106.3 78,106.55 83.95,106.85 87.85,110.1 91.85,113.45 92.9,118.95L93.3,122.85Q93.3,129.6 89.7,134.15 88.799,135.257 87.75,136.125 87.57,138.455 90.1,138.075 90.715,137.525 91.3,136.9 96.35,131.5 96.35,122.85 96.35,114.55 91.3,109.1 86.35,103.8 78.15,103.4 73.05,103.15 69.15,104.7 65.35,106.15 62,109.6 61,110.65 62.05,111.7 62.55,112.2 63.15,112.2 63.75,112.2 64.2,111.7"/><animate attributeName="display" repeatCount="indefinite" dur="5.6s" keyTimes="0;0.243;0.871;1" values="none;inline;none;none"/></g><mask id="Scene_1_16_34" style="display:none;"><g id="circle-mask-01" transform="matrix(1 0 0 1 111.25 178.75)"><animateTransform attributeName="transform" additive="replace" type="translate" repeatCount="indefinite" dur="5.6s" keyTimes="0;0.243;0.25;0.257;0.264;0.271;0.279;0.286;0.293;0.3;0.829;0.836;0.843;0.85;0.857;0.864;0.8714285714285714;1" values="111.25,178.75;111.25,178.75;109.65,171.6;108,164.45;106.4,157.3;104.75,150.15;103.15,142.95;101.5,135.8;99.9,128.65;98.25,121.5;98.25,121.5;100.85,132.95;103.45,144.4;106.05,155.85;108.65,167.3;111.25,178.75;111.25,178.75;111.25,178.75" calcMode="discrete"/><path fill="#FFF" d="M30.4,-30.4Q17.8,-43 0,-43 -17.8,-43 -30.4,-30.4 -43,-17.8 -43,0 -43,17.8 -30.4,30.4 -17.8,43 0,43 17.8,43 30.4,30.4 43,17.8 43,0 43,-17.8 30.4,-30.4" fill-opacity="1"/></g><animate attributeName="display" repeatCount="indefinite" dur="5.6s" keyTimes="0;0.243;0.871;1" values="none;inline;none;none"/></mask><g mask="url(#Scene_1_14_27)" style="display:none;" id="Scene 1_15.27"><path fill="#E3D3C5" d="M64.525,127.2Q63.136,124.999 61.575,126.35 61.205,127.378 61.1,128.5 60.6,134 63.8,137.45 68.25,142.3 78.25,142.3 85.324,142.3 90.1,138.075 89.575,135.985 87.75,136.125 83.966,139.25 78.25,139.25 69.6,139.25 66.1,135.4 63.8,132.8 64.15,128.8 64.217,127.96 64.525,127.2"/><animate attributeName="display" repeatCount="indefinite" dur="5.6s" keyTimes="0;0.193;0.9;1" values="none;inline;none;none"/></g><mask id="Scene_1_14_27" style="display:none;"><g id="circle-mask-01" transform="matrix(1 0 0 1 25.5 97)"><animateTransform attributeName="transform" additive="replace" type="translate" repeatCount="indefinite" dur="5.6s" keyTimes="0;0.193;0.2;0.207;0.214;0.221;0.229;0.236;0.243;0.25;0.857;0.864;0.871;0.879;0.886;0.893;0.9;1" values="25.5,97;25.5,97;28.6,100.65;31.65,104.25;34.75,107.9;37.8,111.55;40.9,115.15;43.95,118.8;47.05,122.4;50.1,126.05;50.1,126.05;45.2,120.25;40.25,114.45;35.35,108.6;30.4,102.8;25.5,97;25.5,97;25.5,97" calcMode="discrete"/><path fill="#FFF" d="M30.4,-30.4Q17.8,-43 0,-43 -17.8,-43 -30.4,-30.4 -43,-17.8 -43,0 -43,17.8 -30.4,30.4 -17.8,43 0,43 17.8,43 30.4,30.4 43,17.8 43,0 43,-17.8 30.4,-30.4" fill-opacity="1"/></g><animate attributeName="display" repeatCount="indefinite" dur="5.6s" keyTimes="0;0.193;0.9;1" values="none;inline;none;none"/></mask><g mask="url(#Scene_1_12_20)" style="display:none;" id="Scene 1_13.20"><path fill="#E3D3C5" d="M61.575,126.35Q63.05,128.11 64.525,127.2 65.123,125.729 66.65,124.6 71.15,121.2 81.4,121.2 87,121.2 93.2,122.15 94.332,120.55 92.9,118.95 83.15,117.5 75.9,118.35 68.65,119.2 64.75,122.15 62.437,123.972 61.575,126.35"/><animate attributeName="display" repeatCount="indefinite" dur="5.6s" keyTimes="0;0.143;0.929;1" values="none;inline;none;none"/></g><mask id="Scene_1_12_20" style="display:none;"><g id="circle-mask-01" transform="matrix(1 0 0 1 133 95.25)"><animateTransform attributeName="transform" additive="replace" type="translate" repeatCount="indefinite" dur="5.6s" keyTimes="0;0.143;0.15;0.157;0.164;0.171;0.179;0.186;0.193;0.2;0.886;0.893;0.9;0.907;0.914;0.921;0.9285714285714287;1" values="133,95.25;133,95.25;127.15,95.3;121.3,95.4;115.45,95.45;109.65,95.5;103.8,95.55;97.95,95.65;92.1,95.7;86.25,95.75;86.25,95.75;95.6,95.65;104.95,95.55;114.3,95.45;123.65,95.35;133,95.25;133,95.25;133,95.25" calcMode="discrete"/><path fill="#FFF" d="M30.4,-30.4Q17.8,-43 0,-43 -17.8,-43 -30.4,-30.4 -43,-17.8 -43,0 -43,17.8 -30.4,30.4 -17.8,43 0,43 17.8,43 30.4,30.4 43,17.8 43,0 43,-17.8 30.4,-30.4" fill-opacity="1"/></g><animate attributeName="display" repeatCount="indefinite" dur="5.6s" keyTimes="0;0.143;0.929;1" values="none;inline;none;none"/></mask><g mask="url(#Scene_1_10_33)" style="display:none;" id="Scene 1_11.33"><path fill="#E3D3C5" d="M56.575,132.1Q55.235,129.867 53.55,131.6 52.088,137.65 42.5,137.65 35.25,137.65 30.85,135.45 28.3,134.15 27.3,132.55 27,132 26.35,131.85 25.7,131.8 25.2,132.1 24.65,132.45 24.5,133.1 24.4,133.7 24.75,134.25 26.2,136.45 29.25,138.1 34.35,140.8 42.5,140.8 49.25,140.8 52.95,137.9 55.796,135.7 56.575,132.1"/><animate attributeName="display" repeatCount="indefinite" dur="5.6s" keyTimes="0;0.236;0.871;1" values="none;inline;none;none"/></g><mask id="Scene_1_10_33" style="display:none;"><g id="circle-mask-01" transform="matrix(1 0 0 1 80.1 92.25)"><animateTransform attributeName="transform" additive="replace" type="translate" repeatCount="indefinite" dur="5.6s" keyTimes="0;0.236;0.243;0.25;0.257;0.264;0.271;0.279;0.286;0.293;0.829;0.836;0.843;0.85;0.857;0.864;0.8714285714285714;1" values="80.1,92.25;80.1,92.25;77.3,94.65;74.55,97;71.75,99.4;69,101.75;66.2,104.15;63.4,106.5;60.65,108.9;57.85,111.25;57.85,111.25;62.3,107.45;66.75,103.65;71.2,99.85;75.65,96.05;80.1,92.25;80.1,92.25;80.1,92.25" calcMode="discrete"/><path fill="#FFF" d="M30.4,-30.4Q17.8,-43 0,-43 -17.8,-43 -30.4,-30.4 -43,-17.8 -43,0 -43,17.8 -30.4,30.4 -17.8,43 0,43 17.8,43 30.4,30.4 43,17.8 43,0 43,-17.8 30.4,-30.4" fill-opacity="1"/></g><animate attributeName="display" repeatCount="indefinite" dur="5.6s" keyTimes="0;0.236;0.871;1" values="none;inline;none;none"/></mask><g mask="url(#Scene_1_8_27)" style="display:none;" id="Scene 1_9.27"><path fill="#E3D3C5" d="M53.55,131.6Q54.489,133.488 56.575,132.1 56.814,130.94 56.85,129.65L56.85,129.55Q57.1,123.6 51.2,120.25 47,117.9 36.5,115.6 33.65,115.05 32.15,113.55 30.55,112.1 30.7,110.35 30.742,109.786 30.95,109.275 29.413,107.418 27.875,108.85 27.711,109.431 27.65,110.05 27.3,112.7 29.15,114.9 31.3,117.65 35.85,118.65 45.7,120.7 49.55,122.85 53.95,125.3 53.8,129.5L53.8,129.55Q53.773,130.653 53.55,131.6"/><animate attributeName="display" repeatCount="indefinite" dur="5.6s" keyTimes="0;0.193;0.9;1" values="none;inline;none;none"/></g><mask id="Scene_1_8_27" style="display:none;"><g id="circle-mask-01" transform="matrix(1 0 0 1 2.35 70.1)"><animateTransform attributeName="transform" additive="replace" type="translate" repeatCount="indefinite" dur="5.6s" keyTimes="0;0.193;0.2;0.207;0.214;0.221;0.229;0.236;0.243;0.25;0.857;0.864;0.871;0.879;0.886;0.893;0.9;1" values="2.35,70.1;2.35,70.1;6.8,73.5;11.25,76.9;15.7,80.3;20.2,83.7;24.65,87.05;29.1,90.45;33.55,93.85;38,97.25;38,97.25;30.85,91.8;23.75,86.4;16.6,80.95;9.5,75.55;2.35,70.1;2.35,70.1;2.35,70.1" calcMode="discrete"/><path fill="#FFF" d="M30.4,-30.4Q17.8,-43 0,-43 -17.8,-43 -30.4,-30.4 -43,-17.8 -43,0 -43,17.8 -30.4,30.4 -17.8,43 0,43 17.8,43 30.4,30.4 43,17.8 43,0 43,-17.8 30.4,-30.4" fill-opacity="1"/></g><animate attributeName="display" repeatCount="indefinite" dur="5.6s" keyTimes="0;0.193;0.9;1" values="none;inline;none;none"/></mask><g mask="url(#Scene_1_6_20)" style="display:none;" id="Scene 1_7.20"><path fill="#E3D3C5" d="M54.2,108.65Q54.85,108.5 55.2,107.95 55.55,107.45 55.5,106.85 55.35,106.2 54.8,105.85 49.55,102.25 39,102.25 33.9,102.35 30.75,104.75 28.518,106.543 27.875,108.85 28.916,110.751 30.95,109.275 31.471,107.969 33.05,107 35.35,105.4 39,105.4 48.7,105.4 53.05,108.45 53.6,108.8 54.2,108.65"/><animate attributeName="display" repeatCount="indefinite" dur="5.6s" keyTimes="0;0.143;0.929;1" values="none;inline;none;none"/></g><mask id="Scene_1_6_20" style="display:none;"><g id="circle-mask-01" transform="matrix(1 0 0 1 101 94.25)"><animateTransform attributeName="transform" additive="replace" type="translate" repeatCount="indefinite" dur="5.6s" keyTimes="0;0.143;0.15;0.157;0.164;0.171;0.179;0.186;0.193;0.2;0.886;0.893;0.9;0.907;0.914;0.921;0.9285714285714287;1" values="101,94.25;101,94.25;96.9,95.2;92.75,96.15;88.65,97.05;84.5,98;80.4,98.95;76.25,99.9;72.15,100.8;68,101.75;68,101.75;74.6,100.25;81.2,98.75;87.8,97.25;94.4,95.75;101,94.25;101,94.25;101,94.25" calcMode="discrete"/><path fill="#FFF" d="M30.4,-30.4Q17.8,-43 0,-43 -17.8,-43 -30.4,-30.4 -43,-17.8 -43,0 -43,17.8 -30.4,30.4 -17.8,43 0,43 17.8,43 30.4,30.4 43,17.8 43,0 43,-17.8 30.4,-30.4" fill-opacity="1"/></g><animate attributeName="display" repeatCount="indefinite" dur="5.6s" keyTimes="0;0.143;0.929;1" values="none;inline;none;none"/></mask><g mask="url(#Scene_1_4_7)" style="display:none;" id="Scene 1_5.7"><path fill="#E3D3C5" d="M101.1,25.1Q99.011,26.75 100.925,28.4 101.768,28.44 102.65,28.6 108.9,29.9 112.45,35.25 115.95,40.65 114.65,46.85 113.4,52.75 109.3,56.25 106.95,58.3 101.35,60.75L100.05,61.35 100.05,61.25Q94.65,57.3 91.15,56.15 85.2,54.1 78.4,56.3 71.05,58.75 67.65,65.7 64.1,72.65 66.55,79.95 67.941,84.08 71.175,86.8 73.959,87.072 73.55,84.55 70.79,82.433 69.6,78.9 67.65,72.85 70.55,67.15 73.35,61.45 79.45,59.45 85.2,57.55 90.2,59.3 93.3,60.35 98,63.85L97.95,64.25Q97.15,70.9 97.95,74.55 99.15,80.8 104.5,85.45 109.7,90.2 116.85,90.2 125.25,90.2 130.8,83.95 133.669,80.705 134.425,76.75 133.577,73.921 131.35,75.625 130.868,79.037 128.4,81.8 124.1,86.55 117.75,86.9 111.35,87.3 106.65,83.1 102.15,79.05 101.15,73.8 100.55,70.6 101.2,64.65L101.2,64.4 102.65,63.7Q108.75,61.05 111.6,58.6 116.4,54.5 117.85,47.45 119.4,40 115.1,33.4 110.75,26.95 103.25,25.4 102.158,25.167 101.1,25.1"/><animate attributeName="display" repeatCount="indefinite" dur="5.6s" keyTimes="0;0.05;0.979;1" values="none;inline;none;none"/></g><mask id="Scene_1_4_7" style="display:none;"><g id="circle-mask-01" transform="matrix(0.1 0 0 0.1 99.85 63)"><animateTransform attributeName="transform" additive="replace" type="translate" repeatCount="indefinite" dur="5.6s" keyTimes="0;0.05;0.9785714285714288;1" values="99.85,63;99.85,63;99.85,63;99.85,63" calcMode="discrete"/><animateTransform attributeName="transform" additive="sum" type="scale" repeatCount="indefinite" dur="5.6s" keyTimes="0;0.05;0.057;0.064;0.071;0.079;0.086;0.093;0.1;0.107;0.114;0.121;0.129;0.136;0.143;0.15;0.157;0.893;0.9;0.907;0.914;0.921;0.929;0.936;0.943;0.95;0.957;0.964;0.971;0.9785714285714288;1" values="0.1,0.1;0.1,0.1;0.126,0.126;0.158,0.158;0.194,0.194;0.234,0.234;0.28,0.28;0.33,0.33;0.386,0.386;0.446,0.446;0.51,0.51;0.58,0.58;0.654,0.654;0.734,0.734;0.818,0.818;0.906,0.906;1,1;1,1;0.918,0.918;0.836,0.836;0.755,0.755;0.673,0.673;0.591,0.591;0.509,0.509;0.427,0.427;0.345,0.345;0.264,0.264;0.182,0.182;0.1,0.1;0.1,0.1;0.1,0.1" calcMode="discrete"/><path fill="#FFF" d="M30.4,-30.4Q17.8,-43 0,-43 -17.8,-43 -30.4,-30.4 -43,-17.8 -43,0 -43,17.8 -30.4,30.4 -17.8,43 0,43 17.8,43 30.4,30.4 43,17.8 43,0 43,-17.8 30.4,-30.4" fill-opacity="1"/></g><animate attributeName="display" repeatCount="indefinite" dur="5.6s" keyTimes="0;0.05;0.979;1" values="none;inline;none;none"/></mask><g mask="url(#Scene_1_2_20)" style="display:none;" id="Scene 1_3.20"><path fill="#E3D3C5" d="M89.75,44.95Q87.65,41.75 88.45,37.9 89.4,33.1 93.6,30.35 96.969,28.172 100.925,28.4 102.89,26.844 101.1,25.1 96.201,24.726 91.85,27.6 86.55,31.15 85.25,37.3 84.2,42.5 87.1,46.7 89.9,51.05 95.05,52.1 97.11,52.527 99.05,52.15 101.21,50.33 98.5,48.9 97.111,49.187 95.65,48.9 92,48.2 89.75,44.95"/><path fill="#E3D3C5" d="M114.25,65.6Q116.85,62.7 120.65,62.5 124.5,62.25 127.4,64.8 131.15,68.15 131.45,73.1 131.529,74.403 131.35,75.625 132.035,78.176 134.425,76.75 134.761,74.931 134.65,72.95 134.25,66.6 129.6,62.4 125.7,58.9 120.5,59.2 115.35,59.5 111.9,63.4 110.778,64.66 110.125,66.1 110.718,68.84 113.1,67.375 113.525,66.421 114.25,65.6"/><path fill="#E3D3C5" d="M91.525,69.85Q88.642,69.549 89.15,72.075 90.24,73.187 90.75,74.8 92,78.45 90.2,81.9 88.45,85.3 84.9,86.55 80.15,88.05 75.65,85.85 74.509,85.286 73.55,84.55 71.072,84.286 71.175,86.8 71.671,87.222 72.2,87.6 76.2,90.45 81.05,90.45 83.35,90.45 85.85,89.6 90.85,88 93.1,83.35 95.5,78.65 93.8,73.8 93.062,71.5 91.525,69.85"/><animate attributeName="display" repeatCount="indefinite" dur="5.6s" keyTimes="0;0.143;0.914;1" values="none;inline;none;none"/></g><mask id="Scene_1_2_20" style="display:none;"><g id="circle-mask-2" transform="matrix(4.29 0 0 4.29 99.85 63)"><animateTransform attributeName="transform" additive="replace" type="translate" repeatCount="indefinite" dur="5.6s" keyTimes="0;0.143;0.15;0.157;0.164;0.171;0.179;0.193;0.2;0.207;0.214;0.221;0.229;0.9142857142857144;1" values="99.85,63;99.85,63;99.75,62.95;99.75,62.95;99.8,62.95;99.75,62.95;99.8,62.95;99.8,62.95;99.8,63;99.8,63;99.8,62.95;99.8,63;99.85,63;99.85,63;99.85,63" calcMode="discrete"/><animateTransform attributeName="transform" additive="sum" type="scale" repeatCount="indefinite" dur="5.6s" keyTimes="0;0.143;0.15;0.157;0.164;0.171;0.179;0.186;0.193;0.2;0.207;0.214;0.221;0.229;0.857;0.864;0.871;0.879;0.886;0.893;0.9;0.907;0.9142857142857144;1" values="4.29,4.29;4.29,4.29;3.865,3.865;3.467,3.467;3.097,3.097;2.755,2.755;2.439,2.439;2.152,2.152;1.891,1.891;1.658,1.658;1.452,1.452;1.274,1.274;1.123,1.123;1,1;1,1;1.47,1.47;1.94,1.94;2.41,2.41;2.88,2.88;3.35,3.35;3.82,3.82;4.29,4.29;4.29,4.29;4.29,4.29" calcMode="discrete"/><path fill="#FFF" d="M30.4,-30.4Q17.8,-43 0,-43 -17.8,-43 -30.4,-30.4 -43,-17.8 -43,0 -43,17.8 -30.4,30.4 -17.8,43 0,43 17.8,43 30.4,30.4 43,17.8 43,0 43,-17.8 30.4,-30.4 M6.65,-6.65Q9.45,-3.9 9.45,0 9.45,3.9 6.65,6.65 3.9,9.4 0,9.4 -3.85,9.4 -6.6,6.65 -9.4,3.9 -9.4,0 -9.4,-3.9 -6.6,-6.65 -3.85,-9.4 0,-9.4 3.9,-9.4 6.65,-6.65" fill-opacity="1"/></g><animate attributeName="display" repeatCount="indefinite" dur="5.6s" keyTimes="0;0.143;0.914;1" values="none;inline;none;none"/></mask><g mask="url(#Scene_1_0_29)" style="display:none;" id="Scene 1_1.29"><path fill="#E3D3C5" d="M98.85,36.4Q99.25,36.95 99.9,37.1 102.15,37.6 103.25,39.35 104.5,41.3 104.05,43.4 103.45,46.3 101,47.9 99.78,48.642 98.5,48.9 96.827,51.012 99.05,52.15 100.984,51.77 102.8,50.6 106.4,48.15 107.25,44.05 107.95,40.6 106,37.6 104.05,34.55 100.55,33.9 99.9,33.7 99.3,34.1 98.7,34.5 98.6,35.15 98.55,35.8 98.85,36.4"/><path fill="#E3D3C5" d="M112.5,70.75Q112.407,68.895 113.1,67.375 112.58,64.996 110.125,66.1 109.148,68.293 109.3,70.9 109.55,75.25 112.75,78.05 115.35,80.45 118.9,80.2 122.6,79.95 124.85,77.3 125.35,76.85 125.25,76.15 125.25,75.45 124.7,75 124.25,74.65 123.55,74.65 122.9,74.65 122.45,75.15 121,76.9 118.75,77 116.65,77.15 114.85,75.6 112.65,73.65 112.5,70.75"/><path fill="#E3D3C5" d="M89.15,72.075Q91.506,72.49 91.525,69.85 90.342,68.614 88.7,67.75 84.8,65.85 80.75,67.25 77.4,68.3 75.7,71.5 74.1,74.7 75.25,78.05 75.5,78.75 76.1,79.05 76.7,79.35 77.35,79.15 77.95,78.9 78.25,78.3 78.55,77.7 78.3,77.05 77.65,74.95 78.6,72.95 79.6,70.95 81.75,70.3 84.6,69.35 87.15,70.65 88.321,71.214 89.15,72.075"/><animate attributeName="display" repeatCount="indefinite" dur="5.6s" keyTimes="0;0.207;0.871;1" values="none;inline;none;none"/></g><mask id="Scene_1_0_29" opacity="9999999999999.99" style="display:none;"><g id="circle-mask-01" transform="matrix(0.2 0 0 0.2 99.85 63)"><animateTransform attributeName="transform" additive="replace" type="translate" repeatCount="indefinite" dur="5.6s" keyTimes="0;0.207;0.214;0.221;0.229;0.236;0.243;0.8714285714285714;1" values="99.85,63;99.85,63;99.85,63;99.85,63.05;99.85,63;99.9,63;99.85,63;99.85,63;99.85,63" calcMode="discrete"/><animateTransform attributeName="transform" additive="sum" type="scale" repeatCount="indefinite" dur="5.6s" keyTimes="0;0.207;0.214;0.221;0.229;0.236;0.243;0.25;0.257;0.264;0.829;0.836;0.843;0.85;0.857;0.864;0.8714285714285714;1" values="0.2,0.2;0.2,0.2;0.256,0.256;0.325,0.325;0.406,0.406;0.5,0.5;0.606,0.606;0.725,0.725;0.856,0.856;1,1;1,1;0.84,0.84;0.68,0.68;0.52,0.52;0.36,0.36;0.2,0.2;0.2,0.2;0.2,0.2" calcMode="discrete"/><path fill="#FFF" d="M30.4,-30.4Q17.8,-43 0,-43 -17.8,-43 -30.4,-30.4 -43,-17.8 -43,0 -43,17.8 -30.4,30.4 -17.8,43 0,43 17.8,43 30.4,30.4 43,17.8 43,0 43,-17.8 30.4,-30.4" fill-opacity="1"/></g><animate attributeName="display" repeatCount="indefinite" dur="5.6s" keyTimes="0;0.207;0.871;1" values="none;inline;none;none"/></mask><defs><symbol id="circle-mask-01" viewBox="-93 -93 186 186"><path fill="#00F" d="M30.4,-30.4Q17.8,-43 0,-43 -17.8,-43 -30.4,-30.4 -43,-17.8 -43,0 -43,17.8 -30.4,30.4 -17.8,43 0,43 17.8,43 30.4,30.4 43,17.8 43,0 43,-17.8 30.4,-30.4"/>
</symbol></defs></svg>