<svg id="Layer_1" data-name="Layer 1" xmlns="http://www.w3.org/2000/svg" viewBox="0 0 52.43 61"><defs><style>.cls-1{fill:none;stroke:#003865;stroke-miterlimit:10;}</style></defs><title>best-price-icon-group-version</title><path class="cls-1" d="M-195.29,1.6V5.88c0,4.72-11.52,8.57-25.71,8.57s-25.71-3.85-25.71-8.57V1.6C-246.72-3.13-235.2-7-221-7S-195.29-3.13-195.29,1.6Zm0,11.45v5.69c0,4.72-11.52,8.57-25.71,8.57s-25.71-3.85-25.71-8.57V13c5.52,3.88,15.64,5.69,25.71,5.69S-200.81,16.93-195.29,13Zm0,12.86V31.6c0,4.72-11.52,8.57-25.71,8.57s-25.71-3.85-25.71-8.57V25.9c5.52,3.88,15.64,5.69,25.71,5.69S-200.81,29.79-195.29,25.9Zm0,12.86v5.69c0,4.72-11.52,8.57-25.71,8.57s-25.71-3.85-25.71-8.57V38.76c5.52,3.88,15.64,5.69,25.71,5.69S-200.81,42.65-195.29,38.76Z" transform="translate(247.22 7.48)"/></svg>