<svg id="Layer_1" data-name="Layer 1" xmlns="http://www.w3.org/2000/svg" viewBox="0 0 56.33 62"><defs><style>.cls-1{fill:none;stroke:#003865;stroke-linejoin:round;}.cls-2{font-size:22px;fill:#003865;font-family:Lato-Regular, Lato;}</style></defs><title>change-mind-icon-group-version</title><path class="cls-1" d="M65.81,33h0a.07.07,0,0,0,0,.06v5.31a.29.29,0,0,1-.29.29,27.64,27.64,0,1,0,26,18.25l-.21-.53-.92-2.18c-.59.3-1.93.86-5,2.07l.88,2.1c0,.1.15.4.15.4h0a22.28,22.28,0,1,1-21-14.72h.12l.08.06h0a.29.29,0,0,1,.08.2h0v5a.07.07,0,0,0,0,.06L77,41.67v-.12L65.86,33Z" transform="translate(-37.31 -32.5)"/><text class="cls-2" transform="translate(15.4 41.36)">24</text></svg>