<?xml version="1.0" encoding="utf-8"?><svg xmlns:xlink="http://www.w3.org/1999/xlink" id="Scene_1" image-rendering="auto" baseProfile="basic" version="1.1" x="0px" y="0px" width="28" height="28" viewBox="0 0 28 28" xmlns="http://www.w3.org/2000/svg"><g id="Scene 1_0.0"><path fill="#57514B" d="M23.25,10.9Q23.25,9.25 22.1,8.1 21,6.95 19.4,6.9 17.75,6.95 16.65,8.1 15.55,9.25 15.55,10.9L15.5,12.75Q15.35,13.75 14.8,14.9 14.8,14.95 14.75,15.05 16.4,15.95 17.4,16.8 18.95,18.1 18.95,19.2L18.95,21.25 24.5,21.25Q25.05,21.25 25.4,20.85 25.8,20.45 25.8,19.9L25.8,18.95Q25.75,18 25.2,17.2 24.6,16.5 23.7,16.1L23.65,16Q23.8,15.9 23.95,15.75 24.2,15.3 24,14.9 23.4,13.75 23.3,12.75L23.25,10.9"/><path fill="#57514B" d="M14.7,12.3L14.7,9.75Q14.7,7.9 13.4,6.6 12.05,5.35 10.3,5.35 8.5,5.35 7.25,6.6 5.95,7.9 5.95,9.75L5.95,12.3Q5.95,13.95 7.05,15.1L5,16.3Q3.3,17.35 2.65,18.1 2.2,18.7 2.2,19.2L2.2,22.05Q2.2,22.45 2.45,22.65 2.65,22.9 3.05,22.9L17.4,22.9Q17.75,22.9 17.95,22.6 18.25,22.4 18.25,22.05L18.25,19.25Q18.25,17.8 13.6,15.25 14.7,14 14.7,12.3"/></g><defs/></svg>