<?xml version="1.0" encoding="utf-8"?><svg xmlns:xlink="http://www.w3.org/1999/xlink" id="Scene_1" image-rendering="auto" baseProfile="basic" version="1.1" x="0px" y="0px" width="28" height="28" viewBox="0 0 28 28" xmlns="http://www.w3.org/2000/svg"><g id="Scene 1_1.0"><path fill="#5F5A55" d="M22.6,11.35L22.55,11.25Q22.45,11.2 22.4,11.2L14.2,4.1 5.95,11.2Q5.85,11.2 5.8,11.25L3.1,13.55 4.45,15.15 5.45,14.3 5.5,21.4Q5.45,22.95 7,22.95L21.25,22.95Q22.8,22.95 22.8,21.4L22.9,14.3 23.85,15.1 25.2,13.55 22.6,11.35 M20.7,20.85L7.6,20.85 7.5,12.5 14.2,6.8 20.85,12.5 20.7,20.85"/></g><g id="Scene 1_0.0"><path fill="#5F5A55" d="M17.25,13.85Q17.05,13.65 16.75,13.65 16.45,13.65 16.25,13.8 16.05,14 16.05,14.3 16.05,14.6 16.2,14.85L16.75,15.35 11.55,15.35 12.05,14.85Q12.25,14.6 12.25,14.3 12.25,14 12.05,13.8 11.8,13.65 11.55,13.65 11.2,13.65 11.05,13.85L9.05,16 11.05,18.15Q11.2,18.4 11.5,18.4 11.75,18.4 12,18.2 12.25,18.05 12.25,17.75 12.25,17.45 12.05,17.25L11.6,16.75 16.7,16.75 16.2,17.25Q16.05,17.45 16.05,17.75 16.05,18.05 16.25,18.2 16.5,18.4 16.75,18.4 17.05,18.4 17.25,18.15L19.25,16 17.25,13.85"/></g><defs/></svg>