<?xml version="1.0" encoding="utf-8"?><svg xmlns:xlink="http://www.w3.org/1999/xlink" id="Scene_1" image-rendering="auto" baseProfile="basic" version="1.1" x="0px" y="0px" width="25" height="25" viewBox="0 0 25 25" xmlns="http://www.w3.org/2000/svg"><g id="Scene 1_0.0"><path fill="#B1A5A0" d="M21.1,17.1L21.1,16.85Q21.1,16.45 20.8,16.2 20.55,15.95 20.2,15.95L17.25,15.95Q16.9,15.95 16.6,16.2 16.35,16.45 16.35,16.85L16.35,17.1Q16.35,17.45 16.6,17.7 16.9,17.95 17.25,17.95L20.15,17.95Q20.55,17.95 20.8,17.7 21.1,17.45 21.1,17.1"/><path fill="#B1A5A0" d="M17.55,2.25Q17.4,2.4 17.4,2.65L17.4,14.75 19.65,14.75 19.65,2.65Q19.65,2.4 19.5,2.25 19.35,2.1 19.15,2.1L17.95,2.1Q17.7,2.1 17.55,2.25"/><path fill="#B1A5A0" d="M13.15,2.1L12,2.1Q11.75,2.1 11.6,2.25 11.45,2.4 11.45,2.65L11.45,9.1 13.7,9.1 13.7,2.65Q13.7,2.4 13.55,2.25 13.4,2.1 13.15,2.1"/><path fill="#B1A5A0" d="M10.15,11.15L10.15,11.4Q10.15,11.75 10.4,12 10.65,12.3 11,12.3L14,12.3Q14.35,12.3 14.6,12.05 14.9,11.8 14.9,11.4L14.9,11.15Q14.9,10.8 14.6,10.5 14.35,10.25 14,10.25L11,10.25Q10.65,10.25 10.4,10.5 10.15,10.8 10.15,11.15"/><path fill="#B1A5A0" d="M7.35,2.25Q7.2,2.1 6.95,2.1L5.8,2.1Q5.55,2.1 5.4,2.25 5.25,2.4 5.25,2.65L5.25,4.25 7.5,4.25 7.5,2.65Q7.5,2.4 7.35,2.25"/><path fill="#B1A5A0" d="M8.4,5.75Q8.15,5.45 7.8,5.45L4.8,5.45Q4.45,5.45 4.2,5.75 3.95,6 3.95,6.35L3.95,6.6Q3.95,6.95 4.2,7.25 4.45,7.5 4.8,7.5L7.8,7.5Q8.15,7.5 8.4,7.25 8.7,6.95 8.7,6.6L8.7,6.35Q8.7,6 8.4,5.75"/><path fill="#B1A5A0" d="M7.5,8.65L5.25,8.65 5.25,21.4Q5.25,21.65 5.4,21.8 5.55,21.95 5.8,21.95L6.95,21.95Q7.2,22 7.35,21.8 7.5,21.7 7.5,21.45L7.5,8.65"/><path fill="#B1A5A0" d="M13.7,13.5L11.45,13.5 11.45,21.45Q11.45,21.7 11.6,21.85 11.75,22 12,22L13.15,22Q13.4,22 13.55,21.85 13.7,21.7 13.7,21.45L13.7,13.5"/><path fill="#B1A5A0" d="M19.65,19.15L17.4,19.15 17.4,21.45Q17.4,21.7 17.55,21.85 17.75,22 17.95,22L19.15,22Q19.35,22 19.5,21.85 19.65,21.7 19.65,21.45L19.65,19.15"/></g><defs/></svg>