<svg xmlns="http://www.w3.org/2000/svg" viewBox="0 0 103 52"><defs><style>.cls-1{fill:#7d0052;}.cls-2{fill:#fff;}</style></defs><title>Asset 1</title><g id="Layer_2" data-name="Layer 2"><g id="Layer_1-2" data-name="Layer 1"><path class="cls-1" d="M77,52H26A26.08,26.08,0,0,1,0,26H0A26.08,26.08,0,0,1,26,0H77a26.08,26.08,0,0,1,26,26h0A26.08,26.08,0,0,1,77,52Z"/><path class="cls-2" d="M52.67,23.72a2.31,2.31,0,0,0-1.9.86,3.66,3.66,0,0,0-.69,2.36,3.68,3.68,0,0,0,.66,2.38,2.35,2.35,0,0,0,1.92.81A5.06,5.06,0,0,0,53.73,30q.51-.11,1.06-.28v1.2a6.43,6.43,0,0,1-2.29.38,3.65,3.65,0,0,1-2.89-1.14,4.77,4.77,0,0,1-1-3.26,5.27,5.27,0,0,1,.49-2.34A3.49,3.49,0,0,1,50.51,23a4.28,4.28,0,0,1,2.17-.53,5.39,5.39,0,0,1,2.43.55l-.5,1.17a7.52,7.52,0,0,0-.92-.36A3.31,3.31,0,0,0,52.67,23.72Z"/><path class="cls-2" d="M64.35,31.2H62.94V27.34H59V31.2h-1.4V22.64H59v3.5h3.95v-3.5h1.41Z"/><path class="cls-2" d="M72.88,31.2,72,28.83H68.75l-.84,2.38H66.43l3.2-8.6h1.52l3.21,8.6Zm-1.22-3.59-.8-2.33q-.09-.23-.24-.74t-.21-.74a13.14,13.14,0,0,1-.46,1.58l-.77,2.23Z"/><path class="cls-2" d="M79.42,31.2H78V23.84H75.5v-1.2h6.44v1.2H79.42Z"/><path class="cls-2" d="M37,31.19H19.42V16.66H37Zm-16.61-1H36V17.66H20.42Z"/><polygon class="cls-1" points="23.15 20.39 23.15 33.92 32.07 33.92 38.15 38 38.15 33.92 39.76 33.92 39.76 20.39 23.15 20.39"/><path class="cls-2" d="M38.65,38.94l-6.73-4.51H22.65V19.89H40.26V34.42H38.65Zm-15-5.51h8.57l5.42,3.64V33.42h1.62V20.89H23.65Z"/></g></g></svg>