<?xml version="1.0" encoding="utf-8"?><svg xmlns:xlink="http://www.w3.org/1999/xlink" id="Scene_1" image-rendering="auto" baseProfile="basic" version="1.1" x="0px" y="0px" width="29" height="56" viewBox="0 0 29 56" xmlns="http://www.w3.org/2000/svg"><g id="Scene 1_0.0"><path fill="#747474" d="M27.65,19.3Q29.65,13.8 27.2,8.6 24.7,3.35 19.3,1.35 13.85,-0.6 8.6,1.8 3.3,4.25 1.35,9.7 0.5,12.05 0.5,14.5 0.5,16.95 1.35,19.3L14.5,55.5 27.65,19.3 M17.25,14.5Q17.25,15.65 16.45,16.45 15.6,17.25 14.5,17.25 13.35,17.25 12.6,16.45 11.75,15.65 11.75,14.5 11.75,13.4 12.6,12.55 13.35,11.75 14.5,11.75 15.6,11.75 16.45,12.55 17.25,13.4 17.25,14.5"/></g><defs/></svg>