<?xml version="1.0" encoding="utf-8"?><svg xmlns:xlink="http://www.w3.org/1999/xlink" id="Scene_1" image-rendering="auto" baseProfile="basic" version="1.1" x="0px" y="0px" width="80" height="80" viewBox="0 0 80 80" xmlns="http://www.w3.org/2000/svg"><g id="Scene 1_1.0"><path fill="#E3D3C4" d="M76.3,39.5Q76.3,24.45 65.65,13.85 55.1,3.25 40.05,3.25 25,3.25 14.35,13.85 3.75,24.45 3.75,39.5 3.75,54.55 14.35,65.15 25,75.75 40.05,75.75 55.1,75.75 65.65,65.15 76.3,54.55 76.3,39.5"/></g><g id="Scene 1_0.0"><path fill="#954676" d="M47,15.15L47,15.9Q47.15,27.25 46.95,33 46.85,35.75 46.4,41.3 46.25,43.1 45.65,46.5 45.5,47.75 45.2,50.2 45.05,51.35 45.05,53.55 44.95,56.65 45,58.25L45.15,61.6Q45.65,64.45 46.1,65.45 46.7,66.65 47.4,66.85 47.9,67 48.7,67 50.5,67 51.25,65.65 51.9,64.75 52.15,63.6L52.6,61.85 52.8,58.75Q52.85,57.35 52.8,55.95 52.6,53.7 52.5,52.8 52.15,51.1 52,50.2L50.8,45.85Q50.7,45.55 50.7,43.95 50.7,43.4 51.15,42.05 51.25,41.8 52.35,40.25L54.65,37.45 55.75,35.45Q56,35 56.35,33.35 56.5,33 56.65,31.1 56.75,29.1 56.3,25.1 55.6,20.8 53.85,18.1 52.65,16.55 50.8,15.75 48.85,14.85 47,15.15"/><path fill="#954676" d="M41.05,29.35L40.55,15.8 40,15.6Q39,15.35 37.5,15.35L37.65,23.45Q37.8,26.05 37.5,27.25 37.4,27.85 36.7,28.05 36,28.3 35.4,27.95 35.015,27.557 34.9,27.25L34.95,15.3 34.45,15.15 33.35,15 32.35,15.05 31.65,15.2 31.55,15.9 31.7,25.9Q31.7,26.2 31.65,26.95 31.55,27.55 31.25,27.8 30.75,28.2 30,28.05 29.2,27.95 29.1,27.25 29.2,23.4 29.2,21.4L29.1,15.35Q27.75,15.45 27,15.6L26.15,15.75Q26,16.95 25.55,27.25 25.55,30.55 25.75,31.65 26.2,34.1 27.85,35.35 28.2,35.65 29.4,36.4 30.45,37.05 30.9,37.6 31.65,38.55 31.05,41.45L29.75,53.35Q29.2,60.6 30.45,64.4 31.35,67.05 33.35,67 35.5,66.95 36.45,63.9 37.15,61.95 37.15,58.55 37.25,55.55 36.9,52.5 36.25,45.9 35.4,41 34.95,37.95 36.45,36.85 37.7,35.95 38.3,35.5 39.35,34.75 39.95,33.95 41.05,32.4 41.05,29.35"/></g><defs/></svg>