<?xml version="1.0" encoding="UTF-8"?>
<svg xmlns="http://www.w3.org/2000/svg" xmlns:xlink="http://www.w3.org/1999/xlink" width="61.9574pt" height="64.6767pt" viewBox="0 0 61.9574 64.6767" version="1.1">
<defs>
<clipPath id="clip1">
  <path d="M 0 0 L 61.957031 0 L 61.957031 64.675781 L 0 64.675781 Z M 0 0 "/>
</clipPath>
</defs>
<g id="surface1">
<g clip-path="url(#clip1)" clip-rule="nonzero">
<path style=" stroke:none;fill-rule:nonzero;fill:rgb(13.725281%,12.156677%,12.548828%);fill-opacity:1;" d="M 61.722656 45.886719 C 59.082031 51.585938 55.101562 56.144531 49.777344 59.558594 C 44.457031 62.96875 38.648438 64.675781 32.355469 64.675781 C 27.976562 64.675781 23.789062 63.820312 19.800781 62.105469 C 15.8125 60.394531 12.371094 58.089844 9.480469 55.195312 C 6.585938 52.304688 4.28125 48.863281 2.570312 44.875 C 0.855469 40.886719 0 36.699219 0 32.320312 C 0 28.023438 0.808594 23.914062 2.421875 19.996094 C 4.035156 16.078125 6.226562 12.6875 8.996094 9.820312 C 11.761719 6.957031 15.070312 4.644531 18.917969 2.890625 C 22.765625 1.136719 26.839844 0.171875 31.136719 0.00390625 C 32.371094 -0.0507812 33.226562 0.496094 33.707031 1.648438 C 34.210938 2.800781 34 3.8125 33.074219 4.679688 C 30.65625 6.871094 28.8125 9.421875 27.53125 12.328125 C 26.253906 15.234375 25.617188 18.304688 25.617188 21.535156 C 25.617188 25.691406 26.640625 29.523438 28.691406 33.035156 C 30.742188 36.546875 33.523438 39.328125 37.035156 41.378906 C 40.546875 43.425781 44.378906 44.453125 48.535156 44.453125 C 51.851562 44.453125 55.050781 43.738281 58.140625 42.304688 C 59.292969 41.796875 60.304688 41.980469 61.175781 42.851562 C 61.566406 43.246094 61.8125 43.722656 61.910156 44.285156 C 62.011719 44.847656 61.949219 45.378906 61.722656 45.886719 "/>
</g>
</g>
</svg>
