<?xml version="1.0" encoding="utf-8"?>
<!-- Generator: Adobe Illustrator 21.1.0, SVG Export Plug-In . SVG Version: 6.00 Build 0)  -->
<svg version="1.1" id="Layer_1" xmlns="http://www.w3.org/2000/svg" xmlns:xlink="http://www.w3.org/1999/xlink" x="0px" y="0px"
	 viewBox="0 0 73.7 73.7" style="enable-background:new 0 0 73.7 73.7;" xml:space="preserve">
<style type="text/css">
	.st0{fill:#C9C8C8;}
</style>
<g>
	<path class="st0" d="M67.7,50.1c-2.6,5.7-6.6,10.3-11.9,13.7c-5.3,3.4-11.1,5.1-17.4,5.1c-4.4,0-8.6-0.9-12.6-2.6
		c-4-1.7-7.4-4-10.3-6.9c-2.9-2.9-5.2-6.3-6.9-10.3C6.9,45.1,6,41,6,36.6c0-4.3,0.8-8.4,2.4-12.3c1.6-3.9,3.8-7.3,6.6-10.2
		c2.8-2.9,6.1-5.2,9.9-6.9c3.8-1.8,7.9-2.7,12.2-2.9c1.2-0.1,2.1,0.5,2.6,1.6c0.5,1.2,0.3,2.2-0.6,3c-2.4,2.2-4.3,4.7-5.5,7.6
		c-1.3,2.9-1.9,6-1.9,9.2c0,4.2,1,8,3.1,11.5c2,3.5,4.8,6.3,8.3,8.3c3.5,2.1,7.3,3.1,11.5,3.1c3.3,0,6.5-0.7,9.6-2.1
		c1.2-0.5,2.2-0.3,3,0.5c0.4,0.4,0.6,0.9,0.7,1.4C68,49.1,68,49.6,67.7,50.1z"/>
</g>
</svg>
