<svg id="Layer_1" data-name="Layer 1" xmlns="http://www.w3.org/2000/svg" viewBox="0 0 71 61"><defs><style>.cls-1{fill:none;stroke:#173961;stroke-miterlimit:10;}</style></defs><title>no-booking-fees-icon-group-version</title><path class="cls-1" d="M364.69,124.6h-2.5a8.79,8.79,0,0,1-8.75-8.75V83.35a8.79,8.79,0,0,1,8.75-8.75h2.5Z" transform="translate(-352.94 -64.1)"/><path class="cls-1" d="M408.44,124.6h-40v-50h5V68.35a3.75,3.75,0,0,1,3.75-3.75h22.5a3.75,3.75,0,0,1,3.75,3.75V74.6h5Z" transform="translate(-352.94 -64.1)"/><path class="cls-1" d="M423.44,115.85a8.79,8.79,0,0,1-8.75,8.75h-2.5v-50h2.5a8.79,8.79,0,0,1,8.75,8.75Z" transform="translate(-352.94 -64.1)"/><rect class="cls-1" x="25.5" y="5.5" width="20" height="5"/></svg>