<?xml version="1.0" encoding="utf-8"?><svg xmlns:xlink="http://www.w3.org/1999/xlink" id="Scene_1" image-rendering="auto" baseProfile="basic" version="1.1" x="0px" y="0px" width="200" height="200" viewBox="0 0 200 200" xmlns="http://www.w3.org/2000/svg"><g id="Scene 1_8.0"><path fill="#7E0052" d="M191.05,190.8L191.05,9.25 9.5,9.25 9.5,190.8 191.05,190.8"/></g><g id="Scene 1_7.0"><path fill="#E2D3C5" d="M174.1,116.75Q174.1,116.35 174.2,116.05 172.6,115 171.15,116.05 171.05,116.2 171.05,116.45 171,118.65 168.65,120.6 165.4,123.15 158.6,123.75 151.7,124.35 142.6,122.95L142.6,122.25Q142.6,118.9 143.55,116.05 142.35,114.35 140.45,116.05 139.6,118.9 139.6,122.25 139.6,130.4 144.55,135.7 149.4,140.95 157.4,141.3L158.8,141.3Q167.4,141.3 173.2,135.25 174.2,134.2 173.15,133.15 172.7,132.7 172.1,132.7 171.4,132.7 171.05,133.15 168.3,136.05 165.1,137.25 161.85,138.45 157.55,138.25 151.8,138 147.9,134.75 144,131.5 142.95,126.05 152.55,127.5 159.6,126.65 166.7,125.85 170.45,123 173.8,120.4 174.1,116.75"/><path fill="#E2D3C5" d="M100.65,35.25Q100.05,35.1 99.45,35.5 98.85,35.85 98.75,36.5 98.7,37.1 99,37.7 99.35,38.25 100.05,38.4 102.2,38.9 103.3,40.65 104.5,42.5 104.05,44.6 103.45,47.45 101.1,49 98.6,50.5 95.85,49.95 92.25,49.3 90.1,46.1 88,42.95 88.85,39.2 89.7,34.5 93.85,31.8 97.85,29.2 102.7,30.1 108.85,31.35 112.3,36.6 115.7,41.9 114.45,47.95 113.25,53.7 109.2,57.15 106.9,59.15 101.45,61.55L100.2,62.15 100.2,62.05Q94.9,58.2 91.45,57.05 85.6,55.05 78.95,57.2 71.8,59.6 68.45,66.4 65,73.2 67.4,80.35 68.95,85 72.9,87.85 74.05,88.6 75.25,89.15 78.15,90.6 81.6,90.6 83.8,90.6 86.3,89.75 87.1,89.55 87.85,89.15 91.5,87.45 93.4,83.65 95.7,79.1 94.05,74.3 92.8,70.35 89.05,68.4 85.25,66.55 81.3,67.9 78,68.95 76.35,72.05 74.8,75.2 75.9,78.5 76.15,79.15 76.75,79.45 77.35,79.75 77.9,79.55 78.5,79.3 78.8,78.7 79.1,78.1 78.9,77.5 78.2,75.45 79.2,73.5 80.15,71.55 82.25,70.9 85,70 87.55,71.25 90.15,72.5 91.05,75.3 92.25,78.85 90.55,82.25 88.85,85.6 85.3,86.8 80.7,88.3 76.3,86.1 71.95,83.95 70.4,79.3 68.45,73.4 71.3,67.8 74.05,62.2 80,60.25 85.6,58.4 90.55,60.1 93.55,61.15 98.15,64.6L98.1,65Q97.35,71.5 98.1,75.05 99.3,81.2 104.5,85.75 106.95,88.05 109.95,89.15 113,90.35 116.6,90.35 120.25,90.35 123.35,89.15 127.2,87.7 130.3,84.25 134.4,79.6 134,73.5 133.65,67.3 129.1,63.2 125.25,59.75 120.2,60.05 115.1,60.35 111.75,64.15 109,67.3 109.2,71.5 109.45,75.75 112.6,78.5 115.1,80.8 118.65,80.6 122.2,80.35 124.45,77.75 124.9,77.3 124.8,76.65 124.8,75.95 124.3,75.5 123.85,75.15 123.2,75.15 122.5,75.15 122.05,75.65 120.65,77.4 118.5,77.45 116.4,77.6 114.65,76.1 112.5,74.15 112.35,71.35 112.2,68.4 114.05,66.3 116.6,63.5 120.35,63.25 124.1,63.05 126.9,65.5 130.55,68.8 130.85,73.65 131.15,78.5 127.9,82.15 123.7,86.8 117.5,87.15 111.25,87.55 106.6,83.4 102.2,79.45 101.2,74.3 100.65,71.2 101.3,65.35L101.3,65.15 102.7,64.45Q108.7,61.85 111.45,59.45 116.15,55.4 117.6,48.55 119.05,41.25 114.9,34.8 110.65,28.45 103.3,26.95 97.35,25.7 92.1,29.15 86.95,32.55 85.7,38.6 84.65,43.7 87.5,47.8 90.25,52.05 95.25,53.1 99.3,53.95 102.85,51.6 106.4,49.2 107.2,45.2 107.85,41.85 106,38.9 104.05,35.95 100.65,35.25"/><path fill="#E2D3C5" d="M71.2,107.25Q74.5,106.05 78.75,106.3 84.55,106.6 88.4,109.8 92.25,113.05 93.3,118.45 83.75,117.05 76.65,117.85 69.55,118.65 65.75,121.6 63.15,123.7 62.4,126.5 63.95,127.5 65.55,126.5 66.1,125.1 67.6,124 72,120.6 82.05,120.6 87.55,120.6 93.6,121.6L93.7,122.25Q93.7,124.5 93.3,126.5 94.5,127.85 96.35,126.5 96.65,124.5 96.65,122.25 96.65,114.1 91.75,108.8 86.9,103.6 78.9,103.2 73.9,103 70.1,104.5 66.35,105.9 63.05,109.25 62.1,110.3 63.15,111.35 63.6,111.8 64.2,111.8 64.8,111.8 65.25,111.35 68.05,108.5 71.2,107.25"/><path fill="#E2D3C5" d="M40.6,105.3Q50.05,105.3 54.3,108.3 54.85,108.65 55.45,108.5 56.1,108.35 56.4,107.85 56.8,107.3 56.7,106.7 56.55,106.15 56.05,105.75 50.9,102.25 40.6,102.25 35.6,102.3 32.5,104.7 29.75,106.85 29.45,109.85 29.15,112.5 30.95,114.65 33.05,117.35 37.5,118.3 47.15,120.3 50.9,122.4 55.2,124.8 55.05,128.9L55.05,129Q54.85,136.9 44,136.9 36.9,136.9 32.6,134.75 30.15,133.45 29.15,131.9 28.85,131.35 28.2,131.2 27.6,131.15 27.05,131.45 26.55,131.8 26.4,132.4 26.3,133 26.6,133.55 28.05,135.7 31,137.35 36.05,139.95 44,139.95 50.6,139.95 54.25,137.1 57.9,134.3 58.05,129.05L58.05,129Q58.3,123.15 52.55,119.85 48.4,117.55 38.1,115.3 35.35,114.8 33.85,113.3 32.3,111.9 32.45,110.15 32.6,108.2 34.75,106.85 37,105.3 40.6,105.3"/><path fill="#E2D3C5" d="M77.9,152.9Q75.1,153.2 73.5,155.2 72.25,156.6 71.95,158.65 71.75,160.95 72.6,162.8 74.65,166.45 78.95,166.45 81.45,166.45 83.4,164.85 85.4,163.2 85.75,160.7 86.2,157.2 83.65,154.65 81.2,152.35 77.9,152.9 M75.6,155.35Q76.95,154.3 78.8,154.2 80.45,154.2 81.8,155.1 83,155.85 83.6,157.15 84.85,159.65 83.5,162.15 82.25,164.55 79.85,164.9 77.75,165.25 76.05,164.15 74.4,163.2 73.8,161.4 73.2,159.35 73.8,157.75 74.4,156.3 75.6,155.35"/><path fill="#E2D3C5" d="M66.2,153.05L66.2,158.85 58.3,158.85 58.3,152.95 56.65,153.05 56.65,166.15 57.4,166.25 58.2,166.15 58.2,162.35 58.3,162.35 58.3,160.35 66.2,160.35 66.2,166.15 66.85,166.25 67.75,166.15 67.75,152.95 66.2,153.05"/><path fill="#E2D3C5" d="M134.1,112.6Q134.25,112.05 133.95,111.5 131.4,107.4 127.45,105.15 123.5,102.85 118.9,102.85 111.55,102.85 106.3,108.45 101.1,113.95 101.1,121.9 101.1,129.9 106.7,135.4 112.3,140.95 120.4,140.95 128.8,140.95 132.45,136.95 136.05,133 135.5,125.1 135.15,120.25 131.4,118.95 128.95,118.15 120.35,118.25L114.95,118.3Q114.35,118.3 113.9,118.75 113.45,119.2 113.45,119.8 113.45,120.4 113.9,120.85 114.35,121.3 114.95,121.3L120.35,121.3Q128.35,121.15 130.2,121.75 132.3,122.4 132.45,125.3 132.95,131.95 130.3,134.9 127.45,137.85 120.4,137.85 113.4,137.85 108.75,133.3 104.05,128.75 104.05,121.9 104.05,115.25 108.4,110.6 112.8,105.9 118.9,105.9 122.65,105.9 125.95,107.85 129.25,109.7 131.3,113.05 131.7,113.65 132.3,113.8 132.9,113.95 133.4,113.6 133.95,113.3 134.1,112.6"/><path fill="#E2D3C5" d="M112.3,159.65L112.2,158.85 105.35,158.85 105.35,154.35 113.15,154.35 113.25,153.7 113.15,152.95 103.75,152.95 103.75,166.25 113.15,166.25 113.25,165.55 113.15,164.85 105.35,164.85 105.35,160.25 112.2,160.25 112.3,159.65"/><path fill="#E2D3C5" d="M119.15,152.9L118.25,152.95 118.35,166.25 127.65,166.25 127.75,165.65 127.65,164.85 119.8,164.85 119.8,152.95 119.15,152.9"/><path fill="#E2D3C5" d="M94.45,154.35L99.05,154.35 99.15,153.7 99.05,152.95 88.3,152.95 88.25,153.55 88.3,154.35 92.95,154.35 92.95,166.15 93.6,166.25 94.45,166.15 94.45,154.35"/><path fill="#E2D3C5" d="M133.25,154.35Q134.3,154 135.45,154.15 136.2,154.2 138.35,155.05L138.95,153.85Q136.9,152.45 133.85,152.8 132.2,152.95 131.3,153.85 130.3,154.75 130.3,156.15 130.2,158.8 133.7,159.8 136.6,160.7 137.15,161.15 138.1,162.15 137.65,163.5 137.3,164.85 135.5,165.05 133.4,165.4 130.8,163.85 130.4,164.3 130.15,165.05 132.15,166.45 134.85,166.45 136.85,166.45 138.2,165.35 139.7,164.15 139.45,162.2 139.3,160.65 138.05,159.8 137.3,159.3 135.3,158.7 133.4,158.2 132.8,157.8 131.6,157 132,155.5 132.2,154.75 133.25,154.35"/></g><g id="Scene 1_5.0"><path fill="#E2D3C5" d="M169.2,110Q171.4,112.4 171.15,116.05 172.3,117.25 174.2,116.05 174.35,111.2 171.35,108 167.15,103.2 157.3,103.2 149.45,103.2 144.55,108.5 141.55,111.75 140.45,116.05 141.7,116.95 143.55,116.05 144.45,113.35 146.2,111.2 150.15,106.2 157.3,106.2 165.6,106.2 169.2,110"/><path fill="#E2D3C5" d="M64.85,136.5Q69.2,141.3 78.95,141.3 86.8,141.3 91.75,136 95.3,132.1 96.35,126.5 95.25,124.65 93.3,126.5 92.5,130.4 90.15,133.3 86.15,138.3 78.95,138.3 70.55,138.3 67.1,134.5 64.85,131.95 65.15,128.1 65.25,127.25 65.55,126.5 64.5,125 62.4,126.5 62.25,127.1 62.15,127.8 61.7,133.15 64.85,136.5"/></g><g id="Scene 1_2.0"><path fill="#E2D3C5" d="M144.4,156.15L145.15,157.45 145.75,157.45 144.85,156Q145.45,155.8 145.55,155.25 145.25,155.1 145,155.25 144.95,155.5 144.8,155.65 144.65,155.7 144.25,155.7L143.9,155.7 143.9,155.25Q143.65,155.1 143.45,155.25L143.45,157.45 143.9,157.45 143.9,156.15 144.4,156.15"/><path fill="#E2D3C5" d="M146.8,155.8Q146.8,156.85 146.15,157.5 145.45,158.2 144.5,158.2 143.5,158.2 142.75,157.5 142.1,156.85 142.1,155.85 141.8,155.7 141.6,155.85 141.6,157.05 142.4,157.9 143.2,158.7 144.5,158.7 145.7,158.7 146.5,157.9 147.4,157.05 147.4,155.8L147.4,155.7Q147.05,155.4 146.8,155.7L146.8,155.8"/></g><g id="Scene 1_1.0"><path fill="#E2D3C5" d="M143.9,154.65L144.25,154.65Q144.65,154.65 144.8,154.8 145,154.95 145,155.2L145,155.25Q145.25,155.55 145.55,155.25L145.55,155.2Q145.55,154.75 145.25,154.5 144.95,154.3 144.35,154.3L143.45,154.3 143.45,155.25Q143.65,155.5 143.9,155.25L143.9,154.65"/><path fill="#E2D3C5" d="M144.5,153.45Q145.45,153.45 146.15,154.15 146.8,154.8 146.8,155.7 147.2,155.95 147.4,155.7 147.35,154.6 146.5,153.75 145.7,152.9 144.5,152.9 143.2,152.9 142.4,153.75 141.6,154.6 141.6,155.8L141.6,155.85Q141.85,156.1 142.1,155.85L142.1,155.8Q142.1,154.8 142.75,154.15 143.5,153.45 144.5,153.45"/></g><defs/></svg>