<?xml version="1.0" encoding="utf-8"?><svg xmlns:xlink="http://www.w3.org/1999/xlink" id="Scene_1" image-rendering="auto" baseProfile="basic" version="1.1" x="0px" y="0px" width="80" height="80" viewBox="0 0 80 80" xmlns="http://www.w3.org/2000/svg"><g id="Scene 1_3.0"><path fill="#E3D3C4" d="M76.3,39.5Q76.3,24.45 65.65,13.85 55.1,3.25 40.05,3.25 25,3.25 14.35,13.85 3.75,24.45 3.75,39.5 3.75,54.55 14.35,65.15 25,75.75 40.05,75.75 55.1,75.75 65.65,65.15 76.3,54.55 76.3,39.5"/></g><g id="Scene 1_2.0"><path fill="#954676" d="M52.95,37L52.4,37Q51.8,37 51.25,37.55 50.7,38.1 50.15,38.65 49.6,39.2 49.6,39.8L50.15,40.9Q50.7,41.45 51.25,42 51.8,42.6 52.4,42.6L50.15,45.4 41.15,36.4Q42.85,34.15 43.4,31.95 43.464,31.824 43.525,31.7 42.044,28.717 39.25,29.3 38.966,30.211 38.35,30.8 36.7,32.5 35,32.5 34.45,32.5 33.9,32.5 33.35,31.95 32.75,31.95 32.75,32.5 32.75,33.05 33.35,33.6 33.35,34.15 33.35,35.85 31.65,37.55 30.5,38.65 28.3,38.65 26.05,38.65 24.9,37.55 23.8,35.85 23.8,34.15 23.8,31.95 24.9,30.8 26.05,29.15 28.3,29.15 28.85,29.15 29.4,29.15 29.95,29.7 30.5,29.7 29.95,29.15 29.95,28.55 29.95,28 29.95,27.45 29.95,26.056 31.1,24.7 30.733,20.96 25.475,21.525 24.573,22.177 23.8,22.95 21.5,25.2 20.4,28.55 18.7,31.35 18.7,34.15 18.7,37 19.85,39.2 20.95,41.45 23.25,42.6 25.5,43.7 27.7,43.7 30.5,43.7 32.75,42.6 35,42 37.25,40.35L54.05,57.15Q54.05,57.7 54.65,57.7 55.2,57.7 55.75,57.7 56.3,57.7 56.85,57.15 57.45,57.15 58,56.05 58.55,55.45 58.55,54.9 58.55,54.35 58.55,53.8L52.4,47.6 54.65,45.4Q55.2,45.4 55.75,45.95 56.3,47.05 56.85,47.6 57.45,48.2 58,48.2 58.55,48.2 59.1,47.6 59.65,47.05 60.25,46.5L60.8,45.4Q60.8,44.8 59.65,43.7 58.55,42.6 57.45,41.45 55.75,39.8 54.65,38.65 53.5,37.55 52.95,37"/></g><g id="Scene 1_0.0"><path fill="#954676" d="M43.525,31.7Q44.55,29.574 44.55,27.45 44.55,24.65 43.4,22.4 42.3,20.1 40.05,19 37.8,17.9 35,17.9 32.2,17.9 29.4,19.55 27.201,20.305 25.475,21.525 26.693,25.605 31.1,24.7 31.344,24.397 31.65,24.1 32.75,22.95 35,22.95 36.7,22.95 38.35,24.1 39.5,25.75 39.5,27.45 39.5,28.495 39.25,29.3 40.189,32.298 43.525,31.7"/></g><defs/></svg>