<?xml version="1.0" encoding="utf-8"?><svg xmlns:xlink="http://www.w3.org/1999/xlink" id="Scene_1" image-rendering="auto" baseProfile="basic" version="1.1" x="0px" y="0px" width="20" height="30" viewBox="0 0 20 30" xmlns="http://www.w3.org/2000/svg"><g id="Scene 1_0.0"><g transform="matrix(0 -0.455 0.453 0 3.15 26.5)"><path fill="#fdb924" d="M44.5,1.05L44.45,1.05 25.25,20.25 6.05,1.05Q5,0.05 3.55,0.05 2.05,0.05 1,1.1 0.05,2.15 0.05,3.6 0.05,5.05 1,6.15L1,6.2 1.05,6.2 25.15,30.3 25.25,30.25 25.35,30.3 49.55,6.15Q50.6,5.05 50.6,3.6 50.6,2.1 49.55,1.05 48.5,0 47.05,0 45.55,0 44.5,1.05"/></g></g><defs/></svg>