<?xml version="1.0" encoding="utf-8"?><svg xmlns:xlink="http://www.w3.org/1999/xlink" id="Scene_1" image-rendering="auto" baseProfile="basic" version="1.1" x="0px" y="0px" width="200" height="80" viewBox="0 0 200 80" xmlns="http://www.w3.org/2000/svg"><g id="Scene 1_0.0"><path fill="#FFF" d="M178.15,30.3L178.05,30.2 177.85,30.45 177.9,30.5 178.15,30.3"/><path fill="#FFF" d="M81,12.35Q81.45,12.25 81.45,11.95L81.25,11.7 80,11.7Q77.95,11.7 74.8,12.4 73.95,12.85 73.75,13 72.25,13.6 72.2,13.65 71.9,13.85 71.9,14.4 71.9,14.5 72.2,14.8L72,14.9Q71.95,14.9 72,15.15 72.35,15.15 72.55,15.4L72.8,15.85 73.05,15.65 73.55,16.6Q73.55,16.4 73.8,16.4L74.7,16.65Q74.6,16.8 74.65,16.9 74.65,16.6 75.05,16.6 75.15,16.85 75.55,17.2 75.7,17.1 76.4,17.25 76.95,17.35 77.25,17.5 77.75,16.85 77.75,16.7L77.75,16.35Q76.6,15.35 76.55,15.15L76.95,14.5Q77.1,14.35 77.3,14.35L77.8,13.8Q79.1,13.15 79.9,12.8 80.35,12.75 80.4,12.75 80.4,12.5 80.5,12.4 80.55,12.4 81,12.35 M73.3,15.55L73.45,15.55 73.45,15.85 73.3,15.85 73.3,15.55"/><path fill="#FFF" d="M25.05,8.9L25.05,8.65Q24.85,8.65 24.7,8.7 24.4,8.6 23.85,9.1 23.55,9.8 23.5,10.05 23.6,10.85 23.4,11.25 23.05,12.15 23.05,12.35 23,12.85 23.05,13.15 23,13.3 22.8,13.6 22.8,13.95 22.95,14.2 22.45,15.7 22.25,17.05L21.85,18.15Q21.9,18.85 21.85,19.15L21.6,19.4 21.4,19.25Q21.55,19.25 21.45,18.9 21.35,19.55 20.95,20.3 21.15,20.3 21.35,20.55 21.3,20.55 21.2,20.75 21.1,20.65 20.85,20.55 20.85,20.75 20.7,21.45 20.5,22.15 20.5,22.3 20.5,22.55 20.6,22.7L20.35,23Q20,23.85 19.95,24.2 20.25,24.35 20.2,24.65 20.1,25.15 19.85,25.5 19.8,25.05 19.65,24.65 19.45,24.35 19.45,24.25L19.8,23.7Q20.1,23.25 19.8,23.05 19.7,23.1 19.8,23.3 19.25,24.4 19.25,24.6 19.25,24.8 19.55,25.1L19.65,24.9Q19.7,24.95 19.7,25.1 19.7,25.25 19.5,25.6 19.3,25.9 19.2,25.9 19.15,25.5 19.25,25L18.5,26.1Q18.65,26.35 18.5,26.55 18.75,26.55 19,26.8 18.7,26.4 18.65,26.25L18.8,26.1Q18.85,26.1 19.05,25.9 19.1,26 19,26.05 19,26.1 19.1,26.1 19.3,26.1 19.3,26L19.4,26.75 19.2,27.9Q19,27.65 19,27.3 19,27.05 18.65,27.05 18.35,27.05 18.65,26.8 18.65,26.4 18.4,27.15 18.2,26.9 18.1,26.9 18.2,27.15 17.95,27.55L17.75,27.5Q17.85,27.95 17.1,28.95 16.25,30.2 16.15,30.7 15.85,30.9 15.65,31.1 15.7,31.75 15.1,32.1 14.95,31.9 14.95,31.75 14.45,32.4 14.4,32.75L14.2,32.55Q13.1,33.65 12.8,33.65L12.35,33.65Q11.75,33.65 11.75,33.15L11.75,33.1Q11.6,33.2 11.45,33.2L11.1,32.2Q10.7,29.5 10.7,29.35 10.45,29.3 10.45,29.15 10.45,28.95 10.5,29.05L10.6,29.15 10.7,26.875 10.55,26.65 10.7,26.65Q10.3,26.1 10.3,25.65 10.45,25 10.5,24.85L10.35,22.95Q10.2,21.95 10.2,21.8L10.3,20.6Q10.45,19.65 10.45,19 10.5,19.05 10.6,18.75L10.5,18.3Q10.85,16.5 10.85,16L10.85,15 11.1,14.7Q11.1,14.25 11.1,14 11.15,13.55 11.5,13.2L11.4,13.1Q11.35,13.05 11.2,12.8 11.6,12.6 11.5,12.2L11.5,11.6 11.85,11.05 11.9,11.1Q11.95,11.2 12.05,11.2 12.3,11.2 12.3,10.95 12.4,10.1 12.8,9.85L13.35,7.85Q13.4,7.8 13.75,7.45 14.05,7.1 14.15,7.1 14.3,7.1 14.7,7.3 14.85,7.3 15.45,6.85L15.7,6.35Q15.9,5.85 15.9,5.7L15.65,5.2 15.5,4.15Q15.3,3.15 14.85,3.15 14.75,3.15 14.7,3.2L14.7,3.3Q14.694,2.946 14.35,2.7 14.25,2.65 13.55,2.25 13.3,1.95 12.65,1.3L12.35,1.25Q12.1,1.35 11.95,1.35 11.85,1.35 11.75,1.25 11.65,1.15 11.6,1.15L11.05,1.15Q11.15,1.3 10.95,1.5 10.8,1.35 10.55,1.35L10.1,1.65 10.1,2.15Q10.05,2.45 9.55,2.75L9.7,3.3Q9.5,3.9 9.5,4.4L9.05,5.45Q8.55,8.15 8.2,11.75 8.15,12.75 8.1,12.85L8.2,13.25 8.1,14.35 8,14.55 8,21.15Q8,21.3 8.2,22.1L8.2,23.5 8.4,25 8.3,25.4 8.6,26.65Q8.55,27.5 8.45,27.8L8.65,29.4Q8.85,29.45 8.85,29.5 8.8,30.1 9.2,30.35L8.95,30.85 9.15,31.25Q9.299,32.644 9.3,32.1 9.304,32.262 9.55,33 9.55,33.15 9.45,33.4 9.5,33.4 9.75,33.15 9.85,33.45 9.75,33.55L9.95,33.7Q9.85,34.25 10,34.55 10.2,34.85 10.8,35.35 11.3,35.8 11.4,36.4 11.95,36.6 13.15,37.5L13.55,37.15 13.65,37.3Q13.65,37.5 13.5,37.65L13.75,37.8 14.65,36.95 14.85,37.15 14.95,36.75Q15,36.75 15.25,36.9 15.7,36.9 16.3,35.8 16.35,35.6 16.4,35.55 17.6,34.45 17.6,34.15L17.85,34.2Q17.6,33.95 17.6,33.9 17.8,33.75 18.1,33.4L18.25,33.65Q18.6,33.5 18.75,32.55L18.55,32.75Q18.45,32.7 18.75,32.35L18.575,32.4Q18.75,32.337 18.75,32.15 18.55,31.7 18.55,31.5 18.55,31.15 18.85,31 19,31.25 18.8,31.7L19.45,30.8 19.6,30.95Q19.25,31.5 19.25,31.75 19.25,32 19.35,32 19.7,31.4 19.7,31.1L19.85,31.25Q19.6,30.5 20.15,30.2L20.15,29.85 19.75,29.85Q19.95,29.2 19.95,28.95L20.1,29.3 20.5,28.9Q20.3,28.9 20.3,28.85L20.2,28.65Q20.5,28.35 20.65,28.4L20.85,27.7Q20.65,27.7 20.5,27.55L20.7,27.15Q21.05,27.45 21.2,27.8 21.05,27.35 21.55,27.15 21.9,27.5 22,27.5L22.15,27.65 22,27.8Q21.85,29.05 22.35,29.55 22.25,29.95 22.35,30 22.6,30.45 22.65,30.85L22.95,31.2Q22.9,31.5 23.15,32.05L23.6,32.45Q23.65,32.8 23.9,33.15L25.25,34.7Q26.35,35.7 26.55,35.95L26.85,35.7 27.35,36.45Q27.35,36.15 27.6,36.15L27.95,36.2Q27.95,36.55 27.95,36.6L28.95,36.9 29,36.6Q29.1,36.7 29.1,36.9 29.15,36.5 29.5,36.3L29.65,36.4Q29.65,36.1 29.9,35.95 30.1,36.15 30.15,36.2 30.15,36 30.3,35.85L30.5,36.05 30.8,35.75Q31.05,35.7 31.1,35.3 31.15,34.95 31.15,34.85L31.4,35.05Q31.4,34.55 31.55,34.45L32.05,34.1 32.55,32.65Q32.2,33 32.05,33 32.05,32.8 32.2,32.4 32.4,32.05 32.4,32 32.65,32.05 32.7,32.15L32.65,32Q32.65,31.8 32.9,31.35 33.2,30.85 33.2,30.8L32.9,31.1Q32.6,30.85 32.5,30.8 32.55,31 32.05,31.3 32,31.6 31.8,31.75 31.65,31.2 31.55,31.15 31.2,32.25 30.65,32.2L31.1,31.6 31,31.35Q30.45,31.4 30.25,32L28.9,32.9Q28.2,33.15 27.55,33.15 27.35,33.15 26.95,32.75 26.25,31.6 26.15,31.35 26.15,30.75 25.7,29.15L25.45,29.2 25.3,29.05Q25.3,29 25.05,29.2 24.8,28.8 24.8,28.55 25.05,28.55 25.1,28.25 25.2,28.05 25.1,27.7L25.05,27.05Q25.3,26.8 25.35,26.65 25.4,26.5 25.25,26.3 25.25,26.4 25,26.5L25,26Q25.25,25.75 25.3,25.75 25,25.5 25,25.25 25.25,24.7 25.25,24.6 25.2,23.7 25.3,23.55 25.05,23.7 24.9,23.7L24.9,22.85Q25.25,22.35 25.1,22.2L25.05,21.7Q25.3,20.6 25.35,20.3L25.2,20.25 25.45,20 25.55,19.15Q25.55,19.1 25.4,19 25.2,18.85 25.2,18.8 25.45,18.7 25.55,18.4 25.15,17.95 25.4,17.6 25.9,16.8 25.95,16.35L26.05,15.4 26.2,15.2Q26.45,14.4 26.45,14.2L26.7,13.6Q27.1,12.2 27.25,11.9 28.25,10.85 28.25,10.75 28.25,10.6 28.15,10.3 28.05,10.05 27.95,9.95 27.85,9.8 27.55,9.55 27.2,9.25 27.1,9.25 26.95,9.35 26.8,9.35 26.55,9.35 25.05,8.9 M21.3,19.8L21.4,19.4 21.55,19.4 21.45,19.8 21.3,19.8 M21.05,22.2L20.9,22.2 21.05,21.95 21.15,22.05 21.05,22.2 M21.15,21.9Q21.3,21.9 21.5,21.7 21.5,21.95 21.3,22.1L21.15,21.9 M20.45,23.25L20.55,23.45 20.85,22.5Q20.6,23.5 20.4,24.1 20.2,23.85 20.45,23.25 M20.6,24.45L20.7,24.5 20.6,24.75 20.45,24.65 20.6,24.45 M21,23.6Q21.103,23.597 21.5,23.2 21.6,23.4 21.6,23.85 21.6,24.25 21.5,24.35L20.95,24.95Q21.05,25 21.2,24.85 21.25,24.85 21.55,25.25L21.2,25.25Q21,25.75 21.05,25.9 20.75,25.9 20.4,26.65 20.15,26.75 20.1,26.75 20.25,25.9 20.55,25.55 20.698,25.55 20.7,25.65L20.7,25.4Q20.7,25.25 20.5,25 20.7,24.85 21.35,23.85 21.4,23.601 21,23.6 M21.9,24.65L21.9,25.1 21.75,25.1 21.75,24.65 21.9,24.65 M9.85,20.85Q9.85,21.45 9.7,21.95 9.7,21.75 9.65,21.5L9.55,21.3Q9.55,21.25 9.85,20.85 M9.85,20.4L10.05,20.5 9.95,20.6 9.8,20.45 9.85,20.4 M10.1,23L10.1,23.35 9.95,23.35 9.95,23 10.1,23 M9.5,23.85L9.7,23.85 9.55,24.35 9.45,24.35 9.5,23.85 M18.75,27.45Q18.6,27.2 18.6,27.15 18.8,27.3 19,27.9L18.8,28.05 18.6,27.9Q18.6,28.05 18.45,28.85L18.05,28.95 18.05,28.45Q18.4,27.7 18.4,27.55 18.45,27.55 18.55,27.65L18.75,27.45 M19.85,27.15Q19.8,27.1 19.6,27.2 19.75,26.95 20.15,26.8 19.95,27.3 19.7,27.5 19.7,27.3 19.85,27.15 M17.3,30.35Q17.6,30.35 17.6,30.6 17.4,30.45 17.4,30.65 17.3,30.45 17.3,30.35 M17.25,29.95Q17.4,29.75 17.5,29.15L17.85,29.3 17.6,29.7Q17.5,29.95 17.25,29.95 M17.1,30.6L17.1,31.05Q16.85,31.25 16.8,31.45L16.55,31.35 16.85,30.55 17.1,30.6 M16.7,30.6L16.45,30.5 16.9,29.8 16.7,30.6 M19.9,28.25L19.9,28.8 19.7,28.8 19.7,28.25 19.9,28.25 M19.6,27.9Q20.15,27.8 20.05,27.2 20.25,27.85 20.15,28.2L19.6,28.15 19.6,27.9 M19.45,28.7L19.15,28.65 19.25,27.95Q19.45,28.55 19.6,28.8L19.45,28.7 M19.15,29.2L19,29.45 18.9,29.4 19,29.15 19.15,29.2 M18.65,30.1L18.35,30Q18.4,30 18.6,29.6 18.65,29.65 18.65,30.1 M19.15,30.25Q18.95,30.05 18.95,30L19.3,30Q19.25,30.2 19.15,30.25 M18.5,31.5L18.25,31.3 18.4,31.25 18.5,31.5 M18.1,30.95L18.35,30.7 18.35,31.05Q18.3,31.05 18.1,30.95 M17.95,31.9L18.3,31.5 18.3,31.9 17.95,31.9 M17.65,32.25L17.55,32.5 17.4,32.4 17.55,32.2 17.65,32.25 M17.3,32.95L17.3,33.45 17.15,32.95 17.3,32.95 M16.9,33.6Q16.8,33.5 16.5,33.5L16.95,33.4 17.05,33.85Q16.85,33.7 16.9,33.6 M16.25,34.7L16.05,34.45 16.15,34.35 16.4,34.6 16.25,34.7 M31.15,33.35L31.25,33.1 31.4,33.15 31.3,33.4 31.15,33.35 M31.9,33.9L31.45,33.9 31.9,33.55 31.9,33.9 M31.8,32.2L31.8,32.8 31.5,32.75Q31.55,32.65 31.8,32.2"/><path fill="#FFF" d="M30.5,36.55L30.5,36.4 30.15,36.4 30.15,36.55 30.5,36.55"/><path fill="#FFF" d="M25.6,27.95L25.45,27.95 25.35,28.3 25.45,28.3 25.6,27.95"/><path fill="#FFF" d="M25.8,28.8L25.65,28.8 25.55,29.05 25.65,29.05 25.8,28.8 M19.7,29.05Q19.7,29.5 19.35,29.95L19.1,29.75Q19.1,29.55 19.25,29.45L19.45,29.5 19.6,28.85 19.7,29.05"/><path fill="#FFF" d="M20.55,29.4L20.7,29.4 20.7,29.05 20.55,29.05 20.55,29.4 M19.7,29.05Q19.7,29.5 19.35,29.95L19.1,29.75Q19.1,29.55 19.25,29.45L19.45,29.5 19.6,28.85 19.7,29.05 M61.25,22.6L61.125,23.525Q60.989,23.609 60.85,23.7 60.4,24.35 59.85,25.4 59.45,25.6 59.2,26.25 59.1,26.35 59.2,26.4 58.7,26.85 58.85,27.15 58.7,27.15 58.65,27.1 58.65,27.15 58.65,27.3 58.45,27.3 58.45,27.4L57.45,28.55Q57.05,28.95 56.9,29.55 56.8,29.55 56.65,29.4 56,29.8 56,30.2L56.05,30.45Q55.15,30.95 54.7,31.6 53.7,32.65 52.85,32.85 52.75,32.65 52.75,32.3 52.75,31.75 53.45,30.2L54.35,28.15Q54.75,26.9 55.75,25.65 55.9,25.4 57.3,23.7 57.3,23.65 57.3,23.6 57.55,23.4 57.75,23.2 57.8,23.1 57.85,23.05 58.55,22.35 59.4,21.8 60.65,20.8 61.45,20.8L61.75,21.7 61.25,22.6"/><path fill="#FFF" d="M184.05,17.2L184.4,16.2 184.4,15.85Q184.25,16.35 184.25,16.2 183.8,17.55 183.7,18.1 183.35,18.75 183.25,18.8 183.45,18.75 183.75,18.1 183.85,17.6 184.05,17.2"/><path fill="#FFF" d="M184.3,15.6L184.65,15.6 184.8,15.35Q184.65,15.2 184.3,15.2L184.3,15.6"/><path fill="#FFF" d="M182.55,21.2L182.65,20.75 182.5,20.75 182.4,21.2 182.55,21.2"/><path fill="#FFF" d="M111.7,20.45L111.8,20.55 111.95,20.25 111.8,20.15 111.7,20.45"/><path fill="#FFF" d="M183.85,15.3Q184,14.8 184.25,14.7 184.45,15.15 184.55,15.1L185.15,13.75 184.65,13.2 184.2,13.05 183.6,12.4Q182.35,11.8 182.1,11.8 181.05,11.8 180.6,12.4 180.5,12.5 180.3,13.15 180.15,13.75 179.95,13.85L179.3,15.2 178.95,16.5Q179.05,16.8 179,16.95L178.35,18.2Q177.1,17.7 176.85,17.7L176.6,17.85 176.4,17.7 175.95,17.6Q175.75,17.75 175.6,17.75 175.15,17.6 175.1,17.6 175.1,17.75 174.95,17.85L174.9,17.75 174.95,17.95Q174.95,18.55 174.2,18.85L174.15,18.55Q173.25,20.05 173.1,20.2 173.15,20.4 173.05,20.55 173.05,20.45 172.9,20.45 172.75,20.45 172.55,20.8L172.3,21.8Q171.75,22.7 170.7,24.65 170.75,24.7 170.75,24.75L170.65,24.9Q170.5,25 170.45,25.1 170.4,25.1 170.35,25.1 170.35,25.2 170.35,25.25L169.7,26.15 169.45,26.35Q169.15,26.9 169.05,27 167.55,28.75 166.5,29.55 164.85,30.85 163.15,31.7 162.7,31.85 162.45,31.85 161.2,32.65 160.65,32.65 159.6,32.65 159.6,31.9 159.6,31.75 160.15,30.9L161.9,29.1Q162.7,27.95 162.85,27.55 163.45,26.85 164.2,25.5L164.45,25.1 165.3,23.25Q165.5,21.95 165.5,21.55 165.6,21.4 165.8,21.3L165.8,20.55Q165.2,20.2 165.05,19.8 162.6,18.4 162.45,18.4 162.3,18.5 162.1,18.5 162.05,18.5 161.9,18.4 161.8,18.3 161.75,18.3 160.7,19.25 159.55,20.8 159.15,21.3 158.85,22.2 158.65,22.8 158.25,23 158.1,23.7 157.85,24.35L157.6,24.5 157.55,24.9 157.5,25.1Q156.85,26.65 156.95,27.65 156.75,28.05 156.8,30.85 156.45,31.35 155.35,32.1L153.65,33.15Q153.35,33.35 153.2,33.4 152.6,33.4 152.6,32.3 152.6,32.15 152.9,30.9L153.1,29.7Q154.15,27.3 154.55,26.65 155.7,23.75 155.85,22.6L155.55,22.85Q155.85,22.55 155.85,22.35 153.8,19.45 147.6,17.45 146.35,17.05 146.5,17 146.4,17 146.35,17.1 146.3,17.25 146.25,17.25 146,17.25 145.85,17.15 145.85,17.5 145.6,18.05L145.95,18.05 145.7,18.3Q145.85,19.2 145.85,19.55 146,20.35 146.2,21.05L146.35,21.15Q146.5,21.3 146.5,21.4 146.5,21.65 146.2,22.05 146.4,23.5 146.4,24.75L146.4,25.5Q145.35,27.2 145.1,27.55 144.1,29.1 143.35,29.7 141.45,31.15 140.25,31.75 139.45,32 137.8,32.35 136.7,32.35 136.7,28.95 136.7,26.75 137.45,25.15 137.75,24.5 138.7,24.15 139.2,23.95 140.4,23.7 142.9,22.85 143.6,22.2 144.3,21.45 144.45,20.85 144.35,20.45 144.3,20.1 144.05,19.15 143.45,18.55L141.8,17.85Q140.35,17.7 139.9,17.5 139.6,17.35 139.5,17.35L139.1,17.35Q139.1,17.6 139,17.6L138.75,17.35Q138.25,17.35 138.1,17.4 137.25,17.65 137.15,17.55L137,17.75Q136.7,18.2 136.75,18.3 136.6,18.4 136.4,18.4 135.9,19.3 135.55,20.1 134.95,21.45 134.6,22.7 133.35,22.8 132.8,22.8L129.8,22.7Q127.85,22.7 127.85,24.15L128.05,26.35Q128.25,28.35 128.1,28.8 127.1,27.85 126.55,25.4 126.05,23.3 126.05,22.1 126.05,21.3 126.2,20.9 126.15,19.35 125.3,19.3 125.15,19.3 125,19.15L124.9,19.05 124.3,19.65Q123.9,19.25 123.5,19.5 123.2,19.65 122.75,20.3 122.65,20.7 122.65,21.2 122.7,21.4 122.75,21.6 122.55,21.55 122.35,21.55 122.15,21.55 122.15,21.8L120.9,21.7Q119.95,21.55 119.1,21.35 118.65,21.2 117.05,20.2 116.3,19 114.75,17.8 114.6,17.8 114.65,17.95 114.65,18.05 114.55,18.05L114.5,18Q114.2,17.8 114.05,17.8 113.8,17.8 113.25,18.2 113.05,18.5 112.95,18.75 112.85,18.85 112.6,18.9L112.6,19.2Q112.8,19.2 112.8,19.4L111.55,21.35Q111.45,21.3 111.45,21.05L110.45,23.25Q109.85,24.45 108.95,24.85L108.85,25.25 107.25,26.9Q107.1,27.15 106.9,27.15 106.9,27.65 106.75,27.8 106.1,28.15 105.75,28.45 105,29.45 104.15,30.1L102.55,31.3 102.2,31.75Q101.25,32.05 100.8,32.35 99.8,33.05 99.4,33.2 99.25,33.35 98.05,33.9 96.8,34.35 96.7,34.35 96.5,34.35 96.3,34.3 95,33.95 95,31.3L94.9,30.75 95.3,26.55Q95.2,26.4 95.2,26.1 95.2,25.9 95.55,24.9 95.95,23.75 96,23.05 96,22.35 96.3,21.65 96.35,21.55 96.4,21.45 96.35,21.45 96.3,21.4 96.2,21.3 96.1,21.05L96.75,19.75Q96.6,18.85 97.5,17.95 98.5,17.05 99.4,17.05 99.8,17.05 100.45,17.55 101.1,18.1 100.95,18.65 101.15,18.75 101.15,18.85 100.6,20.15 100.6,20.4L100.3,20.95Q100.7,20.55 101.05,20.55 101.2,20.55 101.25,20.7 101.3,20.8 101.4,20.8 101.7,20.8 102.95,19.45 103.25,18.5 103.5,17.1L103.65,17.05Q103.85,17.05 103.95,16.75L104,16.35Q104,15.35 102.1,14.55 102.1,15.05 102,15.1L101.6,15Q101,15 100.25,15.45 99.5,15.8 99.15,15.9 98.95,16.35 98.3,16.5L98.1,16.3Q97.6,16.45 97.5,16.65L97.6,16.85 97,17.65 97,17.15 96.3,17.6 96.25,17.6 96.3,17.65Q96.45,17.85 96.35,17.95L96.25,18.1Q95.35,18.65 94.8,19.8L93.9,21.8Q93.15,23.35 92.7,24.5 92.65,24.75 92,27.45 91.754,28.336 91.75,28.2 91.75,28.362 91.75,29.2 91.8,30.2 92,31.15 92.15,32.1 92.7,33.15L93,33.75Q94.8,35.4 95.5,35.75 95.85,35.95 96.3,36.1 96.95,36.25 97.75,36.25 99.5,36.25 102.25,34.75 103.9,33.9 104.5,33.35L105.95,31.95 106.35,31.35Q106.65,30.8 106.9,30.8L106.4,31.75 107.05,31Q107.55,29.95 107.7,29.95 107.9,29.95 107.95,30 107.8,30.4 107.8,30.6L108.45,29.85Q109.15,30.3 109.15,31.65 110.75,34.35 112.2,34.95 112.7,35.2 113.15,35.2 113.35,35.2 113.9,35.05 114.1,35 114.4,35.05L114.5,35.05 114.8,35.1Q114.95,35.1 115.4,34.85 115.95,34.55 116.05,34.55 116.5,34.05 116.55,33.65L116.95,33.6 116.9,33.25Q116.9,33.2 117.15,32.85 117.2,32.9 117.2,33.15 118.3,31.75 118.3,31.45 118.3,31.3 118.2,31.2 118.3,31.2 118.4,31.3 118.45,31.35 118.55,31.35 118.75,31.35 119.1,30.1 119.55,28.85 119.55,28.3 119.3,28.15 119.3,27.55 119.55,26.25 119.55,26.05 119.55,24.85 119.2,23.85 119.6,23.85 120.7,23.85 122.4,23.85 123.15,23.3 123.8,25.8 125.35,30.1L125.4,30.85 125.8,31.15Q127.5,34.6 129.05,34.65L129.25,34.85Q129.4,35.05 129.5,35.05 129.7,35.05 130.15,34.95 130.85,30.9 130.9,26.5 131.05,25.65 131.65,25.35 132.3,25.2 134.15,25.15 133.9,25.9 133.85,26.25 133.75,27.9 134.15,29.35 135.85,34.95 138.45,34.95 138.95,34.95 140.4,34.45 141.85,33.95 141.95,33.9 144.55,32.25 145.75,30.9 147.75,28.75 147.75,26.15 147.75,25.95 147.75,25.8 147.8,25.75 147.9,25.75 148.3,25.35 148.5,24 148.85,22.7 149.3,22.3 149.3,21.5 149.35,21.4 149.45,20.95 149.75,20.75 151.5,21.05 153.15,22.25 152.65,24.3 152.1,25.1 151.25,26.75 151.05,27.25L151.1,27.7 150.5,28.6 150.4,29.75Q150,30.9 150,31.15 150,32.05 150.5,32.95L150.95,34.05Q151.1,34.15 151.3,34.4 151.45,35.05 151.5,35.1 152.25,36 152.55,36 152.85,36 153.2,35.7 153.4,36 153.75,36 154.55,36 155.95,35.05 156.2,34.8 156.35,34.55 157.2,34.05 157.75,33.65 159.6,35.7 160.8,35.7L161.55,35.55 162.55,35.2Q164.5,34.55 166.4,32.8 167.55,31.85 168.75,30.4L168.55,31.5Q168.55,32.6 168.85,33.2 169.15,33.8 170.2,34.8 170.6,35.05 170.8,35.05L171.75,35.7Q171.85,35.7 172,35.55 172.097,35.598 172.1,35.825 172.104,35.55 172.25,35.55 172.4,35.55 172.4,35.8L174,35.2Q173.95,34.95 174.15,34.95 174.3,34.95 174.3,35.05 174.6,35.05 174.65,34.75 175.4,33.75 176,33.4 176.25,33.05 176.6,32.4 177.1,31.75 177.05,31.5L177.325,31.225 177.15,31.1Q177.6,30.25 177.9,29.85 178,30.1 178.4,30.1L178.15,29.85 178.3,29.7Q178.65,29.35 178.85,29.3 179.3,29.75 179.4,29.95 180.2,31.1 181.4,31.85 182.6,32.55 183.45,32.5L183.85,32.7Q183.9,32.7 184,32.6 184.1,32.5 184.15,32.5 184.4,32.5 184.4,32.75 184.75,32.5 184.9,32.5 185,32.5 185.05,32.6 185.15,32.7 185.25,32.7 185.4,32.7 186.05,32.5 186.55,32.5 188.15,31.2 189,30.55 189.5,29.95L191,27.9Q191,27.7 191.4,26.8 191.7,26.25 191.7,25.65L191.55,24.75Q191.35,24.5 191.15,24.5 189.35,27.3 186.15,29.5 186.2,29.65 186.15,29.7L185.1,30.25Q184.4,30.6 184.15,30.6L182.75,30.65Q182.4,30.65 181.85,30.2 181.35,29.75 181.3,29.45 180.8,27.05 180.8,26.15 180.8,25.55 180.85,25.1 180.95,24.15 181.25,23.75 181.15,23.75 181,23.6L181.1,23.45 181.2,23.7Q181.45,23 181.4,23L181.3,22.85 182,21.4Q182.15,21.55 182.2,21.7 182.2,21.3 182.05,21.4 181.95,21 182.45,20.45L182.95,19.8 182.85,19.8 182.75,19.65Q183.15,19.15 183.15,19L183.1,18.8 183.95,15.45Q183.85,15.4 183.85,15.3 M17.25,29.95Q17.4,29.75 17.5,29.15L17.85,29.3 17.6,29.7Q17.5,29.95 17.25,29.95 M17.1,30.6L17.1,31.05Q16.85,31.25 16.8,31.45L16.55,31.35 16.85,30.55 17.1,30.6 M16.7,30.6L16.45,30.5 16.9,29.8 16.7,30.6 M18.65,30.1L18.35,30Q18.4,30 18.6,29.6 18.65,29.65 18.65,30.1 M184.2,14.6Q184.448,14.598 184.45,14.5 184.45,14.8 184.4,14.8 184.4,14.604 184.2,14.6 M176.85,31.85L176.7,32.1 176.6,32.05 176.7,31.85 176.85,31.85 M185.7,30.95Q185.7,31.1 185.9,31.35L185.85,31.35 185.65,31.45 185.7,30.95 M162.75,23.2Q162.75,24 162.2,25.1L162.15,25.15Q161.4,26.4 160.95,27.05 159.9,28.15 159.5,28.45L159.5,27.95Q159.45,27.75 160.4,25.1 160.6,24.35 160.9,23.5 161,23.5 161.55,22.55 162,21.75 162.5,21.8 162.75,22.7 162.75,23.2 M177,20.25L177.55,20.25Q177.55,21.3 177.6,21.3L177.85,22.25 177.85,23.1Q177.9,23.3 178.15,24L177.95,24.2Q178.05,24.6 178,25.1 178,25.4 177.9,25.8 176.15,28.4 175.95,29.05L175.6,29.15Q175.5,29.55 175.45,29.6L172.75,32.2Q172.4,32.2 172.25,32.55 171.7,32.4 171.7,32.1 171.7,31.45 172.6,28.25 172.9,27.7 172.9,27.5 172.9,27.05 173,27 173.45,26.5 173.45,26.4 173.7,25.75 174.05,25.1 175,23.1 176.4,21.2 176.5,20.95 176.55,20.7 176.85,20.65 177,20.25 M141.5,20.65Q139.5,21.35 138.95,21.65L138.55,21.65 138.55,21.3Q138.55,21 139.2,20.1 139.4,19.85 139.6,19.55 139.85,19.3 140.25,19.3 140.5,19.3 140.95,19.9 141.05,20 141.1,20.1 141.3,20.35 141.5,20.65 M114.7,22.75Q114.7,22.85 115.1,23.5 115.4,24 115.4,24.2L115.4,24.4Q115.2,24.5 115.5,24.5 115.6,24.5 115.6,24.45 115.6,24.35 115.65,24.35 115.75,24.35 115.95,24.6 116.15,25.1 116.3,25.25L116.1,25.5 116.65,25.65Q116.5,26.1 116.7,27.2L116.8,27.3 116.8,28.3 116.65,28.25Q116.65,28.95 116.25,29.6L115.5,30.75Q115.1,31.35 114.5,31.85 113.75,32.45 112.7,32.85 112.4,32.4 112.25,31.95 112.65,31.4 112.65,31.2 112.65,31.1 112.45,31 112.25,30.9 112.25,30.85 112.25,30.75 112.35,30.65L112.4,30.55Q112.25,30.05 112.25,29.85 112.4,28.2 113.1,26.05L114.3,22.75 114.7,22.75 M61.25,22.6L61.125,23.525Q60.989,23.609 60.85,23.7 60.4,24.35 59.85,25.4 59.45,25.6 59.2,26.25 59.1,26.35 59.2,26.4 58.7,26.85 58.85,27.15 58.7,27.15 58.65,27.1 58.65,27.15 58.65,27.3 58.45,27.3 58.45,27.4L57.45,28.55Q57.05,28.95 56.9,29.55 56.8,29.55 56.65,29.4 56,29.8 56,30.2L56.05,30.45Q55.15,30.95 54.7,31.6 53.7,32.65 52.85,32.85 52.75,32.65 52.75,32.3 52.75,31.75 53.45,30.2L54.35,28.15Q54.75,26.9 55.75,25.65 55.9,25.4 57.3,23.7 57.3,23.65 57.3,23.6 57.55,23.4 57.75,23.2 57.8,23.1 57.85,23.05 58.55,22.35 59.4,21.8 60.65,20.8 61.45,20.8L61.75,21.7 61.25,22.6"/><path fill="#FFF" d="M89.15,18.55L88.9,18.25Q88.35,17.4 88.35,17.25 86.95,15.75 86.4,15.45L86.25,15.15Q85.5,14.5 85.35,14.5 84.85,14.5 84.35,14.95 83.05,15.95 82.2,16.85L81.8,17.05 80.65,18.35Q80.15,19.05 80.1,19.2 79.8,19.9 79.8,21.65 79.8,21.8 79.7,22.1 79.7,22.3 80,23.85 80.05,23.95 80.15,24 79.95,24.3 79.75,24.75 78.5,26.45 78.45,26.55 78.1,27.05 78.1,27.3 77.75,27.65 77.6,27.65 77.5,28 77.35,28.15L76.7,28.8 76.2,29.45Q75.95,29.85 75.4,29.95L75.2,30.75Q75.15,30.75 74.9,30.45 73.65,31.4 73.1,31.4L72.3,31 72.05,30.45Q71.9,30.1 71.9,29.75 71.9,29.35 72.05,29.1 71.85,29.1 71.85,28.9 72.15,27.9 72.25,27 72.65,25.05 72.4,24.2 72.75,23.75 72.75,23.6 72.75,23.1 72.65,23.1 72.2,22.8 70.6,22.8 70.55,22.8 70.5,22.9 70.45,23 70.35,23 69.7,23 69.6,22.85L67.95,25.9Q68.25,25.9 68.3,25.9L67.7,26.25Q67.2,27 66.85,27.65 66.4,28.5 65.95,28.85 66.1,29.65 65.35,29.8 65.2,30.4 64.9,30.55 64.9,30.45 64.85,30.35 64.85,30.25 64.75,30.25 64.7,30.35 64.55,30.35L64.1,29.8Q63.8,27.9 63.8,26.9L63.9,25.9Q63.9,24.95 64.1,23.7 64.1,23.65 64.1,23.6 64.2,23.35 64.25,23.05 64.45,22.45 64.65,22.05 64.8,21.8 65,21.8 65.5,22.15 65.75,22.2 65.9,22.05 65.9,21.9L65.45,19.8Q65.45,18.95 65.95,17.5 66.35,16.55 66.65,16.1 66.75,15.6 66.7,15.5 67.55,14.65 67.75,14.3 67.55,14.15 67.55,14.05 67.25,14.05 67.15,13.95 67.35,13.9 67.35,13.65 67.35,13.4 67.15,12.8L67.15,12.4Q66.4,12.4 66.65,12.3 65.8,12.4 65.4,12.4L65,12.25Q64.9,12.25 64.8,12.35 64.7,12.45 64.6,12.45 64.55,12.45 64.4,12.35 64.3,12.25 64.2,12.25 64,12.25 64,12.3 63.5,12.95 63.45,13.25 62.4,17.8 62.3,18.1L62,18.15Q60.9,18 60.45,17.75 60.25,17.75 59.6,18L59.35,17.75Q59.35,18.1 59.2,18.25L58.75,18.15Q58.25,18.15 57.75,18.65 56.55,19.75 55.4,20.95L55,20.95Q54.85,21.35 54.75,21.65 54.65,21.7 54.6,21.8 54.6,21.85 54.45,22.1 54,22.8 53.7,23.05 53.7,23.1 53.65,23.1 53.35,23.4 53.25,23.7 53.15,23.85 53.1,24 53,24.1 52.95,24.25 52.1,25 51.95,25.35 51.85,25.5 51.85,25.6 51.8,25.7 51.7,25.8 51.55,26.1 51.55,26.15L47.6,29.7Q46.7,30.45 46,30.6 44.8,31.3 44.7,31.3 44,31.3 43.95,28.65L44,28.3Q44.2,25.5 44.3,25.1L44.55,24.25Q45,21.9 45,21.55L44.7,19.55Q43.5,18.95 43.55,18.9 42.55,19.15 42.35,19.15 42.15,19 42.05,19 41.7,19 41.45,19.25L40.4,21.15 40.2,21.2Q40.2,21.45 39.9,22.1 39.6,22.7 39.6,22.95L39.25,23.2Q39.1,23.6 39,23.75L38.35,25Q37.9,25.8 37.5,26.1 37.3,26 37.25,25.9L37.5,25.35Q37.7,24.05 37.7,23.2 37.7,22.15 37.25,21.95L36.8,21.85Q36.25,21.4 36.05,21.05 35.5,20.85 35.25,20.85L34.7,20.95Q34.35,23.55 34.2,26.75 34.25,26.8 34.2,30.6L34.3,30.75 34.55,33.15Q34.7,33.3 34.75,33.4L34.7,33.9Q36.1,35.65 36.25,35.65 36.55,35.65 36.7,35.5 36.75,35.65 36.7,35.75 37.25,36.15 37.3,36.15L37.6,36.15Q37.9,35.45 38.15,35.2 38.65,33.4 38.65,32.8 38.45,32.45 38.5,32.3 38.55,32.3 38.65,32.4 38.8,32.4 38.9,31.9 39,31.4 39,31.35 39,30.85 39.25,30.2L39.8,28.95 39.65,28.55Q40.2,26.8 40.55,26.15L41.45,24 41.55,24Q41.8,24.6 41.8,25.15 41.8,25.3 41.65,25.6L41.65,26.8Q41.65,26.95 41.45,27.6 41.45,27.65 41.65,28.3L41.65,28.95 41.95,30.25Q42.9,32.45 43.55,33.05L44,33.65Q44.95,34.3 45.5,34.3L46.05,34.3Q46.95,34.3 47.8,33.75 48.6,33.4 49.8,32.2 49.9,32.1 50,32.05 50,32.85 50.3,33.3 51.2,34.4 52.2,34.8 52.7,35.3 52.75,35.3 53.1,35.55 53.5,35.55L54.25,35.2Q54.85,34.95 56.55,33.3 56.65,33.15 56.65,33L57.75,32.15Q58.55,31.2 58.55,30.6 58.8,30.35 58.9,30.35L59.15,29.45 60.75,27Q60.75,26.6 60.8,26.4 60.85,25.9 61.2,25.9 61.5,26.25 61.6,26.5 61.65,26.75 61.55,27.15 61.75,28.15 62.15,29.7L62.9,30.85Q63.2,31.4 63.35,31.4 63.5,31.4 63.55,31.35 64.45,32.5 64.9,32.5 65,32.5 65.45,32.7L66.65,32.55Q66.85,32.55 68.7,30.2L68.5,30.35Q68.3,30.2 68.3,30.1L68.95,29.7 69.2,29.7Q69.85,31.4 70.35,32.25L70.95,32.5 71.95,33.35Q72.85,34 73.25,34 73.45,34 73.65,33.85 73.75,33.85 73.75,33.95 73.75,34 73.8,34 73.95,34 74.55,33.65 74.6,33.65 74.65,33.7L74.75,33.7Q75.05,33.7 75.85,33 77.6,32.05 79.9,28.2 79.9,28.05 79.9,27.9L80.6,26.4Q80.9,25.75 81.05,25.3 81.95,26.35 83,26.95 84.45,27.9 85.5,29.3 86.5,30.6 86.5,31.45L86.4,31.85Q86.35,32.05 86.4,32.3L85.35,32.85Q84.35,33.75 84.2,33.75 84.1,33.75 84,33.85L83.95,33.9Q84.15,33.9 84.2,33.95L82.55,35.1Q82.3,35.95 82.3,35.85 82.3,36.15 82.75,36.15L82.9,35.65Q83.05,35.8 83.05,35.95 83.45,35.75 83.5,35.7 83.45,36.05 83.05,36.6L83.75,36.3 85.35,37.15 85.7,37.15Q85.7,37.1 85.6,36.95L85.5,36.8 86.55,37.1 86.65,36.8 86.75,37Q86.75,36.8 86.8,36.7L86.9,36.85Q86.9,37 87,37 87.2,37 87.7,36.9 88.35,36.9 88.45,36.35 88.55,35.45 88.8,35.05L88.8,32.05Q87.75,28.95 87.2,28.35 85.9,26.1 84.65,25.15 83.95,24.65 83.1,23.7 82.2,22.6 82.35,22.1L83.8,20.75Q85,19.9 85.35,19.9 85.45,19.9 85.4,20 85.4,20.05 85.5,20.05 85.65,20.05 86.25,19.65 86.45,19.65 87.65,19.95L87.95,19.9Q88.2,19.8 88.3,19.9 88.3,19.5 88.5,19.1 88.85,18.75 89.15,18.55 M21.05,22.2L20.9,22.2 21.05,21.95 21.15,22.05 21.05,22.2 M9.85,20.85Q9.85,21.45 9.7,21.95 9.7,21.75 9.65,21.5L9.55,21.3Q9.55,21.25 9.85,20.85 M10.1,23L10.1,23.35 9.95,23.35 9.95,23 10.1,23 M19.15,30.25Q18.95,30.05 18.95,30L19.3,30Q19.25,30.2 19.15,30.25 M18.2,32.4Q18.2,32.55 17.65,33.1 17.65,32.9 17.45,32.9L17.6,32.65Q17.75,32.75 17.85,32.75 18.1,32.15 18.1,32L18.2,32.4 M83.2,34.7L83.45,34.55 83.5,34.7 83.2,34.8 83.2,34.7 M76.55,31.5L76.7,31.6 76.55,31.75 76.45,31.6 76.55,31.5 M61.25,22.6L61.125,23.525Q60.989,23.609 60.85,23.7 60.4,24.35 59.85,25.4 59.45,25.6 59.2,26.25 59.1,26.35 59.2,26.4 58.7,26.85 58.85,27.15 58.7,27.15 58.65,27.1 58.65,27.15 58.65,27.3 58.45,27.3 58.45,27.4L57.45,28.55Q57.05,28.95 56.9,29.55 56.8,29.55 56.65,29.4 56,29.8 56,30.2L56.05,30.45Q55.15,30.95 54.7,31.6 53.7,32.65 52.85,32.85 52.75,32.65 52.75,32.3 52.75,31.75 53.45,30.2L54.35,28.15Q54.75,26.9 55.75,25.65 55.9,25.4 57.3,23.7 57.3,23.65 57.3,23.6 57.55,23.4 57.75,23.2 57.8,23.1 57.85,23.05 58.55,22.35 59.4,21.8 60.65,20.8 61.45,20.8L61.75,21.7 61.25,22.6"/><path fill="#FFF" d="M168.25,48.25Q168.35,48.45 168.25,48.7L168.2,49.15 167.85,49.15 167.75,49.05 167.75,50.1 167.85,50.45Q167.65,51 167.45,51.2 167.45,53.15 167.55,53.75 167.35,55.2 167.35,55.9 167.35,56 167.3,56.35L167.35,56.8Q167.4,57.3 167.35,57.4 167.55,57.3 167.55,57.55 167.35,58.45 167.35,58.75L167.5,59.1Q167.45,59.55 167.45,59.6L167.75,59.95Q167.75,62.5 167.7,62.55 167.15,62.5 166.5,62.75 166.55,62.75 166.35,63L166.1,62.8 165.7,63.15Q165.7,63 165.5,63 165.45,63 165.45,63.1 165.45,63.15 165.35,63.15 165.2,63.15 165.35,63L164.1,63.4 163.95,63.25Q163.6,63.6 163.5,63.6 163.5,63.75 163.3,64.3L163.3,64.4Q163.45,64.45 163.5,64.65L163.45,64.9Q163.6,65.25 163.6,65.4 163.6,65.55 163.45,65.7 164.95,66.55 165,66.95L166.25,67.05Q166.55,67.05 168,66.95 168.15,68 168.5,68.85 168.8,69.75 168.75,70.35 169,70.55 169.15,71 169.35,71.65 169.45,71.85 170.1,73 170.3,73.15 170.6,73.45 170.95,73.75 170.95,73.65 171.15,73.5L171.4,73.6Q171.4,73.749 171.25,73.75 171.401,73.752 171.5,73.95L172.5,73.5Q173,72.85 173.25,72.3 173.1,72.6 172.8,72.7 172.7,72.6 172.8,72.6 173.3,71.55 173.3,71.45 173,71.5 172.85,71.45L173.25,70.65 173.2,70.55 173.45,70.3Q173.5,69.95 173.5,69.7 173.35,69.75 172.7,70.7 172.3,71.45 171.9,71.6 171.75,71.45 171.65,71.45 171.65,71.55 171.5,71.7L171.4,71.6Q170.9,71 171.3,70.3 171.2,70.35 170.95,70.1L170.8,70.2Q170.95,69.9 170.95,69.85L170.7,69.25Q170.7,68.85 170.9,68.45L170.65,68.4 170.6,66.9 170.95,67.45Q171.25,66.65 171.6,66.45 171.75,66.4 172.1,66.4 172.45,66.3 173.4,65.75 173.55,65.75 173.55,65.8 173.7,65.8 173.9,65.5L174.35,65.4Q174.55,65.4 174.55,65.45L175.45,65.25Q176.2,64.9 176.4,64.9L176.8,64.8Q177,64.9 177.15,64.85 177.4,64.3 177.75,64.25 177.5,64.25 177.6,64.1L178.35,64.1Q178.5,64.1 178.7,63.85 178.7,63.602 178.65,63.6 178.75,63.601 178.85,63.75 179,63.85 179.05,63.85L179.5,63.75Q179.6,63.75 179.85,63.55 180.1,63.35 180.2,63.35 180.25,63.35 180.3,63.35 180.55,63.2 180.85,63.05L181.2,63.05Q181.55,62.75 182.1,62.8 181.95,62.65 181.75,62.65 181.4,62.65 181.3,62.5L181.4,62.3 181.6,62.55Q181.6,62.3 181.8,62.3 181.5,62.1 181.3,62.25 181.2,62.15 181.35,62L180.7,62.3Q180.45,62.3 180.4,62.3 180.4,62.2 180.55,62.1 180.8,62.1 180.85,62.05L180.8,61.8 179.5,61.75 180.2,61.25Q179.551,61.15 178.65,61.15 178.746,61.152 178.2,61.4 178,61.15 177.6,61.15L176.5,61.25 176.25,61.25Q175.75,60.95 175.25,60.95 175.15,60.95 174.85,61.15 174.6,61.4 174.55,61.4 174.35,61.1 174.1,61.1 173.85,61.1 172.55,61.35L170.95,61.6Q170.25,61.6 170.55,61L170.35,60.9 170.6,60.6Q170.5,59.55 170.55,56.15 170.3,56.05 170.25,56 170.5,55.9 170.5,55.35L170.5,54.5Q170.8,53.05 170.8,52.5 170.95,51.95 170.9,51.75L172.1,51.05Q171.95,51.05 171.85,50.8 171.8,50.5 171.8,50.45 171.4,49.85 171.4,49.65 171.4,49.6 171.45,49.6L171.1,49.45Q171.1,49.35 171.2,49.3 171.05,48.95 170.4,48.8L170.15,48.95 170,48.8Q170.15,48.65 170.25,48.65 170.1,48.5 169.9,48.5 169,48 168.85,47.95 168.75,48.25 168.25,48.25 M168,49.3L168.1,49.45 167.85,49.55 167.85,49.45 168,49.3 M179.2,62.1L179.45,62.15 179.2,62.25 179.2,62.1 M178.9,62.4L179.2,62.4Q179.6,62.65 179.45,62.65L178.9,62.4 M176,62.1L176.25,62 176.35,62.25Q176.15,62.25 176,62.1 M119.05,71.7L118.9,71.6 119.05,71.35 119.15,71.4 119.05,71.7 M98.25,60.95L98.4,60.6 98.6,60.6 98.4,61 98.25,60.95 M87.95,62.55L87.65,62.65 87.65,62.55 87.9,62.4 87.95,62.55 M30.85,65.75L30.85,66 30.7,66 30.7,65.75 30.85,65.75 M30.7,67.05L30.55,66.95 30.6,66.75 30.8,66.8 30.7,67.05"/><path fill="#FFF" d="M171.15,67.95L171.05,67.55Q170.95,67.75 170.85,68.05L171.15,67.95"/><path fill="#FFF" d="M173.2,73.75L172.3,74.05Q172.3,74.3 172.7,74.3 172.8,74.3 173.2,73.75"/><path fill="#FFF" d="M108.55,47.75Q109.6,46.45 110.5,46L112.1,45.1Q113.3,44.35 113.85,44.35 114.3,44.35 114.85,44.75 115.05,45.45 115.1,45.55 114.95,45.75 114.95,45.9 115.45,46.2 115.45,46.25L114.95,46.65Q115.4,46.65 115.35,46.9L115.15,47.2 114.85,47.05 115,47.4Q114.75,48.4 114.85,48.85 114.45,49.9 114.05,50.1L113.9,49.9Q113.35,51.35 112.95,53.2 113.15,53.45 113.05,53.5L112.95,53.65 113.35,56.6Q113.4,57.25 113.9,57.25 114.1,57.25 114.3,57.15 114.5,57.15 115,57.45 115.6,56.9 116,56.55 116.3,55.6 116.3,54.95 116.3,54.55 116.1,54.35L116.3,52.25Q116.8,51.15 116.75,51 116.6,50.85 116.6,50.75 117.15,48.1 117.1,47.6L117.1,46.6Q116.85,46.65 116.85,47L116.85,47.55Q116.45,49 116.35,49.25 116.3,49.45 116.05,49.45L115.85,49.3Q116.35,48.05 116.35,47.55 116.35,47.3 116.2,47.3 116.2,47.65 115.95,47.65 116.2,45.6 116.3,45.4 116.2,45.25 115.95,44.95L116,44.75Q115.8,43.7 114.3,43.7 113.55,43.7 111.25,44.6 111,44.75 110.7,44.95L109.95,45Q108.75,45.35 108.1,45.75 105.2,47.8 104.25,48.65 104.05,48.8 103.85,49.2 103.45,49.35 103.1,49.95L102.55,50.7Q100.95,52.4 99.75,53.35 99.55,53.8 99.55,54.05 97.8,56.3 97.8,56.8L97.95,57.3Q98.2,57.5 98.35,57.7 97.95,58.1 97.8,58.4 98,58.4 97.95,58.55 97.3,59.9 97.1,60.9 96.4,62.95 96.45,63.5L96.55,65.25 96.3,65.55 96.3,66.8 96.85,66.65Q96.85,67 96.8,67.3 96.85,67.2 96.95,67.1L97.1,67.3Q97.1,67.5 96.85,67.6 97.1,68.1 96.95,68.3L96.6,68.1 97.1,68.7 97.2,69.6 97.35,69.45 97.35,68.5 97.75,68.7Q97.55,67.85 97.25,67.15 97.35,66.85 97.45,66.75 97.2,66.35 97.2,66.3 97.2,64.55 96.8,64L96.95,63.85 97.2,63.9Q97.2,63.6 97.25,63.6 97.7,64.4 97.75,64.9L97.75,65.8Q97.75,66.5 98,66.5L98.1,66.5Q98.15,66.5 98.1,66.55L98.1,66.65Q97.7,67.2 97.7,67.65 98.4,68.2 98.5,68.3 98.5,68.35 98.65,68.7 98.85,68.95 98.85,69.05 98.85,69.35 98.75,69.35L98,68.95Q97.95,69.75 98.35,70.65 98.35,70.8 97.85,70.8L99.1,72.45Q99.75,72.9 99.9,73 99.9,73.75 100.35,73.75 100.5,73.75 100.55,73.7 100.75,73.7 101.05,74.05 101,74.25 101.2,74.9 101.25,74.9 101.55,74.85 101.75,74.85 102.25,75.4 102.25,75.45 102.65,75.45 103.05,75.55 103.15,75.75L103,76Q103.35,76 103.8,76.25L104.25,76.5 104.4,76.45Q104.4,76.4 104.5,76.4 104.85,76.4 104.65,76.8 104.95,76.6 105.6,76.6 105.8,76.6 105.95,76.8 105.85,76.6 106.25,76.6L106.4,76.6 106.45,76.65 106.4,76.65Q106.8,76.9 107.45,76.75 107.8,77.15 107.9,77.15L108.25,77.15 108.55,76.6Q108.95,77.05 108.9,77.25 109.25,76.9 109.55,76.75 109.75,77 109.8,77.15 109.8,76.95 109.9,76.95 110.05,76.95 110.1,77.05L110.2,77.15Q110.4,77.15 110.75,76.8L110.95,77Q111,77 111.15,76.75 111.25,76.55 111.35,76.5L111.75,76.8Q111.75,76.65 112,76.4L112.15,76.5Q112.2,76.6 112.35,76.6L112.7,76.6 112.75,76.4 112.9,76.6Q113.25,76 113.3,75.8 113.8,75.85 114.1,75.8L114.1,76.15Q113.85,76.3 114,76.5 114.2,76.05 114.6,76 115.55,75.8 115.95,75.65 116.15,75.15 116.85,74.65L118,73.85Q118.95,73 119.5,72.35L119.05,72.35 120.45,71 120.15,71.75Q120.9,71.1 120.8,70.8 120.8,70.95 120.7,70.95 120.65,71.1 120.55,70.95 120.8,70.6 120.8,70.15 120.7,70.2 120.2,70.7 119.75,71.15 119.55,71.2 119.6,71.2 119.35,71.45L119.15,71.25Q119.5,70.8 120,70.3 118.6,71.65 115.3,72.8 111.6,74.1 109.45,74.1 108.6,74.1 107.05,73.45 105.5,72.75 105.05,72.25L104.75,72.15Q104.55,71.95 104.5,71.8 103.75,71.3 103.35,70.2L102.75,68.45Q103.05,68.45 102.65,67.7 102.85,67.45 102.9,67.45 102.8,67.4 102.5,67.15L102.5,66.2 102.85,64.75 102.75,64Q103,62.9 103.15,62.65 103.45,58.85 103.65,58.25 104.2,55.65 104.8,54.15 105.1,53.5 105.35,53.2 106.25,50.7 106.65,50.15L106.7,49.85 108.55,47.75 M116.35,49.95L116,50.5 115.85,50.4 116.2,49.95 116.35,49.95 M113.95,50.25L114.1,50.15 114.25,50.3 114.1,50.4 113.95,50.25 M119.05,71.7L118.9,71.6 119.05,71.35 119.15,71.4 119.05,71.7 M99.5,54.85L99.5,55.35 99.35,55.35 99.35,54.85 99.5,54.85 M100,56.3Q100.15,56.2 100.35,56.3L100.65,56.35Q100.65,56.6 100.4,56.8L100,56.3 M98,60.25L97.85,60.65 97.75,60.6 97.85,60.25 98,60.25 M98.25,60.95L98.4,60.6 98.6,60.6 98.4,61 98.25,60.95 M98.45,61.35L98.35,61.65 98.15,61.55 98.25,61.3 98.45,61.35 M98.95,60L98.85,59.95 99.15,59.2 99.35,59.2 98.95,60 M97.7,64.15L97.7,62.55 97.95,63.2 98,63.2Q97.9,63.85 97.7,64.15 M98.4,66.15L98.6,66.2 98.4,66.5 98.25,66.4 98.4,66.15 M100,72.55L100.55,72.6Q100.55,72.9 100.4,73.05 100,72.65 100,72.55 M115.95,74.9L116.1,75.1 115.95,75.2 115.85,75.05 115.95,74.9 M115.5,75.45Q115.15,75.15 115.15,74.95 115.25,75.1 115.5,75.1L115.5,75.45 M104.25,75.85L104.1,76.25 103.9,76.15 104.15,75.8 104.25,75.85 M106,76.5L105.9,76.4 106.2,76.2 106.25,76.25 106,76.5 M101.65,74.45Q101.9,74.45 101.9,74.6 101.95,74.7 101.9,74.75L101.75,74.85Q101.65,74.7 101.65,74.45 M46.35,47.2L46.25,46.9 46.35,46.9 46.35,47.2 M41.85,69.35L41.7,69.35 41.7,68.95 41.85,68.95 41.85,69.35 M65.6,69.35L65.45,69.35 66.1,68.55Q66.35,68.15 66.75,67.95 67,69.2 67.05,69.7 67.05,70 66.95,70.3 66.85,70.45 66.8,70.55 66.55,70.95 66.2,70.95L65.4,71.05Q65.3,71.05 65.05,70.85 64.85,70.65 64.8,70.6 64.85,70.45 64.9,70.3 65.1,69.9 65.6,69.35"/><path fill="#FFF" d="M120.05,71.7L119.9,71.6 119.5,72.1 119.55,72.2 120.05,71.7 M119.05,71.7L118.9,71.6 119.05,71.35 119.15,71.4 119.05,71.7"/><path fill="#FFF" d="M83.9,61.25L83.65,61.25Q83.2,60.95 82.6,60.95 82.5,60.95 82.3,61.15L82,61.4Q81.8,61.1 81.5,61.1 81.25,61.1 79.9,61.35L78.35,61.6Q77.6,61.6 77.95,61 77.85,61 77.7,60.9L77.95,60.6Q77.85,59.45 77.95,56.15 77.7,56.05 77.65,56 77.85,55.9 77.85,55.35L77.85,54.5Q78.2,52.9 78.2,52.5 78.35,52 78.3,51.75L79.5,51.05Q79.3,51.05 79.25,50.8 79.25,50.5 79.15,50.45 78.8,49.85 78.75,49.65 78.75,49.6 78.85,49.6L78.45,49.45Q78.45,49.35 78.6,49.3 78.35,48.95 77.75,48.8L77.55,48.95 77.35,48.8Q77.5,48.65 77.6,48.65 77.45,48.5 77.3,48.5 76.4,48 76.25,47.95 76.15,48.25 75.7,48.25 75.75,48.45 75.7,48.7L75.6,49.15 75.3,49.15 75.2,49.05 75.2,50.1 75.25,50.45Q75.05,51 74.85,51.2 74.85,52.5 74.95,53.75 74.8,54.95 74.8,55.9 74.8,56 74.7,56.35 74.7,56.5 74.8,57.4 74.95,57.35 74.95,57.55 74.8,58.4 74.8,58.75L74.95,59.1Q74.85,59.45 74.85,59.6L75.2,59.95Q75.2,62.45 75.1,62.55 74.55,62.5 73.9,62.75 73.95,62.75 73.7,63L73.45,62.8 73.05,63.15Q73.05,63 72.9,63 72.85,63 72.8,63.1 72.8,63.15 72.7,63.15 72.55,63.15 72.7,63 72.15,63.2 71.5,63.4L71.35,63.25Q71,63.6 70.9,63.6 70.9,63.75 70.65,64.3L70.65,64.4Q70.85,64.45 70.9,64.65 70.85,64.9 70.8,64.9 71,65.25 71,65.4 71,65.55 70.85,65.7 72.3,66.55 72.4,66.95L73.6,67.05Q73.95,67.05 75.45,66.95 75.5,67.85 75.95,68.85 76.15,69.85 76.15,70.35 76.4,70.55 76.5,71 76.7,71.6 76.8,71.85 77.45,73 77.7,73.15 77.95,73.45 78.35,73.75 78.35,73.65 78.5,73.5L78.75,73.6Q78.75,73.749 78.6,73.75 78.751,73.752 78.85,73.95L79.85,73.5Q80.3,72.9 80.55,72.45 80.4,72.6 80.2,72.7 80.1,72.65 80.15,72.6L80.7,71.45Q80.4,71.5 80.25,71.45 80.6,70.85 80.65,70.65L80.6,70.55Q80.75,70.3 80.85,70.3L80.9,69.7Q80.75,69.75 80.1,70.7 79.65,71.45 79.3,71.6 79.15,71.45 79.05,71.45 79.05,71.55 78.85,71.7 78.85,71.6 78.75,71.6 78.25,71 78.7,70.3 78.6,70.3 78.35,70.1L78.2,70.2Q78.35,69.9 78.35,69.85 78.104,69.112 78.1,69.25 78.101,68.897 78.3,68.45L78,68.4 77.95,66.9 78.35,67.45Q78.65,66.65 79,66.45 79.1,66.4 79.5,66.4 79.85,66.3 80.75,65.75 80.9,65.75 80.9,65.8 81.1,65.8 81.25,65.5L81.8,65.4Q81.95,65.4 81.95,65.45L82.8,65.25Q83.55,64.9 83.75,64.9 83.9,64.9 84.15,64.8 84.45,64.9 84.5,64.85 84.847,64.255 85.1,64.25 84.802,64.249 85,64.1L85.75,64.1Q85.85,64.1 86.05,63.85L86.05,63.6Q86.1,63.6 86.2,63.75 86.35,63.85 86.45,63.85 86.6,63.85 86.9,63.75 87,63.75 87.25,63.55 87.5,63.35 87.55,63.35 87.6,63.35 87.65,63.35L88.3,63.05 88.65,63.05Q89,62.75 89.5,62.8 89.3,62.65 89.15,62.65 88.9,62.65 88.7,62.5L88.8,62.3 89,62.55Q89,62.3 89.2,62.3 88.95,62.05 88.75,62.25 88.65,62.15 88.8,62L88.15,62.3 87.85,62.3Q87.85,62.2 88,62.1 88.25,62.1 88.3,62.05L88.2,61.8 86.9,61.75 87.55,61.25Q86.95,61.15 86.05,61.15L85.55,61.4Q85.45,61.15 84.95,61.15L83.9,61.25 M86.25,62.4L86.6,62.4Q87,62.65 86.85,62.65L86.25,62.4 M86.55,62.25Q86.65,62.1 86.6,62.1L86.8,62.15 86.55,62.25 M83.75,62.25Q83.55,62.25 83.4,62.1L83.65,62 83.75,62.25 M75.45,49.3L75.55,49.45 75.25,49.55 75.25,49.45 75.45,49.3 M30.85,65.75L30.85,66 30.7,66 30.7,65.75 30.85,65.75 M30.7,67.05L30.55,66.95 30.6,66.75 30.8,66.8 30.7,67.05"/><path fill="#FFF" d="M97.7,70.35L97.7,69.85 97.5,69.85 97.5,70.35 97.7,70.35"/><path fill="#FFF" d="M113.75,76.2L113.35,76.2 113.35,76.3 113.75,76.3 113.75,76.2"/><path fill="#FFF" d="M102.9,75.7L102.7,75.7 102.7,76 102.9,76 102.9,75.7"/><path fill="#FFF" d="M158.15,55.15Q158.1,55.15 158.05,55.2 158,55.25 157.9,55.25 157.8,55.25 157.35,54.85 156.95,54.4 156.8,54.4L156.5,54.4Q156.65,54.95 156.6,55.15 156.1,54.9 155.9,54.75L156,54.9 155.55,55.05 155.55,55.65Q155.55,55.9 155.75,56.4L156.7,62.7Q156.7,64.35 155.75,65.8L154.7,67.15 153.4,69.45Q152.4,70.55 151.4,71.4 150.95,71.75 150.5,72.05 150.3,72.2 150,72.2 149.15,72.8 148.95,72.9 148.05,73.5 147.65,73.5 147,73.5 146.5,72.25 146.1,71.25 146.05,70.35L145.95,69.9Q145.95,68.45 146.35,66.9 146.6,66.05 146.85,65.4 147.25,64.05 147.45,63.65 148.05,61.35 147.85,60.7 147.75,60.1 147.15,59.4 146.65,59.2 146.6,59.2 145.45,59.4 144.85,58.95 144.35,59.45 143.7,59.1 143,58.8 142.3,59.3 141.15,60.5 140.55,61.35 139.8,62.4 138.6,64.65L136.6,69.05Q136.35,69.65 136.35,71.05 136.35,71.5 137.15,72.9 138.25,74.25 138.55,74.5 139.55,74.45 140.8,73.25 141.1,73 142.9,70.95L143.15,70.95 145.05,74.25Q146.4,76.25 148.45,76.25 149.1,76.25 150.15,75.7L151.3,75.15Q151.4,75.15 151.5,75.25L151.4,75.5Q151.5,75.4 151.65,75.4 152.35,75.4 153.3,77.05 154.3,77.75 154.6,78.1 155.3,78.45 156.75,78.9 157.35,79.1 157.6,79.2L158.45,79.2Q158.65,79.2 158.9,78.65 158.95,78.45 159.1,77.95 160.4,75.3 160.2,73 160.45,72.5 160.45,72.35L160.25,62.8Q160.4,62.5 160.6,62.25 161.15,58.7 161.15,58.95L161.15,58Q160.45,56.6 160.2,55.85 160.05,55.7 159.7,55.7 159.35,55.7 159.3,55.8 158.85,55.15 158.15,55.15 M143.15,62.25Q143.8,61.35 144.1,61.55 144.2,61.7 144.2,61.9 144.2,62.1 144.05,62.95 143.85,63.7 143.9,64.35 143.2,64.45 143.15,65.4 143.15,65.55 143.15,65.7 143.15,66.3 141.75,67.85L140.2,69.75Q139.9,69.85 139.75,69.9L139.25,70.7 139.05,70.45Q138.95,70.85 138.95,70.2 138.95,69.25 140.3,66.8L141.9,64.1Q142.65,63.1 143.15,62.25 M155.7,71.4Q156.2,70.7 156.95,69.85L157.4,69.85 157.3,70.05 157.4,71.3 157.3,73.15Q156,74.25 155.65,74.25 155.3,74.25 154.65,74 154.55,73.95 154.55,73.75 154.55,72.9 155.7,71.4"/><path fill="#FFF" d="M131.8,61.05L131.7,60.65Q131.5,60.1 130.85,59.7L129.9,59Q128.95,58.1 127.35,58.1 126.95,58.1 126.3,58.35 126,59.65 124.9,60.35L124.9,60.75Q124.7,60.75 124.6,60.85 124.1,61.85 123.2,62.65 122.85,64.5 122.65,65.4L122.5,66.2Q122.5,66.3 122.65,66.65 122.3,69 122.9,71 123.45,72.9 124.05,73.75 124.6,74.55 125.7,75.05 126.7,75.5 127.6,75.5 128.1,75.5 129.15,74.9 130.1,74.45 130.6,74L132,72.35Q133.3,70.85 133.55,70.1 134.15,68.35 134.15,67.8L134.1,67.4 134.35,66.95 134.35,64.85 133.9,64Q133.6,63.2 133.55,63.15L131.8,61.05 M130.35,64.5Q130.45,65 130.5,65.4 130.6,66.05 130.6,66.55 130.6,66.6 130.75,66.8 130.8,67 130.8,67.1 130.8,67.3 130.5,68.35 130.05,69.5 129.7,69.85 128.5,71.1 127.45,72.1 126.3,72.65 126.1,72.65 125.7,72.65 125.6,71.75 125.6,69.95 126.8,66.2L128.65,62Q128.95,61.65 129.1,61.6L129.6,62.3Q130.1,63.3 130.1,64.1 130.3,64.4 130.35,64.5"/><path fill="#FFF" d="M44.05,43.85L44.05,44.4 43.8,44.85Q43.8,45.3 44.4,46.85L44.2,46.9Q44.55,47.15 44.5,47.8L44.4,47.6 44.55,48.55 44.55,49.3Q44.45,49.7 44.7,49.95L44.7,52.7Q44.25,53.6 44.45,54.05 44.25,54.4 44.25,54.6L44.25,54.9Q44.35,54.9 44.45,54.95 44.1,55.3 44.05,55.45 44.2,55.55 44.35,55.6L43.9,55.85 43.5,57.65 43.6,57.85 43.55,58.4 42.95,59.2Q42.4,60.85 42.25,61.6 42,61.8 41.9,61.8 41.9,61.95 41.85,62.3 41.75,62.65 41.5,63L41.4,63.5 40.4,66.05 39.8,66.9Q39.55,67.3 39.6,67.7 39.1,68.25 38.75,68.9 38.55,69.25 38.25,69.25 37.55,70.6 37.1,71.35 36.9,71.55 36.8,71.6 36.75,72.1 36.1,72.6 35.45,73.05 34.95,72.95 34.3,72.35 33.75,70.8 33.2,69.2 32.65,68.55 33,68.45 32.8,68.15 32.4,67.3 32.35,67.15L31.9,65.05 31.6,64.5Q31.6,63.95 31.6,63.7 31.4,62.6 31.25,62.05 31,59.6 31.1,58.1L30.85,57.95Q31,57.8 31,57.1 30.85,56.7 30.85,56.65 30.95,56.25 30.95,54.7 30.75,54.1 30.75,54L30.95,53.35Q31,52.85 30.85,52.55 31.05,50.15 31.05,48.85 31.546,48.602 31.45,48.6 31.647,48.6 31.65,48.7L31.65,47.9Q31.35,47.7 31.35,47.55 31.35,47.45 31.55,47.25L31.75,47Q31.5,46.9 31.45,46.55 30,45.95 29.1,45.3 28.85,45.75 28.75,45.75L28.1,45.5Q27.95,45.5 26.5,46.4 26.6,46.65 26.35,46.95 26.15,47.2 25.7,47.55L25.05,48.7 24.4,49.55Q24.3,49.75 24.05,50.1 23.7,50.95 23.45,51.45 22.7,53.65 22.4,54.05 21.9,55.8 21.8,55.95 21.7,57 21.5,57.45 20.95,58.6 20.95,59.6 20.4,60 20.4,61.35 20.4,61.75 20.55,61.9L20.1,62.25Q20.1,62.85 19.75,63.5L19.15,65.95Q18.75,66.75 18.4,67.1L17.8,63.7 17.8,59.05 17.95,58.7Q18,56.65 17.9,54.7L18.05,54.3 18.4,48.3Q18.5,47.85 18.75,47.85L20,50.3 20.7,50.8Q20.5,50.45 20.35,50.3L20.6,50.15Q20.75,50.3 20.9,50.3 21.1,50.3 21.65,49.4 21.35,49.1 21.35,48.85L21.25,47.45 20.75,46.65Q20.25,45 19.45,44.1L19.55,43.85Q19.75,44 19.9,43.95 19.6,43.6 19.6,43.4L19.25,43.4Q19.3,43.5 19.25,43.6L19.15,43.7 19.15,43Q18.8,43.25 18.8,43.35 18.55,43.15 18.35,43.15 17.95,43.35 17.85,43.35 17.7,43.35 17.45,43.05 17.25,42.8 17.2,42.8 16.55,42.75 16.2,42.65L15.15,43Q15.5,43.6 15.6,44L15.65,56.6Q15.65,59.55 16.2,64.4 16.45,66.15 16.75,67.8L17.05,68.55Q17.1,68.75 17,69 17.05,69.2 17.5,70.55 17.9,71.6 17.9,72.1 17.9,72.4 17.75,72.7 17.8,73 18.15,73.25L18.05,73.35Q18.3,73.6 18.35,73.95 18.35,74.5 19.05,75.3 19.85,76.25 20.75,76.25 21.95,76.25 21.65,73.35 22.45,67.85 22.95,63.5 23.15,62.6 23.4,61.65 23.15,61.6 23.2,61.15 23.35,61.35 23.35,61.5 23.7,59.7 24.4,57.05 24.6,56.4 24.9,55.95 24.95,55.8 24.9,55.6L26.05,53.1Q26.6,51.95 27.1,50.95 27.4,50.45 27.7,50.4L27.85,50.55Q28.25,54.85 28.25,56.75L28.2,57.2Q28.25,57.55 28.35,57.55L28.45,59.6 28.65,59.85 28.6,60.7Q29,63.2 29.45,64.8 29.65,65 29.75,65.05 29.95,66.75 30.25,67.45 30.35,67.65 30.25,67.8L30.5,68.3Q30.55,68.85 30.8,69.6 31.6,71.45 32.5,73.25 33.15,73.4 33.15,73.75 33.15,73.8 33.1,74L33.15,74Q33.5,74.7 33.4,74.95L33.65,74.8Q34.05,75.75 34.55,75.75L34.65,76.1Q35.45,76.7 35.8,76.7 35.9,76.7 35.9,76.65L36.05,76.6Q36.2,76.6 37,76.95 37.2,76.95 37.45,76.5 37.55,76.55 37.45,76.6 37.45,76.7 37.55,76.7L38.05,76.7Q38.15,76.7 38.55,76.35 38.65,76.3 38.55,76.25L39.85,74.85Q40.15,73.6 40.7,73.7 40.6,73.4 40.6,73.1 41.2,72.85 41.25,72.1 41.3,71.5 41.5,71.45 41.55,71.6 41.75,71.55 41.5,71.25 41.9,70.85L41.75,70.7Q41.85,70.45 42.05,70.3L42,70.05Q42.15,69.8 42.5,69.8 42.55,69.8 42.55,69.25 42.55,68.85 42.7,68.7L42.8,68.7 43.35,67.05Q43.35,66.95 43.25,66.7 43.3,66.3 43.55,66.15L43.45,64.9 43.6,64.75Q43.65,64.8 43.8,65.3 43.7,64.65 44,64.55 44.25,64.8 44.25,65L44.1,65.8Q44.55,65.05 44.5,64.9 44.4,64.1 44.35,63.9 44.5,64.1 44.8,63.4 44.8,63.3 44.75,63.2 44.6,63.1 44.6,63.05 44.75,62.9 44.85,62.9 44.8,62.55 44.75,62.55 44.9,61.45 44.9,61.35 45.05,61.15 45.1,61.15 45.1,61.5 45.2,61.65 45.15,61.4 45.6,60.35 45.65,60.15 45.85,60.1L45.9,59.2Q46.05,58.8 46.05,58.75L46.05,58.05Q46.1,57.55 46.4,57.3 46.5,57.45 46.5,57.6 46.55,57.1 46.9,56.6L46.65,56.35Q46.6,56.9 46.35,57.05L46.2,56.9 46.2,56.4Q46.55,56.15 46.7,56.1 46.6,55.7 46.7,55.55L47,55.55 47.25,53.35Q47.1,53.35 47.15,52.9L47.45,52.95 47.45,52.35Q47.4,52.05 47.4,51.7L47.1,52.35 46.9,51.85Q47.05,51.75 47.25,51.75 47.4,51.75 47.45,51L47.15,51.15 47,51.05 47.1,51.3 46.85,51.1 47,51.05 46.85,50.9 46.85,50.55Q47.05,50.55 47.15,50.85L47.25,50.15Q47.3,49.75 47.25,49.55 47.25,49.7 47.1,49.7 47.05,49.7 46.85,49.35 46.85,49.7 46.8,49.7 46.55,49.2 46.7,48.7 46.45,48.5 46.5,47.55 46.55,46.65 46.45,46.4 46.05,46.25 45.9,45.65L45.6,44.85Q44.9,44.35 44.8,43.85L44.2,43.6Q44.2,43.75 44.05,43.85 M45.7,46.45L45.8,46.4 45.95,46.55 45.7,46.45 M46.35,47.2L46.25,46.9 46.35,46.9 46.35,47.2 M30.85,65.75L30.85,66 30.7,66 30.7,65.75 30.85,65.75 M30.6,65.5L30.45,65.75 30.35,65.7 30.45,65.45 30.6,65.5 M30.7,67.05L30.55,66.95 30.6,66.75 30.8,66.8 30.7,67.05 M40.4,71.15L40.6,71.15 40.6,71.55 40.4,71.55 40.4,71.15 M46.5,52.3L46.35,52.3 46.35,52.05 46.5,52.05 46.5,52.3 M47.4,52.35L47.25,52.75 47.15,52.75 47.25,52.35 47.4,52.35 M46.7,53.25Q46.4,53.1 46.35,53.1 46.45,53 46.6,52.6 46.6,52.8 46.75,52.75L46.75,52.95 46.7,53.25 M46.25,54.25L46.35,54.3 46.2,54.65 46.05,54.55 46.25,54.25 M46.35,55.65L46.35,56 46.25,55.65 46.35,55.65 M46.65,53.55Q47,54.55 47,54.7 47,54.95 46.65,54.95L46.65,53.55 M45.3,56.6L45.15,56.6 45.15,56.3 45.3,56.3 45.3,56.6 M44.65,55.85L44.65,56.1 44.5,56.1 44.5,55.85 44.65,55.85 M44.6,58.5L44.75,58.6 44.65,58.75 44.5,58.6 44.6,58.5 M44.55,58.45L44.8,58.05 44.95,58.1 44.75,58.55 44.55,58.45 M45.45,57.95Q45.6,58.45 45.4,58.85 45.25,58.6 45.2,58.1L45.45,57.95 M44.95,58.6L44.95,58.95 44.8,58.95 44.8,58.6 44.95,58.6 M42.85,60.9L43.05,60.85 43.1,60.95 42.85,61.05 42.85,60.9 M44.65,60.15L44.65,59.85Q45.15,60 44.85,60.25L44.65,60.15 M43.9,59.95Q43.85,60 43.95,60.15L43.95,60.25 43.8,60.45 43.8,59.55Q44.1,59.7 43.9,59.95 M44.25,59.35L43.6,59.1Q43.7,58.8 43.95,58.6 43.95,58.95 43.95,59.05L44.25,59.35 M43.75,61.55L43.85,61.1 44.05,61.1 43.9,61.55 43.75,61.55 M43.2,61.3L43.1,61.65 42.95,61.6 43.1,61.3 43.2,61.3 M45.75,57.55L45.9,57.3 46,57.35 45.95,57.6 45.75,57.55 M44.1,62.65Q44.4,63.45 44.4,63.7L44.25,63.5Q44.15,63.5 43.8,63.7L43.95,62.75 44.1,62.65 M43.6,64.35L43.95,63.85 43.95,64.25Q43.75,64.25 43.6,64.35 M41.6,64L41.8,64 41.65,64.25 41.55,64.25 41.6,64 M42.25,66.45L42.35,65.95 42.5,65.95 42.4,66.45 42.25,66.45 M41.7,67.6Q41.85,68.05 41.55,68.3L41.45,67.95 41.7,67.6 M41.85,69.35L41.7,69.35 41.7,68.95 41.85,68.95 41.85,69.35 M40.8,72.85L40.85,72.6 41.05,72.6 40.9,72.85 40.8,72.85 M46.85,51.1L47,51.05 47.1,51.3 46.85,51.1"/><path fill="#FFF" d="M47.15,49.45L47.35,49.45 47.35,49.1 47.15,49.1 47.15,49.45"/><path fill="#FFF" d="M47.1,48.85Q47.1,48.7 46.95,48.05 47.05,48.55 46.9,49 46.95,48.95 47.1,48.85"/><path fill="#FFF" d="M32.75,73.4L32.65,73.45 32.75,73.7 32.9,73.7 32.75,73.4"/><path fill="#FFF" d="M78.55,67.95L78.45,67.55 78.2,68.05 78.55,67.95"/><path fill="#FFF" d="M80.6,73.75L79.7,74.05Q79.7,74.3 80.1,74.3 80.2,74.3 80.6,73.75"/><path fill="#FFF" d="M43.3,58.35L43.35,58.1 43.3,58.05 43.2,58.3 43.3,58.35"/><path fill="#FFF" d="M62.2,55.45L62,55.6 61.5,55.35Q61.15,55.35 60.75,56.25 60.75,57.45 61.25,58.5 61.85,59.7 61.85,59.85 61.85,60.5 61.4,62.05L61.1,62.45 61.15,63.05 60.95,63.4Q60.1,65.25 59.6,65.9L59.55,66.3Q58.4,68.2 56.45,70.3 56.25,70.6 55.8,70.85 55.75,71 55.6,71.15 54.2,72.1 53.4,72.1 52.9,72.1 52.5,71.8 51.75,71.05 51.75,70.75 51.75,70.65 52.5,69.7 53.25,68.75 53.25,68.45L53.65,68.2Q53.7,67.95 53.7,67.9 54.25,67.35 54.3,67.05 54.8,66 54.95,65.65 55.35,65.25 55.4,65.15 55.55,64.95 55.45,64.75 55.7,64.5 56.15,63.65L56.45,62.9 56.45,62.55 56.55,62.55Q56.7,62.55 56.9,61.75L57,60.95Q56.95,60.85 56.9,59.85L56.35,59.3Q55.85,58.95 55.05,58.2 55.1,58.1 55.05,58.05L54.8,57.9Q54.55,57.95 54.4,57.95 54.15,57.95 53.75,57.65 53.7,57.65 53.65,57.6 53.6,57.6 53.55,57.6 53.4,57.55 53.15,57.55 53.25,57.4 53.05,57.3 52.9,57.15 52.9,57.05L52.65,57.25Q52.6,57.25 52.65,57.2L52.35,56.9Q52.35,57.25 52.05,57.25L51.75,57.25Q51.65,57.25 51.65,57.05 51.25,57.45 51.2,57.7L50.9,57.55 49.95,59.35Q49.65,60.3 49.6,60.75L49.4,61 49.35,61.75 48.9,63.05 48.65,64.65 48.65,67.3Q48.95,67.5 49,67.65 49.05,67.8 48.9,67.9 48.95,68.55 49,68.6 49.25,70 49.95,71.45 50.7,72.9 51.65,73.6 53.2,74.65 53.8,74.65 54.05,74.65 54.65,74.45 55.3,74.3 55.7,74.3L56,74.1Q56.8,73.75 58.15,72.6 59.85,70.85 60.7,69.8 60.95,69.45 61,69.2 61.6,68.6 62.1,67.6L64,63Q64.1,62.65 64.25,62.65L65.2,63.6Q66.05,64.8 66.05,65.45 66.05,65.75 65.4,66.25 64.9,66.55 64.65,66.8L63.95,67.45Q63.45,67.95 63.45,68.2 63,68.35 62.85,68.8 62.3,69.75 61.95,70.05 61.85,70.15 61.8,70.3 61.75,70.45 61.75,70.7L61.85,71.4Q61.9,71.35 62.05,71.35L61.95,71.2 62.25,71 62.35,71.15 62.05,71.35Q62.6,71.35 62.4,71.85L62.85,72Q62.65,72.15 62.65,72.35 64.15,73.65 64.2,73.65 64.4,73.65 64.45,73.65 64.3,73.75 64.3,73.8 64.55,73.75 65.15,74.2L65.8,74.65Q65.9,74.65 66.1,74.8L67.35,74.8Q67.95,74.35 68.1,73.85L68.8,72.3Q69.25,71.15 69.25,70.65 69.25,70.45 69.25,70.3 69.25,69.6 69.1,68.9 68.955,68.222 68.95,68.425L68.95,67.85Q68.45,66.55 68.45,66.3 68.45,65.9 69.25,65.1L71.1,62.8Q70.85,62.95 70.25,63.2L70.2,63 71.15,62 70.8,62Q69.7,62.8 69.6,63.15 69.6,63.05 69.4,63.05 69.6,63.05 67.7,64.05 67.5,63.85 67.4,63.85 67,63.05 65.9,61.65 65.3,60.8 64.6,59.6 64.7,59.25 64.75,59.1 64.85,58.55 64.45,56.75 64,56.65 63.75,56.4 63.55,56.2 63.55,56.15 63.45,56.2 63.3,56.2 63.15,56.2 63.05,55.8 63,55.9 62.85,55.9 62.8,55.9 62.85,55.8 62.85,55.7 62.8,55.7L62.55,55.7Q62.5,55.65 62.4,55.65 62.4,55.8 62.35,55.8 62.2,55.8 62.2,55.45 M46.35,55.65L46.35,56 46.25,55.65 46.35,55.65 M45.45,57.95Q45.6,58.45 45.4,58.85 45.25,58.6 45.2,58.1L45.45,57.95 M45.75,57.55L45.9,57.3 46,57.35 45.95,57.6 45.75,57.55 M44.1,62.65Q44.4,63.45 44.4,63.7L44.25,63.5Q44.15,63.5 43.8,63.7L43.95,62.75 44.1,62.65 M65.6,69.35L65.45,69.35 66.1,68.55Q66.35,68.15 66.75,67.95 67,69.2 67.05,69.7 67.05,70 66.95,70.3 66.85,70.45 66.8,70.55 66.55,70.95 66.2,70.95L65.4,71.05Q65.3,71.05 65.05,70.85 64.85,70.65 64.8,70.6 64.85,70.45 64.9,70.3 65.1,69.9 65.6,69.35 M53.15,60.15Q53.45,60.15 53.65,60.4L53.7,60.4Q53.8,60.5 53.55,61.55 53.45,61.7 53.45,61.9L52.9,64.05Q52.8,63.95 52.75,64 52.05,64.5 52.25,65.3L51.9,65.3Q51.85,65.4 51.4,66.05 51,66.7 51,66.95L50.75,66.95Q50.7,66.15 50.9,64.9 51.2,63.15 51.5,62.9L51.5,62.8 52.05,61.25Q52.55,60.15 53.15,60.15 M56.55,59.75L56.65,59.85 56.45,59.85 56.55,59.75"/></g><defs/></svg>