<?xml version="1.0" encoding="utf-8"?><svg xmlns:xlink="http://www.w3.org/1999/xlink" id="Scene_1" image-rendering="auto" baseProfile="basic" version="1.1" x="0px" y="0px" width="140" height="140" viewBox="0 0 140 140" xmlns="http://www.w3.org/2000/svg"><g id="Scene 1_5.0"><path fill="#7E0052" d="M9.25,130.8L130.8,130.8 130.8,9.25 9.25,9.25 9.25,130.8"/></g><g id="Scene 1_4.0"><path fill="#E2D3C5" d="M89.3,45.35Q86.75,43.05 83.35,43.25 79.95,43.45 77.7,46 75.85,48.1 76,50.9 76.15,53.75 78.25,55.6 79.95,57.15 82.3,57 84.7,56.85 86.2,55.1 86.5,54.8 86.45,54.35 86.45,53.9 86.1,53.6 85.8,53.35 85.35,53.35 84.9,53.35 84.6,53.7 83.65,54.85 82.2,54.9 80.8,55 79.65,54 78.2,52.7 78.1,50.8 78,48.85 79.25,47.45 80.95,45.55 83.45,45.4 85.95,45.25 87.85,46.9 90.3,49.1 90.5,52.35 90.7,55.6 88.5,58.05 85.7,61.15 81.55,61.4 77.35,61.65 74.25,58.9 71.3,56.25 70.65,52.8 70.25,50.7 70.7,46.8L70.7,46.65 71.65,46.2Q75.65,44.45 77.5,42.85 80.65,40.15 81.6,35.55 82.6,30.65 79.8,26.35 76.95,22.1 72.05,21.1 68.05,20.25 64.55,22.55 61.1,24.85 60.25,28.9 59.55,32.3 61.45,35.05 63.3,37.9 66.65,38.6 69.35,39.15 71.75,37.6 74.1,36 74.65,33.3 75.1,31.05 73.85,29.1 72.55,27.1 70.25,26.65 69.85,26.55 69.45,26.8 69.05,27.05 69,27.5 68.95,27.9 69.15,28.3 69.4,28.65 69.85,28.75 71.3,29.1 72.05,30.25 72.85,31.5 72.55,32.9 72.15,34.8 70.55,35.85 68.9,36.85 67.05,36.5 64.65,36.05 63.2,33.9 61.8,31.8 62.35,29.3 62.95,26.15 65.7,24.35 68.4,22.6 71.65,23.2 75.75,24.05 78.05,27.55 80.35,31.1 79.5,35.15 78.7,39 76,41.3 74.45,42.65 70.8,44.25L69.95,44.65 69.95,44.6Q66.4,42 64.1,41.25 60.2,39.9 55.75,41.35 50.95,42.95 48.7,47.5 46.4,52.05 48,56.85 49.05,59.95 51.7,61.85 52.437,62.374 53.225,62.75 55.207,63.7 57.5,63.7 59,63.7 60.65,63.15 61.185,62.977 61.675,62.75 64.147,61.598 65.4,59.05 66.95,56 65.85,52.8 65,50.15 62.5,48.85 59.95,47.6 57.3,48.5 55.1,49.2 54,51.3 52.95,53.4 53.7,55.6 53.85,56.05 54.25,56.25 54.65,56.45 55.05,56.3 55.45,56.15 55.65,55.75 55.85,55.35 55.7,54.95 55.25,53.55 55.9,52.25 56.55,50.95 57.95,50.5 59.8,49.9 61.5,50.75 63.25,51.6 63.85,53.45 64.65,55.85 63.5,58.1 62.35,60.35 60,61.15 56.9,62.15 53.95,60.7 51.05,59.25 50,56.15 48.7,52.2 50.6,48.45 52.45,44.7 56.45,43.4 60.2,42.15 63.5,43.3 65.5,44 68.6,46.3L68.55,46.55Q68.05,50.9 68.55,53.3 69.35,57.4 72.85,60.45 74.523,61.975 76.5,62.75 78.563,63.55 80.95,63.55 83.379,63.55 85.45,62.75 88.062,61.739 90.1,59.45 92.85,56.35 92.6,52.25 92.35,48.1 89.3,45.35"/><path fill="#E2D3C5" d="M88.2,73.45Q85.55,71.9 82.5,71.9 77.55,71.9 74.05,75.65 70.55,79.35 70.55,84.65 70.55,90 74.3,93.7 78.05,97.4 83.5,97.4 89.1,97.4 91.55,94.75 93.95,92.1 93.6,86.8 93.35,83.55 90.85,82.7 89.2,82.15 83.45,82.2L79.85,82.25Q79.45,82.25 79.15,82.55 78.85,82.85 78.85,83.25 78.85,83.65 79.15,83.95 79.45,84.25 79.85,84.25L83.45,84.25Q88.8,84.15 90.05,84.55 91.45,85 91.55,86.95 91.9,91.4 90.1,93.35 88.2,95.35 83.5,95.35 78.8,95.35 75.7,92.3 72.55,89.25 72.55,84.65 72.55,80.2 75.45,77.1 78.4,73.95 82.5,73.95 85,73.95 87.2,75.25 89.4,76.5 90.8,78.75 91.05,79.15 91.45,79.25 91.85,79.35 92.2,79.1 92.55,78.9 92.65,78.45 92.75,78.05 92.55,77.7 90.85,74.95 88.2,73.45"/><path fill="#E2D3C5" d="M98.35,85.35L98.35,84.9Q98.35,82.64 98.975,80.75 98.214,79.593 96.875,80.75 96.35,82.66 96.35,84.9 96.35,90.35 99.65,93.9 102.9,97.4 108.25,97.65L109.2,97.65Q114.95,97.65 118.85,93.6 119.5,92.9 118.8,92.2 118.5,91.9 118.1,91.9 117.65,91.9 117.4,92.2 115.55,94.15 113.4,94.95 111.25,95.75 108.35,95.6 104.5,95.45 101.9,93.25 99.3,91.1 98.6,87.45 105,88.4 109.75,87.85 114.5,87.3 117,85.4 119.25,83.65 119.45,81.2 119.469,80.972 119.475,80.75 118.45,80.05 117.425,80.75 117.414,80.874 117.4,81 117.35,82.5 115.8,83.8 113.6,85.5 109.05,85.9 104.45,86.3 98.35,85.35"/><path fill="#E2D3C5" d="M30.05,71.5Q26.7,71.55 24.65,73.15 22.8,74.6 22.6,76.6 22.4,78.35 23.6,79.8 25,81.6 28,82.25 34.45,83.6 36.95,85 39.85,86.6 39.75,89.35L39.75,89.4Q39.6,94.7 32.35,94.7 27.6,94.7 24.7,93.25 23.05,92.4 22.4,91.35 22.2,91 21.75,90.9 21.35,90.85 21,91.05 20.65,91.3 20.55,91.7 20.5,92.1 20.7,92.45 21.65,93.9 23.65,95 27,96.75 32.35,96.75 36.75,96.75 39.2,94.85 41.65,92.95 41.75,89.45L41.75,89.4Q41.9,85.5 38.05,83.3 35.3,81.75 28.4,80.25 26.55,79.9 25.55,78.9 24.5,77.95 24.6,76.8 24.7,75.5 26.15,74.6 27.65,73.55 30.05,73.55 36.4,73.55 39.25,75.55 39.6,75.8 40,75.7 40.45,75.6 40.65,75.25 40.9,74.9 40.85,74.5 40.75,74.1 40.4,73.85 36.95,71.5 30.05,71.5"/><path fill="#E2D3C5" d="M55.7,72.15Q52.35,72 49.8,73 47.3,73.95 45.1,76.2 44.45,76.9 45.15,77.6 45.45,77.9 45.85,77.9 46.25,77.9 46.55,77.6 48.45,75.7 50.55,74.85 52.75,74.05 55.6,74.2 59.5,74.4 62.05,76.55 64.65,78.75 65.35,82.35 58.95,81.4 54.2,81.95 49.45,82.5 46.9,84.45 45.133,85.847 44.65,87.75 45.7,88.4 46.75,87.75 47.156,86.779 48.15,86.05 51.1,83.8 57.8,83.8 61.5,83.8 65.55,84.45L65.6,84.9Q65.6,86.407 65.325,87.75 66.15,88.65 67.375,87.75 67.6,86.399 67.6,84.9 67.6,79.45 64.3,75.9 61.05,72.4 55.7,72.15"/><path fill="#E2D3C5" d="M73.4,109.4L73.4,106.4 78.65,106.4 78.7,105.95 78.65,105.45 72.35,105.45 72.35,114.35 78.65,114.35 78.7,113.9 78.65,113.4 73.4,113.4 73.4,110.35 78,110.35 78.05,109.95 78,109.4 73.4,109.4"/><path fill="#E2D3C5" d="M69.25,105.95L69.2,105.45 62,105.45 61.95,105.85 62,106.4 65.1,106.4 65.1,114.3 65.55,114.35 66.1,114.3 66.1,106.4 69.2,106.4 69.25,105.95"/><path fill="#E2D3C5" d="M55.05,105.4Q53.15,105.6 52.1,106.95 51.25,107.9 51.05,109.25 50.9,110.8 51.5,112.05 52.85,114.5 55.75,114.5 57.4,114.5 58.7,113.4 60.05,112.3 60.3,110.65 60.6,108.3 58.9,106.6 57.25,105.05 55.05,105.4 M53.5,107.05Q54.4,106.35 55.65,106.3 56.75,106.3 57.65,106.9 58.45,107.4 58.85,108.25 59.7,109.95 58.8,111.6 57.95,113.2 56.35,113.45 54.95,113.7 53.8,112.95 52.7,112.3 52.3,111.1 51.9,109.75 52.3,108.65 52.7,107.7 53.5,107.05"/><path fill="#E2D3C5" d="M47.2,105.5L47.2,109.4 41.9,109.4 41.9,105.45 40.8,105.5 40.8,114.3 41.3,114.35 41.85,114.3 41.85,111.75 41.9,111.75 41.9,110.4 47.2,110.4 47.2,114.3 47.65,114.35 48.25,114.3 48.25,105.45 47.2,105.5"/><path fill="#E2D3C5" d="M95.5,106.85L95.9,106.05Q94.55,105.1 92.5,105.35 91.4,105.45 90.8,106.05 90.1,106.65 90.1,107.6 90.05,109.35 92.4,110.05 94.35,110.65 94.7,110.95 95.35,111.6 95.05,112.5 94.8,113.4 93.6,113.55 92.2,113.8 90.45,112.75 90.2,113.05 90,113.55 91.35,114.5 93.15,114.5 94.5,114.5 95.4,113.75 96.4,112.95 96.25,111.65 96.15,110.6 95.3,110.05 94.8,109.7 93.45,109.3 92.2,108.95 91.8,108.7 91,108.15 91.25,107.15 91.4,106.65 92.1,106.4 92.8,106.15 93.55,106.25 94.05,106.3 95.5,106.85"/><path fill="#E2D3C5" d="M82.65,105.4L82.05,105.45 82.1,114.35 88.35,114.35 88.4,113.95 88.35,113.4 83.1,113.4 83.1,105.45 82.65,105.4"/></g><g id="Scene 1_3.0"><path fill="#E2D3C5" d="M96.875,80.75Q97.727,81.343 98.975,80.75 99.582,78.959 100.75,77.5 103.4,74.15 108.2,74.15 113.75,74.15 116.15,76.7 117.625,78.318 117.425,80.75 118.25,81.55 119.475,80.75 119.612,77.503 117.6,75.35 114.8,72.15 108.2,72.15 102.95,72.15 99.65,75.7 97.658,77.843 96.875,80.75"/><path fill="#E2D3C5" d="M46.75,87.75Q46.071,86.729 44.65,87.75 44.545,88.163 44.5,88.6 44.2,92.2 46.3,94.45 49.2,97.65 55.75,97.65 61,97.65 64.3,94.1 66.724,91.492 67.375,87.75 66.635,86.513 65.325,87.75 64.795,90.328 63.25,92.3 60.55,95.65 55.75,95.65 50.1,95.65 47.8,93.1 46.3,91.4 46.5,88.8 46.551,88.244 46.75,87.75"/></g><g id="Scene 1_1.0"><path fill="#E2D3C5" d="M101.6,107.35L101.6,107.3Q101.35,107.1 101.2,107.3L101.2,107.35Q101.2,108.05 100.75,108.5 100.3,108.95 99.65,108.95 99,108.95 98.5,108.5 98.05,108.05 98.05,107.4 97.85,107.3 97.7,107.4 97.7,108.2 98.25,108.75 98.8,109.3 99.65,109.3 100.45,109.3 101,108.75 101.6,108.2 101.6,107.35"/><path fill="#E2D3C5" d="M99.25,107.6L99.6,107.6 100.1,108.45 100.5,108.45 99.9,107.5Q100.3,107.35 100.35,107 100.15,106.9 100,107 99.95,107.15 99.85,107.25 99.75,107.3 99.5,107.3L99.25,107.3 99.25,107Q99.1,106.9 98.95,107L98.95,108.45 99.25,108.45 99.25,107.6"/></g><g id="Scene 1_0.0"><path fill="#E2D3C5" d="M99.5,106.6Q99.75,106.6 99.85,106.7 100,106.8 100,106.95L100,107Q100.15,107.2 100.35,107L100.35,106.95Q100.35,106.65 100.15,106.5 99.95,106.35 99.55,106.35L98.95,106.35 98.95,107Q99.1,107.15 99.25,107L99.25,106.6 99.5,106.6"/><path fill="#E2D3C5" d="M99.65,105.8Q100.3,105.8 100.75,106.25 101.2,106.7 101.2,107.3 101.45,107.45 101.6,107.3 101.55,106.55 101,106 100.45,105.4 99.65,105.4 98.8,105.4 98.25,106 97.7,106.55 97.7,107.35L97.7,107.4Q97.9,107.55 98.05,107.4L98.05,107.35Q98.05,106.7 98.5,106.25 99,105.8 99.65,105.8"/></g><defs/></svg>